<svg xmlns="http://www.w3.org/2000/svg" class="svg" width="1008" height="675" style="display: block;">
<defs><style type="text/css"><![CDATA[
:root { overflow: hidden; }
.svg { background-color: rgb(255, 255, 255); }
.node text { font-size: 12px; font-family: Roboto, sans-serif; font-weight: normal; font-style: normal; fill: rgb(0, 0, 0); }
.node circle { fill: rgb(69, 113, 24); stroke: rgb(69, 113, 24); stroke-width: 1px; }
path { fill: none; stroke: rgb(144, 144, 144); stroke-width: 1px; }]]></style></defs>
    <g transform="translate(100,337.5) scale(1)"><path class="link" d="M200,0C100,0 100,0 0,0"/><path class="link" d="M400,-738.75C300,-738.75 300,0 200,0"/><path class="link" d="M400,-671.25C300,-671.25 300,0 200,0"/><path class="link" d="M400,-603.75C300,-603.75 300,0 200,0"/><path class="link" d="M400,-303.75000000000006C300,-303.75000000000006 300,0 200,0"/><path class="link" d="M400,52.5C300,52.5 300,0 200,0"/><path class="link" d="M400,198.75C300,198.75 300,0 200,0"/><path class="link" d="M400,423.75C300,423.75 300,0 200,0"/><path class="link" d="M400,588.75C300,588.75 300,0 200,0"/><path class="link" d="M400,708.75C300,708.75 300,0 200,0"/><path class="link" d="M400,723.75C300,723.75 300,0 200,0"/><path class="link" d="M400,738.75C300,738.75 300,0 200,0"/><path class="link" d="M600,-738.75C500,-738.75 500,-738.75 400,-738.75"/><path class="link" d="M600,-603.75C500,-603.75 500,-603.75 400,-603.75"/><path class="link" d="M600,-573.75C500,-573.75 500,-303.75000000000006 400,-303.75000000000006"/><path class="link" d="M600,-558.75C500,-558.75 500,-303.75000000000006 400,-303.75000000000006"/><path class="link" d="M600,-543.75C500,-543.75 500,-303.75000000000006 400,-303.75000000000006"/><path class="link" d="M600,-528.75C500,-528.75 500,-303.75000000000006 400,-303.75000000000006"/><path class="link" d="M600,-513.75C500,-513.75 500,-303.75000000000006 400,-303.75000000000006"/><path class="link" d="M600,-498.75C500,-498.75 500,-303.75000000000006 400,-303.75000000000006"/><path class="link" d="M600,-483.75C500,-483.75 500,-303.75000000000006 400,-303.75000000000006"/><path class="link" d="M600,-468.75C500,-468.75 500,-303.75000000000006 400,-303.75000000000006"/><path class="link" d="M600,-453.75C500,-453.75 500,-303.75000000000006 400,-303.75000000000006"/><path class="link" d="M600,-438.75C500,-438.75 500,-303.75000000000006 400,-303.75000000000006"/><path class="link" d="M600,-423.75000000000006C500,-423.75000000000006 500,-303.75000000000006 400,-303.75000000000006"/><path class="link" d="M600,-408.75000000000006C500,-408.75000000000006 500,-303.75000000000006 400,-303.75000000000006"/><path class="link" d="M600,-393.75000000000006C500,-393.75000000000006 500,-303.75000000000006 400,-303.75000000000006"/><path class="link" d="M600,-378.75000000000006C500,-378.75000000000006 500,-303.75000000000006 400,-303.75000000000006"/><path class="link" d="M600,-363.75000000000006C500,-363.75000000000006 500,-303.75000000000006 400,-303.75000000000006"/><path class="link" d="M600,-348.75000000000006C500,-348.75000000000006 500,-303.75000000000006 400,-303.75000000000006"/><path class="link" d="M600,-333.75000000000006C500,-333.75000000000006 500,-303.75000000000006 400,-303.75000000000006"/><path class="link" d="M600,-318.75000000000006C500,-318.75000000000006 500,-303.75000000000006 400,-303.75000000000006"/><path class="link" d="M600,-303.75000000000006C500,-303.75000000000006 500,-303.75000000000006 400,-303.75000000000006"/><path class="link" d="M600,-288.75C500,-288.75 500,-303.75000000000006 400,-303.75000000000006"/><path class="link" d="M600,-273.75C500,-273.75 500,-303.75000000000006 400,-303.75000000000006"/><path class="link" d="M600,-258.75C500,-258.75 500,-303.75000000000006 400,-303.75000000000006"/><path class="link" d="M600,-243.75C500,-243.75 500,-303.75000000000006 400,-303.75000000000006"/><path class="link" d="M600,-228.75C500,-228.75 500,-303.75000000000006 400,-303.75000000000006"/><path class="link" d="M600,-213.75C500,-213.75 500,-303.75000000000006 400,-303.75000000000006"/><path class="link" d="M600,-198.75C500,-198.75 500,-303.75000000000006 400,-303.75000000000006"/><path class="link" d="M600,-183.75C500,-183.75 500,-303.75000000000006 400,-303.75000000000006"/><path class="link" d="M600,-168.75C500,-168.75 500,-303.75000000000006 400,-303.75000000000006"/><path class="link" d="M600,-153.75C500,-153.75 500,-303.75000000000006 400,-303.75000000000006"/><path class="link" d="M600,-138.75C500,-138.75 500,-303.75000000000006 400,-303.75000000000006"/><path class="link" d="M600,-123.75C500,-123.75 500,-303.75000000000006 400,-303.75000000000006"/><path class="link" d="M600,-108.75C500,-108.75 500,-303.75000000000006 400,-303.75000000000006"/><path class="link" d="M600,-93.75C500,-93.75 500,-303.75000000000006 400,-303.75000000000006"/><path class="link" d="M600,-78.75C500,-78.75 500,-303.75000000000006 400,-303.75000000000006"/><path class="link" d="M600,-63.75C500,-63.75 500,-303.75000000000006 400,-303.75000000000006"/><path class="link" d="M600,-48.75C500,-48.75 500,-303.75000000000006 400,-303.75000000000006"/><path class="link" d="M600,-33.75C500,-33.75 500,-303.75000000000006 400,-303.75000000000006"/><path class="link" d="M600,-3.75C500,-3.75 500,52.5 400,52.5"/><path class="link" d="M600,15C500,15 500,52.5 400,52.5"/><path class="link" d="M600,33.75C500,33.75 500,52.5 400,52.5"/><path class="link" d="M600,63.75C500,63.75 500,52.5 400,52.5"/><path class="link" d="M600,93.75C500,93.75 500,52.5 400,52.5"/><path class="link" d="M600,108.75C500,108.75 500,52.5 400,52.5"/><path class="link" d="M600,138.75C500,138.75 500,198.75 400,198.75"/><path class="link" d="M600,153.75C500,153.75 500,198.75 400,198.75"/><path class="link" d="M600,168.75C500,168.75 500,198.75 400,198.75"/><path class="link" d="M600,183.75C500,183.75 500,198.75 400,198.75"/><path class="link" d="M600,198.75C500,198.75 500,198.75 400,198.75"/><path class="link" d="M600,213.75C500,213.75 500,198.75 400,198.75"/><path class="link" d="M600,228.75C500,228.75 500,198.75 400,198.75"/><path class="link" d="M600,243.75C500,243.75 500,198.75 400,198.75"/><path class="link" d="M600,258.75C500,258.75 500,198.75 400,198.75"/><path class="link" d="M600,288.75C500,288.75 500,423.75 400,423.75"/><path class="link" d="M600,303.75C500,303.75 500,423.75 400,423.75"/><path class="link" d="M600,318.75C500,318.75 500,423.75 400,423.75"/><path class="link" d="M600,333.75C500,333.75 500,423.75 400,423.75"/><path class="link" d="M600,348.75C500,348.75 500,423.75 400,423.75"/><path class="link" d="M600,363.75C500,363.75 500,423.75 400,423.75"/><path class="link" d="M600,378.75C500,378.75 500,423.75 400,423.75"/><path class="link" d="M600,393.75C500,393.75 500,423.75 400,423.75"/><path class="link" d="M600,408.75C500,408.75 500,423.75 400,423.75"/><path class="link" d="M600,423.75C500,423.75 500,423.75 400,423.75"/><path class="link" d="M600,438.75C500,438.75 500,423.75 400,423.75"/><path class="link" d="M600,453.75C500,453.75 500,423.75 400,423.75"/><path class="link" d="M600,468.75C500,468.75 500,423.75 400,423.75"/><path class="link" d="M600,483.75C500,483.75 500,423.75 400,423.75"/><path class="link" d="M600,498.75C500,498.75 500,423.75 400,423.75"/><path class="link" d="M600,513.75C500,513.75 500,423.75 400,423.75"/><path class="link" d="M600,528.75C500,528.75 500,423.75 400,423.75"/><path class="link" d="M600,543.75C500,543.75 500,423.75 400,423.75"/><path class="link" d="M600,558.75C500,558.75 500,423.75 400,423.75"/><path class="link" d="M600,588.75C500,588.75 500,588.75 400,588.75"/><path class="link" d="M600,618.75C500,618.75 500,708.75 400,708.75"/><path class="link" d="M600,633.75C500,633.75 500,708.75 400,708.75"/><path class="link" d="M600,648.75C500,648.75 500,708.75 400,708.75"/><path class="link" d="M600,663.75C500,663.75 500,708.75 400,708.75"/><path class="link" d="M600,678.75C500,678.75 500,708.75 400,708.75"/><path class="link" d="M600,693.75C500,693.75 500,708.75 400,708.75"/><path class="link" d="M600,708.75C500,708.75 500,708.75 400,708.75"/><path class="link" d="M600,723.75C500,723.75 500,708.75 400,708.75"/><path class="link" d="M600,738.75C500,738.75 500,708.75 400,708.75"/><path class="link" d="M600,753.75C500,753.75 500,708.75 400,708.75"/><path class="link" d="M600,768.75C500,768.75 500,708.75 400,708.75"/><path class="link" d="M600,783.75C500,783.75 500,708.75 400,708.75"/><path class="link" d="M600,798.75C500,798.75 500,708.75 400,708.75"/><path class="link" d="M800,-776.25C700,-776.25 700,-738.75 600,-738.75"/><path class="link" d="M800,-761.25C700,-761.25 700,-738.75 600,-738.75"/><path class="link" d="M800,-746.25C700,-746.25 700,-738.75 600,-738.75"/><path class="link" d="M800,-731.25C700,-731.25 700,-738.75 600,-738.75"/><path class="link" d="M800,-716.25C700,-716.25 700,-738.75 600,-738.75"/><path class="link" d="M800,-701.25C700,-701.25 700,-738.75 600,-738.75"/><path class="link" d="M800,-671.25C700,-671.25 700,-603.75 600,-603.75"/><path class="link" d="M800,-656.25C700,-656.25 700,-603.75 600,-603.75"/><path class="link" d="M800,-641.25C700,-641.25 700,-603.75 600,-603.75"/><path class="link" d="M800,-626.25C700,-626.25 700,-603.75 600,-603.75"/><path class="link" d="M800,-611.25C700,-611.25 700,-603.75 600,-603.75"/><path class="link" d="M800,-596.25C700,-596.25 700,-603.75 600,-603.75"/><path class="link" d="M800,-581.25C700,-581.25 700,-603.75 600,-603.75"/><path class="link" d="M800,-566.25C700,-566.25 700,-603.75 600,-603.75"/><path class="link" d="M800,-551.25C700,-551.25 700,-603.75 600,-603.75"/><path class="link" d="M800,-536.25C700,-536.25 700,-603.75 600,-603.75"/><path class="link" d="M800,-11.25C700,-11.25 700,-3.75 600,-3.75"/><path class="link" d="M800,3.75C700,3.75 700,-3.75 600,-3.75"/><path class="link" d="M800,33.75C700,33.75 700,33.75 600,33.75"/><path class="link" d="M800,63.75C700,63.75 700,63.75 600,63.75"/><path class="link" d="M800,93.75C700,93.75 700,93.75 600,93.75"/><path class="link" d="M800,483.75C700,483.75 700,483.75 600,483.75"/><g class="node" transform="translate(0, 0)"><circle r="4.5" cursor="pointer" style="fill: rgb(69, 113, 24); stroke: rgb(69, 113, 24);"/><text dy=".35em" x="-13" text-anchor="end" style="fill-opacity: 1;">metagame.wtf</text></g><g class="node" transform="translate(200, 0)"><circle r="4.5" cursor="pointer" style="fill: rgb(69, 113, 24); stroke: rgb(69, 113, 24);"/><text dy=".35em" x="-13" text-anchor="end" style="fill-opacity: 1;">dashboard</text></g><g class="node" transform="translate(400, -738.75)"><circle r="4.5" cursor="pointer" style="fill: rgb(69, 113, 24); stroke: rgb(69, 113, 24);"/><text dy=".35em" x="-13" text-anchor="end" style="fill-opacity: 1;">wiki</text></g><g class="node" transform="translate(400, -671.25)"><circle r="4.5" cursor="pointer" style="fill: rgb(69, 113, 24); stroke: rgb(69, 113, 24);"/><text dy=".35em" x="13" text-anchor="start" style="fill-opacity: 1;">metaradio</text></g><g class="node" transform="translate(400, -603.75)"><circle r="4.5" cursor="pointer" style="fill: rgb(69, 113, 24); stroke: rgb(69, 113, 24);"/><text dy=".35em" x="-13" text-anchor="end" style="fill-opacity: 1;">thegreathouses</text></g><g class="node" transform="translate(400, -303.75)"><circle r="4.5" cursor="pointer" style="fill: rgb(69, 113, 24); stroke: rgb(69, 113, 24);"/><text dy=".35em" x="-13" text-anchor="end" style="fill-opacity: 1;">patrons</text></g><g class="node" transform="translate(400, 52.5)"><circle r="4.5" cursor="pointer" style="fill: rgb(69, 113, 24); stroke: rgb(69, 113, 24);"/><text dy=".35em" x="-13" text-anchor="end" style="fill-opacity: 1;">navigation-board</text></g><g class="node" transform="translate(400, 198.75)"><circle r="4.5" cursor="pointer" style="fill: rgb(69, 113, 24); stroke: rgb(69, 113, 24);"/><text dy=".35em" x="-13" text-anchor="end" style="fill-opacity: 1;">players</text></g><g class="node" transform="translate(400, 423.75)"><circle r="4.5" cursor="pointer" style="fill: rgb(69, 113, 24); stroke: rgb(69, 113, 24);"/><text dy=".35em" x="-13" text-anchor="end" style="fill-opacity: 1;">guilds</text></g><g class="node" transform="translate(400, 588.75)"><circle r="4.5" cursor="pointer" style="fill: rgb(69, 113, 24); stroke: rgb(69, 113, 24);"/><text dy=".35em" x="-13" text-anchor="end" style="fill-opacity: 1;">events</text></g><g class="node" transform="translate(400, 708.75)"><circle r="4.5" cursor="pointer" style="fill: rgb(69, 113, 24); stroke: rgb(69, 113, 24);"/><text dy=".35em" x="-13" text-anchor="end" style="fill-opacity: 1;">how-to-make-it-without-technical-skills</text></g><g class="node" transform="translate(400, 723.75)"><circle r="4.5" cursor="pointer" style="fill: rgb(69, 113, 24); stroke: rgb(69, 113, 24);"/><text dy=".35em" x="13" text-anchor="start" style="fill-opacity: 1;">seeds</text></g><g class="node" transform="translate(400, 738.75)"><circle r="4.5" cursor="pointer" style="fill: rgb(69, 113, 24); stroke: rgb(69, 113, 24);"/><text dy=".35em" x="13" text-anchor="start" style="fill-opacity: 1;">quests</text></g><g class="node" transform="translate(600, -738.75)"><circle r="4.5" cursor="pointer" style="fill: rgb(69, 113, 24); stroke: rgb(69, 113, 24);"/><text dy=".35em" x="-13" text-anchor="end" style="fill-opacity: 1;">wtf-is-metagame</text></g><g class="node" transform="translate(600, -603.75)"><circle r="4.5" cursor="pointer" style="fill: rgb(201, 45, 45); stroke: rgb(201, 45, 45);"/><text dy=".35em" x="-13" text-anchor="end" style="fill-opacity: 1;">house-of-daos</text></g><g class="node" transform="translate(600, -573.75)"><circle r="4.5" cursor="pointer" style="fill: rgb(69, 113, 24); stroke: rgb(69, 113, 24);"/><text dy=".35em" x="13" text-anchor="start" style="fill-opacity: 1;">0x37bd0ae78dd5cd338d6e80b5c87b6f8e38121297</text></g><g class="node" transform="translate(600, -558.75)"><circle r="4.5" cursor="pointer" style="fill: rgb(69, 113, 24); stroke: rgb(69, 113, 24);"/><text dy=".35em" x="13" text-anchor="start" style="fill-opacity: 1;">dunks411</text></g><g class="node" transform="translate(600, -543.75)"><circle r="4.5" cursor="pointer" style="fill: rgb(69, 113, 24); stroke: rgb(69, 113, 24);"/><text dy=".35em" x="13" text-anchor="start" style="fill-opacity: 1;">ecwireless</text></g><g class="node" transform="translate(600, -528.75)"><circle r="4.5" cursor="pointer" style="fill: rgb(69, 113, 24); stroke: rgb(69, 113, 24);"/><text dy=".35em" x="13" text-anchor="start" style="fill-opacity: 1;">0xjoshua</text></g><g class="node" transform="translate(600, -513.75)"><circle r="4.5" cursor="pointer" style="fill: rgb(69, 113, 24); stroke: rgb(69, 113, 24);"/><text dy=".35em" x="13" text-anchor="start" style="fill-opacity: 1;">kris</text></g><g class="node" transform="translate(600, -498.75)"><circle r="4.5" cursor="pointer" style="fill: rgb(69, 113, 24); stroke: rgb(69, 113, 24);"/><text dy=".35em" x="13" text-anchor="start" style="fill-opacity: 1;">tweetious</text></g><g class="node" transform="translate(600, -483.75)"><circle r="4.5" cursor="pointer" style="fill: rgb(69, 113, 24); stroke: rgb(69, 113, 24);"/><text dy=".35em" x="13" text-anchor="start" style="fill-opacity: 1;">0x4f4fe578482dccdde80d724817ac091a417c0874</text></g><g class="node" transform="translate(600, -468.75)"><circle r="4.5" cursor="pointer" style="fill: rgb(69, 113, 24); stroke: rgb(69, 113, 24);"/><text dy=".35em" x="13" text-anchor="start" style="fill-opacity: 1;">saimano</text></g><g class="node" transform="translate(600, -453.75)"><circle r="4.5" cursor="pointer" style="fill: rgb(69, 113, 24); stroke: rgb(69, 113, 24);"/><text dy=".35em" x="13" text-anchor="start" style="fill-opacity: 1;">felixfalafel</text></g><g class="node" transform="translate(600, -438.75)"><circle r="4.5" cursor="pointer" style="fill: rgb(69, 113, 24); stroke: rgb(69, 113, 24);"/><text dy=".35em" x="13" text-anchor="start" style="fill-opacity: 1;">jaywelsh</text></g><g class="node" transform="translate(600, -423.75)"><circle r="4.5" cursor="pointer" style="fill: rgb(69, 113, 24); stroke: rgb(69, 113, 24);"/><text dy=".35em" x="13" text-anchor="start" style="fill-opacity: 1;">lsdan</text></g><g class="node" transform="translate(600, -408.75)"><circle r="4.5" cursor="pointer" style="fill: rgb(69, 113, 24); stroke: rgb(69, 113, 24);"/><text dy=".35em" x="13" text-anchor="start" style="fill-opacity: 1;">charingane</text></g><g class="node" transform="translate(600, -393.75)"><circle r="4.5" cursor="pointer" style="fill: rgb(69, 113, 24); stroke: rgb(69, 113, 24);"/><text dy=".35em" x="13" text-anchor="start" style="fill-opacity: 1;">0x750a31fa07184caf87b6cce251d2f0d7928badde</text></g><g class="node" transform="translate(600, -378.75)"><circle r="4.5" cursor="pointer" style="fill: rgb(69, 113, 24); stroke: rgb(69, 113, 24);"/><text dy=".35em" x="13" text-anchor="start" style="fill-opacity: 1;">0x6c6541cc3ec6bfc2d7b0ca48ccb0225cbbea9b59</text></g><g class="node" transform="translate(600, -363.75)"><circle r="4.5" cursor="pointer" style="fill: rgb(69, 113, 24); stroke: rgb(69, 113, 24);"/><text dy=".35em" x="13" text-anchor="start" style="fill-opacity: 1;">benoxmo</text></g><g class="node" transform="translate(600, -348.75)"><circle r="4.5" cursor="pointer" style="fill: rgb(69, 113, 24); stroke: rgb(69, 113, 24);"/><text dy=".35em" x="13" text-anchor="start" style="fill-opacity: 1;">jack-g</text></g><g class="node" transform="translate(600, -333.75)"><circle r="4.5" cursor="pointer" style="fill: rgb(69, 113, 24); stroke: rgb(69, 113, 24);"/><text dy=".35em" x="13" text-anchor="start" style="fill-opacity: 1;">magnus</text></g><g class="node" transform="translate(600, -318.75)"><circle r="4.5" cursor="pointer" style="fill: rgb(69, 113, 24); stroke: rgb(69, 113, 24);"/><text dy=".35em" x="13" text-anchor="start" style="fill-opacity: 1;">felix</text></g><g class="node" transform="translate(600, -303.75)"><circle r="4.5" cursor="pointer" style="fill: rgb(69, 113, 24); stroke: rgb(69, 113, 24);"/><text dy=".35em" x="13" text-anchor="start" style="fill-opacity: 1;">blairv</text></g><g class="node" transform="translate(600, -288.75)"><circle r="4.5" cursor="pointer" style="fill: rgb(69, 113, 24); stroke: rgb(69, 113, 24);"/><text dy=".35em" x="13" text-anchor="start" style="fill-opacity: 1;">jason</text></g><g class="node" transform="translate(600, -273.75)"><circle r="4.5" cursor="pointer" style="fill: rgb(69, 113, 24); stroke: rgb(69, 113, 24);"/><text dy=".35em" x="13" text-anchor="start" style="fill-opacity: 1;">polycarp</text></g><g class="node" transform="translate(600, -258.75)"><circle r="4.5" cursor="pointer" style="fill: rgb(69, 113, 24); stroke: rgb(69, 113, 24);"/><text dy=".35em" x="13" text-anchor="start" style="fill-opacity: 1;">metadreamer</text></g><g class="node" transform="translate(600, -243.75)"><circle r="4.5" cursor="pointer" style="fill: rgb(69, 113, 24); stroke: rgb(69, 113, 24);"/><text dy=".35em" x="13" text-anchor="start" style="fill-opacity: 1;">pronoia</text></g><g class="node" transform="translate(600, -228.75)"><circle r="4.5" cursor="pointer" style="fill: rgb(69, 113, 24); stroke: rgb(69, 113, 24);"/><text dy=".35em" x="13" text-anchor="start" style="fill-opacity: 1;">t-wells</text></g><g class="node" transform="translate(600, -213.75)"><circle r="4.5" cursor="pointer" style="fill: rgb(69, 113, 24); stroke: rgb(69, 113, 24);"/><text dy=".35em" x="13" text-anchor="start" style="fill-opacity: 1;">playwith-eth</text></g><g class="node" transform="translate(600, -198.75)"><circle r="4.5" cursor="pointer" style="fill: rgb(69, 113, 24); stroke: rgb(69, 113, 24);"/><text dy=".35em" x="13" text-anchor="start" style="fill-opacity: 1;">patrick727</text></g><g class="node" transform="translate(600, -183.75)"><circle r="4.5" cursor="pointer" style="fill: rgb(69, 113, 24); stroke: rgb(69, 113, 24);"/><text dy=".35em" x="13" text-anchor="start" style="fill-opacity: 1;">the-lone-r-nin</text></g><g class="node" transform="translate(600, -168.75)"><circle r="4.5" cursor="pointer" style="fill: rgb(69, 113, 24); stroke: rgb(69, 113, 24);"/><text dy=".35em" x="13" text-anchor="start" style="fill-opacity: 1;">decentralion</text></g><g class="node" transform="translate(600, -153.75)"><circle r="4.5" cursor="pointer" style="fill: rgb(69, 113, 24); stroke: rgb(69, 113, 24);"/><text dy=".35em" x="13" text-anchor="start" style="fill-opacity: 1;">mprime</text></g><g class="node" transform="translate(600, -138.75)"><circle r="4.5" cursor="pointer" style="fill: rgb(69, 113, 24); stroke: rgb(69, 113, 24);"/><text dy=".35em" x="13" text-anchor="start" style="fill-opacity: 1;">oiou_crh</text></g><g class="node" transform="translate(600, -123.75)"><circle r="4.5" cursor="pointer" style="fill: rgb(69, 113, 24); stroke: rgb(69, 113, 24);"/><text dy=".35em" x="13" text-anchor="start" style="fill-opacity: 1;">0x7a3bf9b823eb96f8f0777437ec01d0082182c2af</text></g><g class="node" transform="translate(600, -108.75)"><circle r="4.5" cursor="pointer" style="fill: rgb(69, 113, 24); stroke: rgb(69, 113, 24);"/><text dy=".35em" x="13" text-anchor="start" style="fill-opacity: 1;">defilezebra</text></g><g class="node" transform="translate(600, -93.75)"><circle r="4.5" cursor="pointer" style="fill: rgb(69, 113, 24); stroke: rgb(69, 113, 24);"/><text dy=".35em" x="13" text-anchor="start" style="fill-opacity: 1;">defidude</text></g><g class="node" transform="translate(600, -78.75)"><circle r="4.5" cursor="pointer" style="fill: rgb(69, 113, 24); stroke: rgb(69, 113, 24);"/><text dy=".35em" x="13" text-anchor="start" style="fill-opacity: 1;">0x0230c6dd5db1d3f871386a3ce1a5a836b2590044</text></g><g class="node" transform="translate(600, -63.75)"><circle r="4.5" cursor="pointer" style="fill: rgb(69, 113, 24); stroke: rgb(69, 113, 24);"/><text dy=".35em" x="13" text-anchor="start" style="fill-opacity: 1;">max</text></g><g class="node" transform="translate(600, -48.75)"><circle r="4.5" cursor="pointer" style="fill: rgb(69, 113, 24); stroke: rgb(69, 113, 24);"/><text dy=".35em" x="13" text-anchor="start" style="fill-opacity: 1;">sky</text></g><g class="node" transform="translate(600, -33.75)"><circle r="4.5" cursor="pointer" style="fill: rgb(69, 113, 24); stroke: rgb(69, 113, 24);"/><text dy=".35em" x="13" text-anchor="start" style="fill-opacity: 1;">uranus</text></g><g class="node" transform="translate(600, -3.75)"><circle r="4.5" cursor="pointer" style="fill: rgb(69, 113, 24); stroke: rgb(69, 113, 24);"/><text dy=".35em" x="-13" text-anchor="end" style="fill-opacity: 1;">wiki.metagame.wtf</text></g><g class="node" transform="translate(600, 15)"><circle r="4.5" cursor="pointer" style="fill: rgb(69, 113, 24); stroke: rgb(69, 113, 24);"/><text dy=".35em" x="13" text-anchor="start" style="fill-opacity: 1;">admin</text></g><g class="node" transform="translate(600, 33.75)"><circle r="4.5" cursor="pointer" style="fill: rgb(69, 113, 24); stroke: rgb(69, 113, 24);"/><text dy=".35em" x="-13" text-anchor="end" style="fill-opacity: 1;">why-patron</text></g><g class="node" transform="translate(600, 63.75)"><circle r="4.5" cursor="pointer" style="fill: rgb(69, 113, 24); stroke: rgb(69, 113, 24);"/><text dy=".35em" x="-13" text-anchor="end" style="fill-opacity: 1;">how-to-become-a-player</text></g><g class="node" transform="translate(600, 93.75)"><circle r="4.5" cursor="pointer" style="fill: rgb(69, 113, 24); stroke: rgb(69, 113, 24);"/><text dy=".35em" x="-13" text-anchor="end" style="fill-opacity: 1;">leaderboard</text></g><g class="node" transform="translate(600, 108.75)"><circle r="4.5" cursor="pointer" style="fill: rgb(69, 113, 24); stroke: rgb(69, 113, 24);"/><text dy=".35em" x="13" text-anchor="start" style="fill-opacity: 1;">join-metagame</text></g><g class="node" transform="translate(600, 138.75)"><circle r="4.5" cursor="pointer" style="fill: rgb(69, 113, 24); stroke: rgb(69, 113, 24);"/><text dy=".35em" x="13" text-anchor="start" style="fill-opacity: 1;">peth</text></g><g class="node" transform="translate(600, 153.75)"><circle r="4.5" cursor="pointer" style="fill: rgb(69, 113, 24); stroke: rgb(69, 113, 24);"/><text dy=".35em" x="13" text-anchor="start" style="fill-opacity: 1;">hbesso31</text></g><g class="node" transform="translate(600, 168.75)"><circle r="4.5" cursor="pointer" style="fill: rgb(69, 113, 24); stroke: rgb(69, 113, 24);"/><text dy=".35em" x="13" text-anchor="start" style="fill-opacity: 1;">dysbulic</text></g><g class="node" transform="translate(600, 183.75)"><circle r="4.5" cursor="pointer" style="fill: rgb(69, 113, 24); stroke: rgb(69, 113, 24);"/><text dy=".35em" x="13" text-anchor="start" style="fill-opacity: 1;">luxumbra</text></g><g class="node" transform="translate(600, 198.75)"><circle r="4.5" cursor="pointer" style="fill: rgb(69, 113, 24); stroke: rgb(69, 113, 24);"/><text dy=".35em" x="13" text-anchor="start" style="fill-opacity: 1;">tenfinney</text></g><g class="node" transform="translate(600, 213.75)"><circle r="4.5" cursor="pointer" style="fill: rgb(69, 113, 24); stroke: rgb(69, 113, 24);"/><text dy=".35em" x="13" text-anchor="start" style="fill-opacity: 1;">0x2a8fe25896fcce82c49c2db923abfa4198ad3394</text></g><g class="node" transform="translate(600, 228.75)"><circle r="4.5" cursor="pointer" style="fill: rgb(69, 113, 24); stroke: rgb(69, 113, 24);"/><text dy=".35em" x="13" text-anchor="start" style="fill-opacity: 1;">unipuff</text></g><g class="node" transform="translate(600, 243.75)"><circle r="4.5" cursor="pointer" style="fill: rgb(69, 113, 24); stroke: rgb(69, 113, 24);"/><text dy=".35em" x="13" text-anchor="start" style="fill-opacity: 1;">vid</text></g><g class="node" transform="translate(600, 258.75)"><circle r="4.5" cursor="pointer" style="fill: rgb(69, 113, 24); stroke: rgb(69, 113, 24);"/><text dy=".35em" x="13" text-anchor="start" style="fill-opacity: 1;">misanth</text></g><g class="node" transform="translate(600, 288.75)"><circle r="4.5" cursor="pointer" style="fill: rgb(69, 113, 24); stroke: rgb(69, 113, 24);"/><text dy=".35em" x="13" text-anchor="start" style="fill-opacity: 1;">metafam</text></g><g class="node" transform="translate(600, 303.75)"><circle r="4.5" cursor="pointer" style="fill: rgb(69, 113, 24); stroke: rgb(69, 113, 24);"/><text dy=".35em" x="13" text-anchor="start" style="fill-opacity: 1;">metacartelventures</text></g><g class="node" transform="translate(600, 318.75)"><circle r="4.5" cursor="pointer" style="fill: rgb(69, 113, 24); stroke: rgb(69, 113, 24);"/><text dy=".35em" x="13" text-anchor="start" style="fill-opacity: 1;">1hive</text></g><g class="node" transform="translate(600, 333.75)"><circle r="4.5" cursor="pointer" style="fill: rgb(69, 113, 24); stroke: rgb(69, 113, 24);"/><text dy=".35em" x="13" text-anchor="start" style="fill-opacity: 1;">metafactory</text></g><g class="node" transform="translate(600, 348.75)"><circle r="4.5" cursor="pointer" style="fill: rgb(69, 113, 24); stroke: rgb(69, 113, 24);"/><text dy=".35em" x="13" text-anchor="start" style="fill-opacity: 1;">mgd</text></g><g class="node" transform="translate(600, 363.75)"><circle r="4.5" cursor="pointer" style="fill: rgb(69, 113, 24); stroke: rgb(69, 113, 24);"/><text dy=".35em" x="13" text-anchor="start" style="fill-opacity: 1;">Giveth</text></g><g class="node" transform="translate(600, 378.75)"><circle r="4.5" cursor="pointer" style="fill: rgb(69, 113, 24); stroke: rgb(69, 113, 24);"/><text dy=".35em" x="13" text-anchor="start" style="fill-opacity: 1;">deepwork</text></g><g class="node" transform="translate(600, 393.75)"><circle r="4.5" cursor="pointer" style="fill: rgb(69, 113, 24); stroke: rgb(69, 113, 24);"/><text dy=".35em" x="13" text-anchor="start" style="fill-opacity: 1;">panvala</text></g><g class="node" transform="translate(600, 408.75)"><circle r="4.5" cursor="pointer" style="fill: rgb(69, 113, 24); stroke: rgb(69, 113, 24);"/><text dy=".35em" x="13" text-anchor="start" style="fill-opacity: 1;">TEC</text></g><g class="node" transform="translate(600, 423.75)"><circle r="4.5" cursor="pointer" style="fill: rgb(69, 113, 24); stroke: rgb(69, 113, 24);"/><text dy=".35em" x="13" text-anchor="start" style="fill-opacity: 1;">design</text></g><g class="node" transform="translate(600, 438.75)"><circle r="4.5" cursor="pointer" style="fill: rgb(69, 113, 24); stroke: rgb(69, 113, 24);"/><text dy=".35em" x="13" text-anchor="start" style="fill-opacity: 1;">commonsstack</text></g><g class="node" transform="translate(600, 453.75)"><circle r="4.5" cursor="pointer" style="fill: rgb(69, 113, 24); stroke: rgb(69, 113, 24);"/><text dy=".35em" x="13" text-anchor="start" style="fill-opacity: 1;">raidguild</text></g><g class="node" transform="translate(600, 468.75)"><circle r="4.5" cursor="pointer" style="fill: rgb(69, 113, 24); stroke: rgb(69, 113, 24);"/><text dy=".35em" x="13" text-anchor="start" style="fill-opacity: 1;">fireeyes</text></g><g class="node" transform="translate(600, 483.75)"><circle r="4.5" cursor="pointer" style="fill: rgb(69, 113, 24); stroke: rgb(69, 113, 24);"/><text dy=".35em" x="-13" text-anchor="end" style="fill-opacity: 1;">opolis</text></g><g class="node" transform="translate(600, 498.75)"><circle r="4.5" cursor="pointer" style="fill: rgb(69, 113, 24); stroke: rgb(69, 113, 24);"/><text dy=".35em" x="13" text-anchor="start" style="fill-opacity: 1;">mooni</text></g><g class="node" transform="translate(600, 513.75)"><circle r="4.5" cursor="pointer" style="fill: rgb(69, 113, 24); stroke: rgb(69, 113, 24);"/><text dy=".35em" x="13" text-anchor="start" style="fill-opacity: 1;">sourcecred</text></g><g class="node" transform="translate(600, 528.75)"><circle r="4.5" cursor="pointer" style="fill: rgb(69, 113, 24); stroke: rgb(69, 113, 24);"/><text dy=".35em" x="13" text-anchor="start" style="fill-opacity: 1;">buidl</text></g><g class="node" transform="translate(600, 543.75)"><circle r="4.5" cursor="pointer" style="fill: rgb(69, 113, 24); stroke: rgb(69, 113, 24);"/><text dy=".35em" x="13" text-anchor="start" style="fill-opacity: 1;">metacartel</text></g><g class="node" transform="translate(600, 558.75)"><circle r="4.5" cursor="pointer" style="fill: rgb(69, 113, 24); stroke: rgb(69, 113, 24);"/><text dy=".35em" x="13" text-anchor="start" style="fill-opacity: 1;">bloomnetwork</text></g><g class="node" transform="translate(600, 588.75)"><circle r="4.5" cursor="pointer" style="fill: rgb(69, 113, 24); stroke: rgb(69, 113, 24);"/><text dy=".35em" x="13" text-anchor="start" style="fill-opacity: 1;">calendar</text></g><g class="node" transform="translate(600, 618.75)"><circle r="4.5" cursor="pointer" style="fill: rgb(69, 113, 24); stroke: rgb(69, 113, 24);"/><text dy=".35em" x="13" text-anchor="start" style="fill-opacity: 1;">how-to-build-a-network-for-impact</text></g><g class="node" transform="translate(600, 633.75)"><circle r="4.5" cursor="pointer" style="fill: rgb(69, 113, 24); stroke: rgb(69, 113, 24);"/><text dy=".35em" x="13" text-anchor="start" style="fill-opacity: 1;">how-to-hackmd</text></g><g class="node" transform="translate(600, 648.75)"><circle r="4.5" cursor="pointer" style="fill: rgb(69, 113, 24); stroke: rgb(69, 113, 24);"/><text dy=".35em" x="13" text-anchor="start" style="fill-opacity: 1;">how-to-coach-eth</text></g><g class="node" transform="translate(600, 663.75)"><circle r="4.5" cursor="pointer" style="fill: rgb(69, 113, 24); stroke: rgb(69, 113, 24);"/><text dy=".35em" x="13" text-anchor="start" style="fill-opacity: 1;">how-to-play-twitter-by-visa</text></g><g class="node" transform="translate(600, 678.75)"><circle r="4.5" cursor="pointer" style="fill: rgb(69, 113, 24); stroke: rgb(69, 113, 24);"/><text dy=".35em" x="13" text-anchor="start" style="fill-opacity: 1;">how-to-join-a-dao-community</text></g><g class="node" transform="translate(600, 693.75)"><circle r="4.5" cursor="pointer" style="fill: rgb(69, 113, 24); stroke: rgb(69, 113, 24);"/><text dy=".35em" x="13" text-anchor="start" style="fill-opacity: 1;">building-successful-teams</text></g><g class="node" transform="translate(600, 708.75)"><circle r="4.5" cursor="pointer" style="fill: rgb(69, 113, 24); stroke: rgb(69, 113, 24);"/><text dy=".35em" x="13" text-anchor="start" style="fill-opacity: 1;">CupOJosephs-Becoming-An-Ethereum-Developer-Roadmap-and-Guide</text></g><g class="node" transform="translate(600, 723.75)"><circle r="4.5" cursor="pointer" style="fill: rgb(69, 113, 24); stroke: rgb(69, 113, 24);"/><text dy=".35em" x="13" text-anchor="start" style="fill-opacity: 1;">entering-daos-as-a-writer</text></g><g class="node" transform="translate(600, 738.75)"><circle r="4.5" cursor="pointer" style="fill: rgb(69, 113, 24); stroke: rgb(69, 113, 24);"/><text dy=".35em" x="13" text-anchor="start" style="fill-opacity: 1;">handling-fomo-in-web3</text></g><g class="node" transform="translate(600, 753.75)"><circle r="4.5" cursor="pointer" style="fill: rgb(69, 113, 24); stroke: rgb(69, 113, 24);"/><text dy=".35em" x="13" text-anchor="start" style="fill-opacity: 1;">how-to-git-on-github-non-builder</text></g><g class="node" transform="translate(600, 768.75)"><circle r="4.5" cursor="pointer" style="fill: rgb(69, 113, 24); stroke: rgb(69, 113, 24);"/><text dy=".35em" x="13" text-anchor="start" style="fill-opacity: 1;">become-a-buidler-on-ethereum-by-austin-griffith</text></g><g class="node" transform="translate(600, 783.75)"><circle r="4.5" cursor="pointer" style="fill: rgb(69, 113, 24); stroke: rgb(69, 113, 24);"/><text dy=".35em" x="13" text-anchor="start" style="fill-opacity: 1;">path-of-the-writer-episode-1.0</text></g><g class="node" transform="translate(600, 798.75)"><circle r="4.5" cursor="pointer" style="fill: rgb(69, 113, 24); stroke: rgb(69, 113, 24);"/><text dy=".35em" x="13" text-anchor="start" style="fill-opacity: 1;">understanding-impostor-syndrome</text></g><g class="node" transform="translate(800, -776.25)"><circle r="4.5" cursor="pointer" style="fill: rgb(69, 113, 24); stroke: rgb(69, 113, 24);"/><text dy=".35em" x="13" text-anchor="start" style="fill-opacity: 1;">phases-of-metagame</text></g><g class="node" transform="translate(800, -761.25)"><circle r="4.5" cursor="pointer" style="fill: rgb(69, 113, 24); stroke: rgb(69, 113, 24);"/><text dy=".35em" x="13" text-anchor="start" style="fill-opacity: 1;">obtaining-seeds</text></g><g class="node" transform="translate(800, -746.25)"><circle r="4.5" cursor="pointer" style="fill: rgb(69, 113, 24); stroke: rgb(69, 113, 24);"/><text dy=".35em" x="13" text-anchor="start" style="fill-opacity: 1;">become-a-founder-of-metagame</text></g><g class="node" transform="translate(800, -731.25)"><circle r="4.5" cursor="pointer" style="fill: rgb(69, 113, 24); stroke: rgb(69, 113, 24);"/><text dy=".35em" x="13" text-anchor="start" style="fill-opacity: 1;">why-gamification-works</text></g><g class="node" transform="translate(800, -716.25)"><circle r="4.5" cursor="pointer" style="fill: rgb(69, 113, 24); stroke: rgb(69, 113, 24);"/><text dy=".35em" x="13" text-anchor="start" style="fill-opacity: 1;">how-metagame-works</text></g><g class="node" transform="translate(800, -701.25)"><circle r="4.5" cursor="pointer" style="fill: rgb(69, 113, 24); stroke: rgb(69, 113, 24);"/><text dy=".35em" x="13" text-anchor="start" style="fill-opacity: 1;">a-cautionary-tale</text></g><g class="node" transform="translate(800, -671.25)"><circle r="4.5" cursor="pointer" style="fill: rgb(201, 45, 45); stroke: rgb(201, 45, 45);"/><text dy=".35em" x="13" text-anchor="start" style="fill-opacity: 1;">metasys</text></g><g class="node" transform="translate(800, -656.25)"><circle r="4.5" cursor="pointer" style="fill: rgb(69, 113, 24); stroke: rgb(69, 113, 24);"/><text dy=".35em" x="13" text-anchor="start" style="fill-opacity: 1;">how-to-house</text></g><g class="node" transform="translate(800, -641.25)"><circle r="4.5" cursor="pointer" style="fill: rgb(69, 113, 24); stroke: rgb(69, 113, 24);"/><text dy=".35em" x="13" text-anchor="start" style="fill-opacity: 1;">house-of-L2s</text></g><g class="node" transform="translate(800, -626.25)"><circle r="4.5" cursor="pointer" style="fill: rgb(69, 113, 24); stroke: rgb(69, 113, 24);"/><text dy=".35em" x="13" text-anchor="start" style="fill-opacity: 1;">guilding-101</text></g><g class="node" transform="translate(800, -611.25)"><circle r="4.5" cursor="pointer" style="fill: rgb(69, 113, 24); stroke: rgb(69, 113, 24);"/><text dy=".35em" x="13" text-anchor="start" style="fill-opacity: 1;">house-of-NFTs</text></g><g class="node" transform="translate(800, -596.25)"><circle r="4.5" cursor="pointer" style="fill: rgb(69, 113, 24); stroke: rgb(69, 113, 24);"/><text dy=".35em" x="13" text-anchor="start" style="fill-opacity: 1;">house-of-ethereum</text></g><g class="node" transform="translate(800, -581.25)"><circle r="4.5" cursor="pointer" style="fill: rgb(69, 113, 24); stroke: rgb(69, 113, 24);"/><text dy=".35em" x="13" text-anchor="start" style="fill-opacity: 1;">house-of-dapps</text></g><g class="node" transform="translate(800, -566.25)"><circle r="4.5" cursor="pointer" style="fill: rgb(69, 113, 24); stroke: rgb(69, 113, 24);"/><text dy=".35em" x="13" text-anchor="start" style="fill-opacity: 1;">what-why-how-of-your-dao</text></g><g class="node" transform="translate(800, -551.25)"><circle r="4.5" cursor="pointer" style="fill: rgb(69, 113, 24); stroke: rgb(69, 113, 24);"/><text dy=".35em" x="13" text-anchor="start" style="fill-opacity: 1;">house-of-daos</text></g><g class="node" transform="translate(800, -536.25)"><circle r="4.5" cursor="pointer" style="fill: rgb(69, 113, 24); stroke: rgb(69, 113, 24);"/><text dy=".35em" x="13" text-anchor="start" style="fill-opacity: 1;">house-of-defi</text></g><g class="node" transform="translate(800, -11.25)"><circle r="4.5" cursor="pointer" style="fill: rgb(69, 113, 24); stroke: rgb(69, 113, 24);"/><text dy=".35em" x="13" text-anchor="start" style="fill-opacity: 1;">narrative-1-a-decentralized-factory</text></g><g class="node" transform="translate(800, 3.75)"><circle r="4.5" cursor="pointer" style="fill: rgb(69, 113, 24); stroke: rgb(69, 113, 24);"/><text dy=".35em" x="13" text-anchor="start" style="fill-opacity: 1;">docs</text></g><g class="node" transform="translate(800, 33.75)"><circle r="4.5" cursor="pointer" style="fill: rgb(69, 113, 24); stroke: rgb(69, 113, 24);"/><text dy=".35em" x="13" text-anchor="start" style="fill-opacity: 1;">metafam-way</text></g><g class="node" transform="translate(800, 63.75)"><circle r="4.5" cursor="pointer" style="fill: rgb(69, 113, 24); stroke: rgb(69, 113, 24);"/><text dy=".35em" x="13" text-anchor="start" style="fill-opacity: 1;">roles-in-metagame</text></g><g class="node" transform="translate(800, 93.75)"><circle r="4.5" cursor="pointer" style="fill: rgb(69, 113, 24); stroke: rgb(69, 113, 24);"/><text dy=".35em" x="13" text-anchor="start" style="fill-opacity: 1;">tldr</text></g><g class="node" transform="translate(800, 483.75)"><circle r="4.5" cursor="pointer" style="fill: rgb(69, 113, 24); stroke: rgb(69, 113, 24);"/><text dy=".35em" x="13" text-anchor="start" style="fill-opacity: 1;">opolis.co</text></g></g>
  </svg>