<svg xmlns="http://www.w3.org/2000/svg" class="svg" width="1008" height="675" style="display: block;">
<defs><style type="text/css"><![CDATA[
:root { overflow: hidden; }
.svg { background-color: rgb(255, 255, 255); }
.node text { font-size: 12px; font-family: Roboto, sans-serif; font-weight: normal; font-style: normal; fill: rgb(0, 0, 0); }
.node circle { fill: rgb(69, 113, 24); stroke: rgb(69, 113, 24); stroke-width: 1px; }
path { fill: none; stroke: rgb(144, 144, 144); stroke-width: 1px; }]]></style></defs>
    <g transform="translate(100,337.5) scale(1)"><path class="link" d="M200,0C100,0 100,0 0,0"/><path class="link" d="M400,-480C300,-480 300,0 200,0"/><path class="link" d="M400,480C300,480 300,0 200,0"/><path class="link" d="M600,-963.75C500,-963.75 500,-480 400,-480"/><path class="link" d="M600,-948.75C500,-948.75 500,-480 400,-480"/><path class="link" d="M600,-888.75C500,-888.75 500,-480 400,-480"/><path class="link" d="M600,-793.125C500,-793.125 500,-480 400,-480"/><path class="link" d="M600,-697.5C500,-697.5 500,-480 400,-480"/><path class="link" d="M600,-601.875C500,-601.875 500,-480 400,-480"/><path class="link" d="M600,-506.25C500,-506.25 500,-480 400,-480"/><path class="link" d="M600,3.75C500,3.75 500,-480 400,-480"/><path class="link" d="M600,472.5C500,472.5 500,480 400,480"/><path class="link" d="M600,487.5C500,487.5 500,480 400,480"/><path class="link" d="M800,-963.75C700,-963.75 700,-948.75 600,-948.75"/><path class="link" d="M800,-948.75C700,-948.75 700,-948.75 600,-948.75"/><path class="link" d="M800,-933.75C700,-933.75 700,-948.75 600,-948.75"/><path class="link" d="M800,-903.75C700,-903.75 700,-888.75 600,-888.75"/><path class="link" d="M800,-888.75C700,-888.75 700,-888.75 600,-888.75"/><path class="link" d="M800,-873.75C700,-873.75 700,-888.75 600,-888.75"/><path class="link" d="M800,-843.75C700,-843.75 700,-506.25 600,-506.25"/><path class="link" d="M800,-828.75C700,-828.75 700,-506.25 600,-506.25"/><path class="link" d="M800,-813.75C700,-813.75 700,-506.25 600,-506.25"/><path class="link" d="M800,-798.75C700,-798.75 700,-506.25 600,-506.25"/><path class="link" d="M800,-783.75C700,-783.75 700,-506.25 600,-506.25"/><path class="link" d="M800,-768.75C700,-768.75 700,-506.25 600,-506.25"/><path class="link" d="M800,-753.75C700,-753.75 700,-506.25 600,-506.25"/><path class="link" d="M800,-738.75C700,-738.75 700,-506.25 600,-506.25"/><path class="link" d="M800,-723.75C700,-723.75 700,-506.25 600,-506.25"/><path class="link" d="M800,-708.75C700,-708.75 700,-506.25 600,-506.25"/><path class="link" d="M800,-693.75C700,-693.75 700,-506.25 600,-506.25"/><path class="link" d="M800,-678.75C700,-678.75 700,-506.25 600,-506.25"/><path class="link" d="M800,-663.75C700,-663.75 700,-506.25 600,-506.25"/><path class="link" d="M800,-648.75C700,-648.75 700,-506.25 600,-506.25"/><path class="link" d="M800,-633.75C700,-633.75 700,-506.25 600,-506.25"/><path class="link" d="M800,-618.75C700,-618.75 700,-506.25 600,-506.25"/><path class="link" d="M800,-603.75C700,-603.75 700,-506.25 600,-506.25"/><path class="link" d="M800,-588.75C700,-588.75 700,-506.25 600,-506.25"/><path class="link" d="M800,-573.75C700,-573.75 700,-506.25 600,-506.25"/><path class="link" d="M800,-558.75C700,-558.75 700,-506.25 600,-506.25"/><path class="link" d="M800,-543.75C700,-543.75 700,-506.25 600,-506.25"/><path class="link" d="M800,-528.75C700,-528.75 700,-506.25 600,-506.25"/><path class="link" d="M800,-513.75C700,-513.75 700,-506.25 600,-506.25"/><path class="link" d="M800,-498.75C700,-498.75 700,-506.25 600,-506.25"/><path class="link" d="M800,-483.75C700,-483.75 700,-506.25 600,-506.25"/><path class="link" d="M800,-468.75C700,-468.75 700,-506.25 600,-506.25"/><path class="link" d="M800,-453.75C700,-453.75 700,-506.25 600,-506.25"/><path class="link" d="M800,-438.75C700,-438.75 700,-506.25 600,-506.25"/><path class="link" d="M800,-423.75C700,-423.75 700,-506.25 600,-506.25"/><path class="link" d="M800,-408.75C700,-408.75 700,-506.25 600,-506.25"/><path class="link" d="M800,-393.75C700,-393.75 700,-506.25 600,-506.25"/><path class="link" d="M800,-378.75C700,-378.75 700,-506.25 600,-506.25"/><path class="link" d="M800,-363.75C700,-363.75 700,-506.25 600,-506.25"/><path class="link" d="M800,-348.75C700,-348.75 700,-506.25 600,-506.25"/><path class="link" d="M800,-333.75C700,-333.75 700,-506.25 600,-506.25"/><path class="link" d="M800,-318.75C700,-318.75 700,-506.25 600,-506.25"/><path class="link" d="M800,-303.75C700,-303.75 700,-506.25 600,-506.25"/><path class="link" d="M800,-288.75C700,-288.75 700,-506.25 600,-506.25"/><path class="link" d="M800,-273.75C700,-273.75 700,-506.25 600,-506.25"/><path class="link" d="M800,-258.75C700,-258.75 700,-506.25 600,-506.25"/><path class="link" d="M800,-243.75C700,-243.75 700,-506.25 600,-506.25"/><path class="link" d="M800,-228.75C700,-228.75 700,-506.25 600,-506.25"/><path class="link" d="M800,-213.75C700,-213.75 700,-506.25 600,-506.25"/><path class="link" d="M800,-198.75C700,-198.75 700,-506.25 600,-506.25"/><path class="link" d="M800,-183.74999999999994C700,-183.74999999999994 700,-506.25 600,-506.25"/><path class="link" d="M800,-168.75C700,-168.75 700,-506.25 600,-506.25"/><path class="link" d="M800,-138.75C700,-138.75 700,3.75 600,3.75"/><path class="link" d="M800,-123.75C700,-123.75 700,3.75 600,3.75"/><path class="link" d="M800,-108.75C700,-108.75 700,3.75 600,3.75"/><path class="link" d="M800,-93.75C700,-93.75 700,3.75 600,3.75"/><path class="link" d="M800,-78.75C700,-78.75 700,3.75 600,3.75"/><path class="link" d="M800,-63.75C700,-63.75 700,3.75 600,3.75"/><path class="link" d="M800,-48.75C700,-48.75 700,3.75 600,3.75"/><path class="link" d="M800,-33.75C700,-33.75 700,3.75 600,3.75"/><path class="link" d="M800,-18.75C700,-18.75 700,3.75 600,3.75"/><path class="link" d="M800,-3.75C700,-3.75 700,3.75 600,3.75"/><path class="link" d="M800,11.25C700,11.25 700,3.75 600,3.75"/><path class="link" d="M800,26.25C700,26.25 700,3.75 600,3.75"/><path class="link" d="M800,41.25C700,41.25 700,3.75 600,3.75"/><path class="link" d="M800,56.25C700,56.25 700,3.75 600,3.75"/><path class="link" d="M800,71.25C700,71.25 700,3.75 600,3.75"/><path class="link" d="M800,86.25C700,86.25 700,3.75 600,3.75"/><path class="link" d="M800,101.25C700,101.25 700,3.75 600,3.75"/><path class="link" d="M800,116.25C700,116.25 700,3.75 600,3.75"/><path class="link" d="M800,131.25C700,131.25 700,3.75 600,3.75"/><path class="link" d="M800,146.25C700,146.25 700,3.75 600,3.75"/><path class="link" d="M800,176.25C700,176.25 700,472.5 600,472.5"/><path class="link" d="M800,333.75C700,333.75 700,472.5 600,472.5"/><path class="link" d="M800,416.25C700,416.25 700,472.5 600,472.5"/><path class="link" d="M800,513.75C700,513.75 700,472.5 600,472.5"/><path class="link" d="M800,618.75C700,618.75 700,472.5 600,472.5"/><path class="link" d="M800,671.25C700,671.25 700,472.5 600,472.5"/><path class="link" d="M800,701.25C700,701.25 700,472.5 600,472.5"/><path class="link" d="M800,768.75C700,768.75 700,472.5 600,472.5"/><path class="link" d="M1000,86.25C900,86.25 900,176.25 800,176.25"/><path class="link" d="M1000,101.25C900,101.25 900,176.25 800,176.25"/><path class="link" d="M1000,116.25C900,116.25 900,176.25 800,176.25"/><path class="link" d="M1000,131.25C900,131.25 900,176.25 800,176.25"/><path class="link" d="M1000,146.25C900,146.25 900,176.25 800,176.25"/><path class="link" d="M1000,161.25C900,161.25 900,176.25 800,176.25"/><path class="link" d="M1000,176.25C900,176.25 900,176.25 800,176.25"/><path class="link" d="M1000,191.25C900,191.25 900,176.25 800,176.25"/><path class="link" d="M1000,206.25C900,206.25 900,176.25 800,176.25"/><path class="link" d="M1000,221.25C900,221.25 900,176.25 800,176.25"/><path class="link" d="M1000,236.25C900,236.25 900,176.25 800,176.25"/><path class="link" d="M1000,251.25C900,251.25 900,176.25 800,176.25"/><path class="link" d="M1000,266.25C900,266.25 900,176.25 800,176.25"/><path class="link" d="M1000,296.25C900,296.25 900,333.75 800,333.75"/><path class="link" d="M1000,311.25C900,311.25 900,333.75 800,333.75"/><path class="link" d="M1000,326.25C900,326.25 900,333.75 800,333.75"/><path class="link" d="M1000,341.25C900,341.25 900,333.75 800,333.75"/><path class="link" d="M1000,356.25C900,356.25 900,333.75 800,333.75"/><path class="link" d="M1000,371.25C900,371.25 900,333.75 800,333.75"/><path class="link" d="M1000,401.25C900,401.25 900,416.25 800,416.25"/><path class="link" d="M1000,416.25C900,416.25 900,416.25 800,416.25"/><path class="link" d="M1000,431.25C900,431.25 900,416.25 800,416.25"/><path class="link" d="M1000,461.25C900,461.25 900,513.75 800,513.75"/><path class="link" d="M1000,476.25C900,476.25 900,513.75 800,513.75"/><path class="link" d="M1000,491.25C900,491.25 900,513.75 800,513.75"/><path class="link" d="M1000,506.25C900,506.25 900,513.75 800,513.75"/><path class="link" d="M1000,521.25C900,521.25 900,513.75 800,513.75"/><path class="link" d="M1000,536.25C900,536.25 900,513.75 800,513.75"/><path class="link" d="M1000,551.25C900,551.25 900,513.75 800,513.75"/><path class="link" d="M1000,566.25C900,566.25 900,513.75 800,513.75"/><path class="link" d="M1000,596.25C900,596.25 900,618.75 800,618.75"/><path class="link" d="M1000,611.25C900,611.25 900,618.75 800,618.75"/><path class="link" d="M1000,626.25C900,626.25 900,618.75 800,618.75"/><path class="link" d="M1000,641.25C900,641.25 900,618.75 800,618.75"/><path class="link" d="M1000,671.25C900,671.25 900,671.25 800,671.25"/><path class="link" d="M1000,701.25C900,701.25 900,701.25 800,701.25"/><path class="link" d="M1000,731.25C900,731.25 900,768.75 800,768.75"/><path class="link" d="M1000,746.25C900,746.25 900,768.75 800,768.75"/><path class="link" d="M1000,761.25C900,761.25 900,768.75 800,768.75"/><path class="link" d="M1000,776.25C900,776.25 900,768.75 800,768.75"/><path class="link" d="M1000,791.25C900,791.25 900,768.75 800,768.75"/><path class="link" d="M1000,806.25C900,806.25 900,768.75 800,768.75"/><g class="node" transform="translate(0, 0)"><circle r="4.5" cursor="pointer" style="fill: rgb(69, 113, 24); stroke: rgb(69, 113, 24);"/><text dy=".35em" x="-13" text-anchor="end" style="fill-opacity: 1;">/</text></g><g class="node" transform="translate(200, 0)"><circle r="4.5" cursor="pointer" style="fill: rgb(69, 113, 24); stroke: rgb(69, 113, 24);"/><text dy=".35em" x="-13" text-anchor="end" style="fill-opacity: 1;">https/</text></g><g class="node" transform="translate(400, -480)"><circle r="4.5" cursor="pointer" style="fill: rgb(69, 113, 24); stroke: rgb(69, 113, 24);"/><text dy=".35em" x="-13" text-anchor="end" style="fill-opacity: 1;">metagame.wtf/</text></g><g class="node" transform="translate(400, 480)"><circle r="4.5" cursor="pointer" style="fill: rgb(69, 113, 24); stroke: rgb(69, 113, 24);"/><text dy=".35em" x="-13" text-anchor="end" style="fill-opacity: 1;">wiki.metagame.wtf/</text></g><g class="node" transform="translate(600, -963.75)"><circle r="4.5" cursor="pointer" style="fill: rgb(69, 113, 24); stroke: rgb(69, 113, 24);"/><text dy=".35em" x="13" text-anchor="start" style="fill-opacity: 1;">dashboard</text></g><g class="node" transform="translate(600, -948.75)"><circle r="4.5" cursor="pointer" style="fill: rgb(69, 113, 24); stroke: rgb(69, 113, 24);"/><text dy=".35em" x="-13" text-anchor="end" style="fill-opacity: 1;">learn/</text></g><g class="node" transform="translate(600, -888.75)"><circle r="4.5" cursor="pointer" style="fill: rgb(69, 113, 24); stroke: rgb(69, 113, 24);"/><text dy=".35em" x="-13" text-anchor="end" style="fill-opacity: 1;">community/</text></g><g class="node" transform="translate(600, -793.125)"><circle r="4.5" cursor="pointer" style="fill: rgb(69, 113, 24); stroke: rgb(69, 113, 24);"/><text dy=".35em" x="13" text-anchor="start" style="fill-opacity: 1;">quests</text></g><g class="node" transform="translate(600, -697.5)"><circle r="4.5" cursor="pointer" style="fill: rgb(69, 113, 24); stroke: rgb(69, 113, 24);"/><text dy=".35em" x="13" text-anchor="start" style="fill-opacity: 1;">players</text></g><g class="node" transform="translate(600, -601.875)"><circle r="4.5" cursor="pointer" style="fill: rgb(69, 113, 24); stroke: rgb(69, 113, 24);"/><text dy=".35em" x="13" text-anchor="start" style="fill-opacity: 1;">seeds</text></g><g class="node" transform="translate(600, -506.25)"><circle r="4.5" cursor="pointer" style="fill: rgb(69, 113, 24); stroke: rgb(69, 113, 24);"/><text dy=".35em" x="-13" text-anchor="end" style="fill-opacity: 1;">player/</text></g><g class="node" transform="translate(600, 3.75)"><circle r="4.5" cursor="pointer" style="fill: rgb(69, 113, 24); stroke: rgb(69, 113, 24);"/><text dy=".35em" x="-13" text-anchor="end" style="fill-opacity: 1;">guild/</text></g><g class="node" transform="translate(600, 472.5)"><circle r="4.5" cursor="pointer" style="fill: rgb(69, 113, 24); stroke: rgb(69, 113, 24);"/><text dy=".35em" x="-13" text-anchor="end" style="fill-opacity: 1;">docs/</text></g><g class="node" transform="translate(600, 487.5)"><circle r="4.5" cursor="pointer" style="fill: rgb(69, 113, 24); stroke: rgb(69, 113, 24);"/><text dy=".35em" x="13" text-anchor="start" style="fill-opacity: 1;">admin</text></g><g class="node" transform="translate(800, -963.75)"><circle r="4.5" cursor="pointer" style="fill: rgb(69, 113, 24); stroke: rgb(69, 113, 24);"/><text dy=".35em" x="13" text-anchor="start" style="fill-opacity: 1;">thegreathouses</text></g><g class="node" transform="translate(800, -948.75)"><circle r="4.5" cursor="pointer" style="fill: rgb(69, 113, 24); stroke: rgb(69, 113, 24);"/><text dy=".35em" x="13" text-anchor="start" style="fill-opacity: 1;">metaradio</text></g><g class="node" transform="translate(800, -933.75)"><circle r="4.5" cursor="pointer" style="fill: rgb(69, 113, 24); stroke: rgb(69, 113, 24);"/><text dy=".35em" x="13" text-anchor="start" style="fill-opacity: 1;">wiki</text></g><g class="node" transform="translate(800, -903.75)"><circle r="4.5" cursor="pointer" style="fill: rgb(69, 113, 24); stroke: rgb(69, 113, 24);"/><text dy=".35em" x="13" text-anchor="start" style="fill-opacity: 1;">events</text></g><g class="node" transform="translate(800, -888.75)"><circle r="4.5" cursor="pointer" style="fill: rgb(69, 113, 24); stroke: rgb(69, 113, 24);"/><text dy=".35em" x="13" text-anchor="start" style="fill-opacity: 1;">guilds</text></g><g class="node" transform="translate(800, -873.75)"><circle r="4.5" cursor="pointer" style="fill: rgb(69, 113, 24); stroke: rgb(69, 113, 24);"/><text dy=".35em" x="13" text-anchor="start" style="fill-opacity: 1;">patrons</text></g><g class="node" transform="translate(800, -843.75)"><circle r="4.5" cursor="pointer" style="fill: rgb(69, 113, 24); stroke: rgb(69, 113, 24);"/><text dy=".35em" x="13" text-anchor="start" style="fill-opacity: 1;">unipuff</text></g><g class="node" transform="translate(800, -828.75)"><circle r="4.5" cursor="pointer" style="fill: rgb(69, 113, 24); stroke: rgb(69, 113, 24);"/><text dy=".35em" x="13" text-anchor="start" style="fill-opacity: 1;">felixfalafel</text></g><g class="node" transform="translate(800, -813.75)"><circle r="4.5" cursor="pointer" style="fill: rgb(69, 113, 24); stroke: rgb(69, 113, 24);"/><text dy=".35em" x="13" text-anchor="start" style="fill-opacity: 1;">jaywelsh</text></g><g class="node" transform="translate(800, -798.75)"><circle r="4.5" cursor="pointer" style="fill: rgb(69, 113, 24); stroke: rgb(69, 113, 24);"/><text dy=".35em" x="13" text-anchor="start" style="fill-opacity: 1;">charingane</text></g><g class="node" transform="translate(800, -783.75)"><circle r="4.5" cursor="pointer" style="fill: rgb(69, 113, 24); stroke: rgb(69, 113, 24);"/><text dy=".35em" x="13" text-anchor="start" style="fill-opacity: 1;">0x6c6541cc3ec6bfc2d7b0ca48ccb0225cbbea9b59</text></g><g class="node" transform="translate(800, -768.75)"><circle r="4.5" cursor="pointer" style="fill: rgb(69, 113, 24); stroke: rgb(69, 113, 24);"/><text dy=".35em" x="13" text-anchor="start" style="fill-opacity: 1;">benoxmo</text></g><g class="node" transform="translate(800, -753.75)"><circle r="4.5" cursor="pointer" style="fill: rgb(69, 113, 24); stroke: rgb(69, 113, 24);"/><text dy=".35em" x="13" text-anchor="start" style="fill-opacity: 1;">polycarp</text></g><g class="node" transform="translate(800, -738.75)"><circle r="4.5" cursor="pointer" style="fill: rgb(69, 113, 24); stroke: rgb(69, 113, 24);"/><text dy=".35em" x="13" text-anchor="start" style="fill-opacity: 1;">metadreamer</text></g><g class="node" transform="translate(800, -723.75)"><circle r="4.5" cursor="pointer" style="fill: rgb(69, 113, 24); stroke: rgb(69, 113, 24);"/><text dy=".35em" x="13" text-anchor="start" style="fill-opacity: 1;">patrick727</text></g><g class="node" transform="translate(800, -708.75)"><circle r="4.5" cursor="pointer" style="fill: rgb(69, 113, 24); stroke: rgb(69, 113, 24);"/><text dy=".35em" x="13" text-anchor="start" style="fill-opacity: 1;">0x750a31fa07184caf87b6cce251d2f0d7928badde</text></g><g class="node" transform="translate(800, -693.75)"><circle r="4.5" cursor="pointer" style="fill: rgb(69, 113, 24); stroke: rgb(69, 113, 24);"/><text dy=".35em" x="13" text-anchor="start" style="fill-opacity: 1;">mprime</text></g><g class="node" transform="translate(800, -678.75)"><circle r="4.5" cursor="pointer" style="fill: rgb(69, 113, 24); stroke: rgb(69, 113, 24);"/><text dy=".35em" x="13" text-anchor="start" style="fill-opacity: 1;">hbesso31</text></g><g class="node" transform="translate(800, -663.75)"><circle r="4.5" cursor="pointer" style="fill: rgb(69, 113, 24); stroke: rgb(69, 113, 24);"/><text dy=".35em" x="13" text-anchor="start" style="fill-opacity: 1;">misanth</text></g><g class="node" transform="translate(800, -648.75)"><circle r="4.5" cursor="pointer" style="fill: rgb(69, 113, 24); stroke: rgb(69, 113, 24);"/><text dy=".35em" x="13" text-anchor="start" style="fill-opacity: 1;">0xjoshua</text></g><g class="node" transform="translate(800, -633.75)"><circle r="4.5" cursor="pointer" style="fill: rgb(69, 113, 24); stroke: rgb(69, 113, 24);"/><text dy=".35em" x="13" text-anchor="start" style="fill-opacity: 1;">tenfinney</text></g><g class="node" transform="translate(800, -618.75)"><circle r="4.5" cursor="pointer" style="fill: rgb(69, 113, 24); stroke: rgb(69, 113, 24);"/><text dy=".35em" x="13" text-anchor="start" style="fill-opacity: 1;">kris</text></g><g class="node" transform="translate(800, -603.75)"><circle r="4.5" cursor="pointer" style="fill: rgb(69, 113, 24); stroke: rgb(69, 113, 24);"/><text dy=".35em" x="13" text-anchor="start" style="fill-opacity: 1;">tweetious</text></g><g class="node" transform="translate(800, -588.75)"><circle r="4.5" cursor="pointer" style="fill: rgb(69, 113, 24); stroke: rgb(69, 113, 24);"/><text dy=".35em" x="13" text-anchor="start" style="fill-opacity: 1;">saimano</text></g><g class="node" transform="translate(800, -573.75)"><circle r="4.5" cursor="pointer" style="fill: rgb(69, 113, 24); stroke: rgb(69, 113, 24);"/><text dy=".35em" x="13" text-anchor="start" style="fill-opacity: 1;">magnus</text></g><g class="node" transform="translate(800, -558.75)"><circle r="4.5" cursor="pointer" style="fill: rgb(69, 113, 24); stroke: rgb(69, 113, 24);"/><text dy=".35em" x="13" text-anchor="start" style="fill-opacity: 1;">felix</text></g><g class="node" transform="translate(800, -543.75)"><circle r="4.5" cursor="pointer" style="fill: rgb(69, 113, 24); stroke: rgb(69, 113, 24);"/><text dy=".35em" x="13" text-anchor="start" style="fill-opacity: 1;">t-wells</text></g><g class="node" transform="translate(800, -528.75)"><circle r="4.5" cursor="pointer" style="fill: rgb(69, 113, 24); stroke: rgb(69, 113, 24);"/><text dy=".35em" x="13" text-anchor="start" style="fill-opacity: 1;">dysbulic</text></g><g class="node" transform="translate(800, -513.75)"><circle r="4.5" cursor="pointer" style="fill: rgb(69, 113, 24); stroke: rgb(69, 113, 24);"/><text dy=".35em" x="13" text-anchor="start" style="fill-opacity: 1;">playwith-eth</text></g><g class="node" transform="translate(800, -498.75)"><circle r="4.5" cursor="pointer" style="fill: rgb(69, 113, 24); stroke: rgb(69, 113, 24);"/><text dy=".35em" x="13" text-anchor="start" style="fill-opacity: 1;">the-lone-r-nin</text></g><g class="node" transform="translate(800, -483.75)"><circle r="4.5" cursor="pointer" style="fill: rgb(69, 113, 24); stroke: rgb(69, 113, 24);"/><text dy=".35em" x="13" text-anchor="start" style="fill-opacity: 1;">defilezebra</text></g><g class="node" transform="translate(800, -468.75)"><circle r="4.5" cursor="pointer" style="fill: rgb(69, 113, 24); stroke: rgb(69, 113, 24);"/><text dy=".35em" x="13" text-anchor="start" style="fill-opacity: 1;">max</text></g><g class="node" transform="translate(800, -453.75)"><circle r="4.5" cursor="pointer" style="fill: rgb(69, 113, 24); stroke: rgb(69, 113, 24);"/><text dy=".35em" x="13" text-anchor="start" style="fill-opacity: 1;">uranus</text></g><g class="node" transform="translate(800, -438.75)"><circle r="4.5" cursor="pointer" style="fill: rgb(69, 113, 24); stroke: rgb(69, 113, 24);"/><text dy=".35em" x="13" text-anchor="start" style="fill-opacity: 1;">dunks411</text></g><g class="node" transform="translate(800, -423.75)"><circle r="4.5" cursor="pointer" style="fill: rgb(69, 113, 24); stroke: rgb(69, 113, 24);"/><text dy=".35em" x="13" text-anchor="start" style="fill-opacity: 1;">jack-g</text></g><g class="node" transform="translate(800, -408.75)"><circle r="4.5" cursor="pointer" style="fill: rgb(69, 113, 24); stroke: rgb(69, 113, 24);"/><text dy=".35em" x="13" text-anchor="start" style="fill-opacity: 1;">pronoia</text></g><g class="node" transform="translate(800, -393.75)"><circle r="4.5" cursor="pointer" style="fill: rgb(69, 113, 24); stroke: rgb(69, 113, 24);"/><text dy=".35em" x="13" text-anchor="start" style="fill-opacity: 1;">decentralion</text></g><g class="node" transform="translate(800, -378.75)"><circle r="4.5" cursor="pointer" style="fill: rgb(69, 113, 24); stroke: rgb(69, 113, 24);"/><text dy=".35em" x="13" text-anchor="start" style="fill-opacity: 1;">blairv</text></g><g class="node" transform="translate(800, -363.75)"><circle r="4.5" cursor="pointer" style="fill: rgb(69, 113, 24); stroke: rgb(69, 113, 24);"/><text dy=".35em" x="13" text-anchor="start" style="fill-opacity: 1;">oiou_crh</text></g><g class="node" transform="translate(800, -348.75)"><circle r="4.5" cursor="pointer" style="fill: rgb(69, 113, 24); stroke: rgb(69, 113, 24);"/><text dy=".35em" x="13" text-anchor="start" style="fill-opacity: 1;">0x0230c6dd5db1d3f871386a3ce1a5a836b2590044</text></g><g class="node" transform="translate(800, -333.75)"><circle r="4.5" cursor="pointer" style="fill: rgb(69, 113, 24); stroke: rgb(69, 113, 24);"/><text dy=".35em" x="13" text-anchor="start" style="fill-opacity: 1;">luxumbra</text></g><g class="node" transform="translate(800, -318.75)"><circle r="4.5" cursor="pointer" style="fill: rgb(69, 113, 24); stroke: rgb(69, 113, 24);"/><text dy=".35em" x="13" text-anchor="start" style="fill-opacity: 1;">0x2a8fe25896fcce82c49c2db923abfa4198ad3394</text></g><g class="node" transform="translate(800, -303.75)"><circle r="4.5" cursor="pointer" style="fill: rgb(69, 113, 24); stroke: rgb(69, 113, 24);"/><text dy=".35em" x="13" text-anchor="start" style="fill-opacity: 1;">sky</text></g><g class="node" transform="translate(800, -288.75)"><circle r="4.5" cursor="pointer" style="fill: rgb(69, 113, 24); stroke: rgb(69, 113, 24);"/><text dy=".35em" x="13" text-anchor="start" style="fill-opacity: 1;">0x37bd0ae78dd5cd338d6e80b5c87b6f8e38121297</text></g><g class="node" transform="translate(800, -273.75)"><circle r="4.5" cursor="pointer" style="fill: rgb(69, 113, 24); stroke: rgb(69, 113, 24);"/><text dy=".35em" x="13" text-anchor="start" style="fill-opacity: 1;">ecwireless</text></g><g class="node" transform="translate(800, -258.75)"><circle r="4.5" cursor="pointer" style="fill: rgb(69, 113, 24); stroke: rgb(69, 113, 24);"/><text dy=".35em" x="13" text-anchor="start" style="fill-opacity: 1;">0x4f4fe578482dccdde80d724817ac091a417c0874</text></g><g class="node" transform="translate(800, -243.75)"><circle r="4.5" cursor="pointer" style="fill: rgb(69, 113, 24); stroke: rgb(69, 113, 24);"/><text dy=".35em" x="13" text-anchor="start" style="fill-opacity: 1;">vid</text></g><g class="node" transform="translate(800, -228.75)"><circle r="4.5" cursor="pointer" style="fill: rgb(69, 113, 24); stroke: rgb(69, 113, 24);"/><text dy=".35em" x="13" text-anchor="start" style="fill-opacity: 1;">lsdan</text></g><g class="node" transform="translate(800, -213.75)"><circle r="4.5" cursor="pointer" style="fill: rgb(69, 113, 24); stroke: rgb(69, 113, 24);"/><text dy=".35em" x="13" text-anchor="start" style="fill-opacity: 1;">jason</text></g><g class="node" transform="translate(800, -198.75)"><circle r="4.5" cursor="pointer" style="fill: rgb(69, 113, 24); stroke: rgb(69, 113, 24);"/><text dy=".35em" x="13" text-anchor="start" style="fill-opacity: 1;">peth</text></g><g class="node" transform="translate(800, -183.75)"><circle r="4.5" cursor="pointer" style="fill: rgb(69, 113, 24); stroke: rgb(69, 113, 24);"/><text dy=".35em" x="13" text-anchor="start" style="fill-opacity: 1;">defidude</text></g><g class="node" transform="translate(800, -168.75)"><circle r="4.5" cursor="pointer" style="fill: rgb(69, 113, 24); stroke: rgb(69, 113, 24);"/><text dy=".35em" x="13" text-anchor="start" style="fill-opacity: 1;">0x7a3bf9b823eb96f8f0777437ec01d0082182c2af</text></g><g class="node" transform="translate(800, -138.75)"><circle r="4.5" cursor="pointer" style="fill: rgb(69, 113, 24); stroke: rgb(69, 113, 24);"/><text dy=".35em" x="13" text-anchor="start" style="fill-opacity: 1;">commonsstack</text></g><g class="node" transform="translate(800, -123.75)"><circle r="4.5" cursor="pointer" style="fill: rgb(69, 113, 24); stroke: rgb(69, 113, 24);"/><text dy=".35em" x="13" text-anchor="start" style="fill-opacity: 1;">buidl</text></g><g class="node" transform="translate(800, -108.75)"><circle r="4.5" cursor="pointer" style="fill: rgb(69, 113, 24); stroke: rgb(69, 113, 24);"/><text dy=".35em" x="13" text-anchor="start" style="fill-opacity: 1;">sourcecred</text></g><g class="node" transform="translate(800, -93.75)"><circle r="4.5" cursor="pointer" style="fill: rgb(69, 113, 24); stroke: rgb(69, 113, 24);"/><text dy=".35em" x="13" text-anchor="start" style="fill-opacity: 1;">bloomnetwork</text></g><g class="node" transform="translate(800, -78.75)"><circle r="4.5" cursor="pointer" style="fill: rgb(69, 113, 24); stroke: rgb(69, 113, 24);"/><text dy=".35em" x="13" text-anchor="start" style="fill-opacity: 1;">metacartelventures</text></g><g class="node" transform="translate(800, -63.75)"><circle r="4.5" cursor="pointer" style="fill: rgb(69, 113, 24); stroke: rgb(69, 113, 24);"/><text dy=".35em" x="13" text-anchor="start" style="fill-opacity: 1;">raidguild</text></g><g class="node" transform="translate(800, -48.75)"><circle r="4.5" cursor="pointer" style="fill: rgb(69, 113, 24); stroke: rgb(69, 113, 24);"/><text dy=".35em" x="13" text-anchor="start" style="fill-opacity: 1;">1hive</text></g><g class="node" transform="translate(800, -33.75)"><circle r="4.5" cursor="pointer" style="fill: rgb(69, 113, 24); stroke: rgb(69, 113, 24);"/><text dy=".35em" x="13" text-anchor="start" style="fill-opacity: 1;">metafactory</text></g><g class="node" transform="translate(800, -18.75)"><circle r="4.5" cursor="pointer" style="fill: rgb(69, 113, 24); stroke: rgb(69, 113, 24);"/><text dy=".35em" x="13" text-anchor="start" style="fill-opacity: 1;">deepwork</text></g><g class="node" transform="translate(800, -3.75)"><circle r="4.5" cursor="pointer" style="fill: rgb(69, 113, 24); stroke: rgb(69, 113, 24);"/><text dy=".35em" x="13" text-anchor="start" style="fill-opacity: 1;">design</text></g><g class="node" transform="translate(800, 11.25)"><circle r="4.5" cursor="pointer" style="fill: rgb(69, 113, 24); stroke: rgb(69, 113, 24);"/><text dy=".35em" x="13" text-anchor="start" style="fill-opacity: 1;">opolis</text></g><g class="node" transform="translate(800, 26.25)"><circle r="4.5" cursor="pointer" style="fill: rgb(69, 113, 24); stroke: rgb(69, 113, 24);"/><text dy=".35em" x="13" text-anchor="start" style="fill-opacity: 1;">metafam</text></g><g class="node" transform="translate(800, 41.25)"><circle r="4.5" cursor="pointer" style="fill: rgb(69, 113, 24); stroke: rgb(69, 113, 24);"/><text dy=".35em" x="13" text-anchor="start" style="fill-opacity: 1;">Giveth</text></g><g class="node" transform="translate(800, 56.25)"><circle r="4.5" cursor="pointer" style="fill: rgb(69, 113, 24); stroke: rgb(69, 113, 24);"/><text dy=".35em" x="13" text-anchor="start" style="fill-opacity: 1;">panvala</text></g><g class="node" transform="translate(800, 71.25)"><circle r="4.5" cursor="pointer" style="fill: rgb(69, 113, 24); stroke: rgb(69, 113, 24);"/><text dy=".35em" x="13" text-anchor="start" style="fill-opacity: 1;">mooni</text></g><g class="node" transform="translate(800, 86.25)"><circle r="4.5" cursor="pointer" style="fill: rgb(69, 113, 24); stroke: rgb(69, 113, 24);"/><text dy=".35em" x="13" text-anchor="start" style="fill-opacity: 1;">TEC</text></g><g class="node" transform="translate(800, 101.25)"><circle r="4.5" cursor="pointer" style="fill: rgb(69, 113, 24); stroke: rgb(69, 113, 24);"/><text dy=".35em" x="13" text-anchor="start" style="fill-opacity: 1;">fireeyes</text></g><g class="node" transform="translate(800, 116.25)"><circle r="4.5" cursor="pointer" style="fill: rgb(69, 113, 24); stroke: rgb(69, 113, 24);"/><text dy=".35em" x="13" text-anchor="start" style="fill-opacity: 1;">mgd</text></g><g class="node" transform="translate(800, 131.25)"><circle r="4.5" cursor="pointer" style="fill: rgb(69, 113, 24); stroke: rgb(69, 113, 24);"/><text dy=".35em" x="13" text-anchor="start" style="fill-opacity: 1;">metacartel</text></g><g class="node" transform="translate(800, 146.25)"><circle r="4.5" cursor="pointer" style="fill: rgb(69, 113, 24); stroke: rgb(69, 113, 24);"/><text dy=".35em" x="13" text-anchor="start" style="fill-opacity: 1;">opolis.co</text></g><g class="node" transform="translate(800, 176.25)"><circle r="4.5" cursor="pointer" style="fill: rgb(69, 113, 24); stroke: rgb(69, 113, 24);"/><text dy=".35em" x="-13" text-anchor="end" style="fill-opacity: 1;">playbooks/</text></g><g class="node" transform="translate(800, 333.75)"><circle r="4.5" cursor="pointer" style="fill: rgb(69, 113, 24); stroke: rgb(69, 113, 24);"/><text dy=".35em" x="-13" text-anchor="end" style="fill-opacity: 1;">enter-metagame/</text></g><g class="node" transform="translate(800, 416.25)"><circle r="4.5" cursor="pointer" style="fill: rgb(69, 113, 24); stroke: rgb(69, 113, 24);"/><text dy=".35em" x="-13" text-anchor="end" style="fill-opacity: 1;">wtf-is-metagame/</text></g><g class="node" transform="translate(800, 513.75)"><circle r="4.5" cursor="pointer" style="fill: rgb(69, 113, 24); stroke: rgb(69, 113, 24);"/><text dy=".35em" x="-13" text-anchor="end" style="fill-opacity: 1;">great-houses/</text></g><g class="node" transform="translate(800, 618.75)"><circle r="4.5" cursor="pointer" style="fill: rgb(69, 113, 24); stroke: rgb(69, 113, 24);"/><text dy=".35em" x="-13" text-anchor="end" style="fill-opacity: 1;">Guilding/</text></g><g class="node" transform="translate(800, 671.25)"><circle r="4.5" cursor="pointer" style="fill: rgb(69, 113, 24); stroke: rgb(69, 113, 24);"/><text dy=".35em" x="-13" text-anchor="end" style="fill-opacity: 1;">resources/</text></g><g class="node" transform="translate(800, 701.25)"><circle r="4.5" cursor="pointer" style="fill: rgb(69, 113, 24); stroke: rgb(69, 113, 24);"/><text dy=".35em" x="-13" text-anchor="end" style="fill-opacity: 1;">what-we-do/</text></g><g class="node" transform="translate(800, 768.75)"><circle r="4.5" cursor="pointer" style="fill: rgb(69, 113, 24); stroke: rgb(69, 113, 24);"/><text dy=".35em" x="-13" text-anchor="end" style="fill-opacity: 1;">how-does-it-work/</text></g><g class="node" transform="translate(1000, 86.25)"><circle r="4.5" cursor="pointer" style="fill: rgb(69, 113, 24); stroke: rgb(69, 113, 24);"/><text dy=".35em" x="13" text-anchor="start" style="fill-opacity: 1;">how-to-make-it-without-technical-skills</text></g><g class="node" transform="translate(1000, 101.25)"><circle r="4.5" cursor="pointer" style="fill: rgb(69, 113, 24); stroke: rgb(69, 113, 24);"/><text dy=".35em" x="13" text-anchor="start" style="fill-opacity: 1;">path-of-the-writer-episode-1.0</text></g><g class="node" transform="translate(1000, 116.25)"><circle r="4.5" cursor="pointer" style="fill: rgb(69, 113, 24); stroke: rgb(69, 113, 24);"/><text dy=".35em" x="13" text-anchor="start" style="fill-opacity: 1;">how-to-build-a-network-for-impact</text></g><g class="node" transform="translate(1000, 131.25)"><circle r="4.5" cursor="pointer" style="fill: rgb(69, 113, 24); stroke: rgb(69, 113, 24);"/><text dy=".35em" x="13" text-anchor="start" style="fill-opacity: 1;">handling-fomo-in-web3</text></g><g class="node" transform="translate(1000, 146.25)"><circle r="4.5" cursor="pointer" style="fill: rgb(69, 113, 24); stroke: rgb(69, 113, 24);"/><text dy=".35em" x="13" text-anchor="start" style="fill-opacity: 1;">how-to-join-a-dao-community</text></g><g class="node" transform="translate(1000, 161.25)"><circle r="4.5" cursor="pointer" style="fill: rgb(69, 113, 24); stroke: rgb(69, 113, 24);"/><text dy=".35em" x="13" text-anchor="start" style="fill-opacity: 1;">understanding-impostor-syndrome</text></g><g class="node" transform="translate(1000, 176.25)"><circle r="4.5" cursor="pointer" style="fill: rgb(69, 113, 24); stroke: rgb(69, 113, 24);"/><text dy=".35em" x="13" text-anchor="start" style="fill-opacity: 1;">how-to-coach-eth</text></g><g class="node" transform="translate(1000, 191.25)"><circle r="4.5" cursor="pointer" style="fill: rgb(69, 113, 24); stroke: rgb(69, 113, 24);"/><text dy=".35em" x="13" text-anchor="start" style="fill-opacity: 1;">how-to-hackmd</text></g><g class="node" transform="translate(1000, 206.25)"><circle r="4.5" cursor="pointer" style="fill: rgb(69, 113, 24); stroke: rgb(69, 113, 24);"/><text dy=".35em" x="13" text-anchor="start" style="fill-opacity: 1;">entering-daos-as-a-writer</text></g><g class="node" transform="translate(1000, 221.25)"><circle r="4.5" cursor="pointer" style="fill: rgb(69, 113, 24); stroke: rgb(69, 113, 24);"/><text dy=".35em" x="13" text-anchor="start" style="fill-opacity: 1;">become-a-buidler-on-ethereum-by-austin-griffith</text></g><g class="node" transform="translate(1000, 236.25)"><circle r="4.5" cursor="pointer" style="fill: rgb(69, 113, 24); stroke: rgb(69, 113, 24);"/><text dy=".35em" x="13" text-anchor="start" style="fill-opacity: 1;">how-to-play-twitter-by-visa</text></g><g class="node" transform="translate(1000, 251.25)"><circle r="4.5" cursor="pointer" style="fill: rgb(69, 113, 24); stroke: rgb(69, 113, 24);"/><text dy=".35em" x="13" text-anchor="start" style="fill-opacity: 1;">CupOJosephs-Becoming-An-Ethereum-Developer-Roadmap-and-Guide</text></g><g class="node" transform="translate(1000, 266.25)"><circle r="4.5" cursor="pointer" style="fill: rgb(69, 113, 24); stroke: rgb(69, 113, 24);"/><text dy=".35em" x="13" text-anchor="start" style="fill-opacity: 1;">how-to-git-on-github-non-builder</text></g><g class="node" transform="translate(1000, 296.25)"><circle r="4.5" cursor="pointer" style="fill: rgb(69, 113, 24); stroke: rgb(69, 113, 24);"/><text dy=".35em" x="13" text-anchor="start" style="fill-opacity: 1;">navigation-board</text></g><g class="node" transform="translate(1000, 311.25)"><circle r="4.5" cursor="pointer" style="fill: rgb(69, 113, 24); stroke: rgb(69, 113, 24);"/><text dy=".35em" x="13" text-anchor="start" style="fill-opacity: 1;">why-patron</text></g><g class="node" transform="translate(1000, 326.25)"><circle r="4.5" cursor="pointer" style="fill: rgb(69, 113, 24); stroke: rgb(69, 113, 24);"/><text dy=".35em" x="13" text-anchor="start" style="fill-opacity: 1;">how-to-become-a-player</text></g><g class="node" transform="translate(1000, 341.25)"><circle r="4.5" cursor="pointer" style="fill: rgb(69, 113, 24); stroke: rgb(69, 113, 24);"/><text dy=".35em" x="13" text-anchor="start" style="fill-opacity: 1;">join-metagame</text></g><g class="node" transform="translate(1000, 356.25)"><circle r="4.5" cursor="pointer" style="fill: rgb(69, 113, 24); stroke: rgb(69, 113, 24);"/><text dy=".35em" x="13" text-anchor="start" style="fill-opacity: 1;">leaderboard</text></g><g class="node" transform="translate(1000, 371.25)"><circle r="4.5" cursor="pointer" style="fill: rgb(69, 113, 24); stroke: rgb(69, 113, 24);"/><text dy=".35em" x="13" text-anchor="start" style="fill-opacity: 1;">roles-in-metagame</text></g><g class="node" transform="translate(1000, 401.25)"><circle r="4.5" cursor="pointer" style="fill: rgb(69, 113, 24); stroke: rgb(69, 113, 24);"/><text dy=".35em" x="13" text-anchor="start" style="fill-opacity: 1;">wtf-is-metagame</text></g><g class="node" transform="translate(1000, 416.25)"><circle r="4.5" cursor="pointer" style="fill: rgb(69, 113, 24); stroke: rgb(69, 113, 24);"/><text dy=".35em" x="13" text-anchor="start" style="fill-opacity: 1;">narrative-1-a-decentralized-factory</text></g><g class="node" transform="translate(1000, 431.25)"><circle r="4.5" cursor="pointer" style="fill: rgb(69, 113, 24); stroke: rgb(69, 113, 24);"/><text dy=".35em" x="13" text-anchor="start" style="fill-opacity: 1;">metafam-way</text></g><g class="node" transform="translate(1000, 461.25)"><circle r="4.5" cursor="pointer" style="fill: rgb(201, 45, 45); stroke: rgb(201, 45, 45);"/><text dy=".35em" x="13" text-anchor="start" style="fill-opacity: 1;">house-of-daos/</text></g><g class="node" transform="translate(1000, 476.25)"><circle r="4.5" cursor="pointer" style="fill: rgb(69, 113, 24); stroke: rgb(69, 113, 24);"/><text dy=".35em" x="13" text-anchor="start" style="fill-opacity: 1;">how-to-house</text></g><g class="node" transform="translate(1000, 491.25)"><circle r="4.5" cursor="pointer" style="fill: rgb(69, 113, 24); stroke: rgb(69, 113, 24);"/><text dy=".35em" x="13" text-anchor="start" style="fill-opacity: 1;">house-of-NFTs</text></g><g class="node" transform="translate(1000, 506.25)"><circle r="4.5" cursor="pointer" style="fill: rgb(69, 113, 24); stroke: rgb(69, 113, 24);"/><text dy=".35em" x="13" text-anchor="start" style="fill-opacity: 1;">house-of-ethereum</text></g><g class="node" transform="translate(1000, 521.25)"><circle r="4.5" cursor="pointer" style="fill: rgb(69, 113, 24); stroke: rgb(69, 113, 24);"/><text dy=".35em" x="13" text-anchor="start" style="fill-opacity: 1;">house-of-dapps</text></g><g class="node" transform="translate(1000, 536.25)"><circle r="4.5" cursor="pointer" style="fill: rgb(69, 113, 24); stroke: rgb(69, 113, 24);"/><text dy=".35em" x="13" text-anchor="start" style="fill-opacity: 1;">house-of-L2s</text></g><g class="node" transform="translate(1000, 551.25)"><circle r="4.5" cursor="pointer" style="fill: rgb(69, 113, 24); stroke: rgb(69, 113, 24);"/><text dy=".35em" x="13" text-anchor="start" style="fill-opacity: 1;">house-of-daos</text></g><g class="node" transform="translate(1000, 566.25)"><circle r="4.5" cursor="pointer" style="fill: rgb(69, 113, 24); stroke: rgb(69, 113, 24);"/><text dy=".35em" x="13" text-anchor="start" style="fill-opacity: 1;">house-of-defi</text></g><g class="node" transform="translate(1000, 596.25)"><circle r="4.5" cursor="pointer" style="fill: rgb(69, 113, 24); stroke: rgb(69, 113, 24);"/><text dy=".35em" x="13" text-anchor="start" style="fill-opacity: 1;">building-successful-teams</text></g><g class="node" transform="translate(1000, 611.25)"><circle r="4.5" cursor="pointer" style="fill: rgb(69, 113, 24); stroke: rgb(69, 113, 24);"/><text dy=".35em" x="13" text-anchor="start" style="fill-opacity: 1;">what-why-how-of-your-dao</text></g><g class="node" transform="translate(1000, 626.25)"><circle r="4.5" cursor="pointer" style="fill: rgb(201, 45, 45); stroke: rgb(201, 45, 45);"/><text dy=".35em" x="13" text-anchor="start" style="fill-opacity: 1;">metasys</text></g><g class="node" transform="translate(1000, 641.25)"><circle r="4.5" cursor="pointer" style="fill: rgb(69, 113, 24); stroke: rgb(69, 113, 24);"/><text dy=".35em" x="13" text-anchor="start" style="fill-opacity: 1;">guilding-101</text></g><g class="node" transform="translate(1000, 671.25)"><circle r="4.5" cursor="pointer" style="fill: rgb(69, 113, 24); stroke: rgb(69, 113, 24);"/><text dy=".35em" x="13" text-anchor="start" style="fill-opacity: 1;">calendar</text></g><g class="node" transform="translate(1000, 701.25)"><circle r="4.5" cursor="pointer" style="fill: rgb(69, 113, 24); stroke: rgb(69, 113, 24);"/><text dy=".35em" x="13" text-anchor="start" style="fill-opacity: 1;">tldr</text></g><g class="node" transform="translate(1000, 731.25)"><circle r="4.5" cursor="pointer" style="fill: rgb(69, 113, 24); stroke: rgb(69, 113, 24);"/><text dy=".35em" x="13" text-anchor="start" style="fill-opacity: 1;">obtaining-seeds</text></g><g class="node" transform="translate(1000, 746.25)"><circle r="4.5" cursor="pointer" style="fill: rgb(69, 113, 24); stroke: rgb(69, 113, 24);"/><text dy=".35em" x="13" text-anchor="start" style="fill-opacity: 1;">how-metagame-works</text></g><g class="node" transform="translate(1000, 761.25)"><circle r="4.5" cursor="pointer" style="fill: rgb(69, 113, 24); stroke: rgb(69, 113, 24);"/><text dy=".35em" x="13" text-anchor="start" style="fill-opacity: 1;">phases-of-metagame</text></g><g class="node" transform="translate(1000, 776.25)"><circle r="4.5" cursor="pointer" style="fill: rgb(69, 113, 24); stroke: rgb(69, 113, 24);"/><text dy=".35em" x="13" text-anchor="start" style="fill-opacity: 1;">a-cautionary-tale</text></g><g class="node" transform="translate(1000, 791.25)"><circle r="4.5" cursor="pointer" style="fill: rgb(69, 113, 24); stroke: rgb(69, 113, 24);"/><text dy=".35em" x="13" text-anchor="start" style="fill-opacity: 1;">become-a-founder-of-metagame</text></g><g class="node" transform="translate(1000, 806.25)"><circle r="4.5" cursor="pointer" style="fill: rgb(69, 113, 24); stroke: rgb(69, 113, 24);"/><text dy=".35em" x="13" text-anchor="start" style="fill-opacity: 1;">why-gamification-works</text></g></g>
  </svg>