<svg xmlns="http://www.w3.org/2000/svg" class="svg" width="1008" height="675" style="display: block;">
<defs><style type="text/css"><![CDATA[
:root { overflow: hidden; }
.svg { background-color: rgb(255, 255, 255); }
.node circle { cursor: pointer; stroke: rgb(255, 255, 255); stroke-width: 1.5px; }
.node text { font-size: 10px; pointer-events: none; text-anchor: middle; font-family: Roboto, sans-serif; font-weight: normal; font-style: normal; fill: rgb(0, 0, 0); }
line { fill: none; stroke: rgb(128, 128, 128); stroke-width: 0.5px; }]]></style></defs>
    <g><line class="link" x1="499.19407049410256" y1="402.9423517156729" x2="486.5672612378523" y2="344.4026139850321"/><line class="link" x1="486.5672612378523" y1="344.4026139850321" x2="572.5151844268565" y2="381.05819108647626"/><line class="link" x1="486.5672612378523" y1="344.4026139850321" x2="435.52292601567825" y2="378.5332008622186"/><line class="link" x1="486.5672612378523" y1="344.4026139850321" x2="398.5107095507273" y2="384.441497037048"/><line class="link" x1="486.5672612378523" y1="344.4026139850321" x2="593.4226094580835" y2="253.27442569890493"/><line class="link" x1="486.5672612378523" y1="344.4026139850321" x2="520.7467121466161" y2="415.2082983518862"/><line class="link" x1="486.5672612378523" y1="344.4026139850321" x2="371.9984543172351" y2="302.210202259429"/><line class="link" x1="486.5672612378523" y1="344.4026139850321" x2="501.8295190918255" y2="493.81303894694764"/><line class="link" x1="486.5672612378523" y1="344.4026139850321" x2="445.32448932957726" y2="296.9015757441348"/><line class="link" x1="486.5672612378523" y1="344.4026139850321" x2="423.1794954087731" y2="223.65982302757533"/><line class="link" x1="486.5672612378523" y1="344.4026139850321" x2="425.28950452765537" y2="342.7475763035808"/><line class="link" x1="486.5672612378523" y1="344.4026139850321" x2="432.7995445501588" y2="315.5592391203338"/><line class="link" x1="572.5151844268565" y1="381.05819108647626" x2="660.1307896418393" y2="415.1226936610899"/><line class="link" x1="398.5107095507273" y1="384.441497037048" x2="314.4502673793485" y2="423.76312593585095"/><line class="link" x1="593.4226094580835" y1="253.27442569890493" x2="629.6548107281626" y2="200.51882344471758"/><line class="link" x1="593.4226094580835" y1="253.27442569890493" x2="651.0690372408698" y2="281.28898178673836"/><line class="link" x1="593.4226094580835" y1="253.27442569890493" x2="577.9841270460813" y2="191.01296026376772"/><line class="link" x1="593.4226094580835" y1="253.27442569890493" x2="648.7881326627419" y2="221.75227220246722"/><line class="link" x1="593.4226094580835" y1="253.27442569890493" x2="598.2036096600897" y2="315.1638979660549"/><line class="link" x1="593.4226094580835" y1="253.27442569890493" x2="593.6372080527487" y2="188.87600782077956"/><line class="link" x1="593.4226094580835" y1="253.27442569890493" x2="657.79714541969" y2="257.73468275855305"/><line class="link" x1="593.4226094580835" y1="253.27442569890493" x2="544.0284976604541" y2="289.4374499280153"/><line class="link" x1="593.4226094580835" y1="253.27442569890493" x2="636.5275375610623" y2="203.52365790762602"/><line class="link" x1="593.4226094580835" y1="253.27442569890493" x2="623.8506433168857" y2="308.35794497258854"/><line class="link" x1="593.4226094580835" y1="253.27442569890493" x2="554.3147335344171" y2="203.31795158595116"/><line class="link" x1="593.4226094580835" y1="253.27442569890493" x2="653.9149211593701" y2="227.5551755065289"/><line class="link" x1="593.4226094580835" y1="253.27442569890493" x2="562.0775586232394" y2="305.97224505439806"/><line class="link" x1="593.4226094580835" y1="253.27442569890493" x2="601.5520743149207" y2="188.971314894099"/><line class="link" x1="593.4226094580835" y1="253.27442569890493" x2="640.5154750469311" y2="295.95852480629964"/><line class="link" x1="593.4226094580835" y1="253.27442569890493" x2="534.9773069971363" y2="231.8361210078525"/><line class="link" x1="593.4226094580835" y1="253.27442569890493" x2="640.1379706547107" y2="210.05544806164832"/><line class="link" x1="593.4226094580835" y1="253.27442569890493" x2="646.4173363996711" y2="288.7757534206864"/><line class="link" x1="593.4226094580835" y1="253.27442569890493" x2="569.8989247717734" y2="193.73740431861773"/><line class="link" x1="593.4226094580835" y1="253.27442569890493" x2="657.6286600423156" y2="242.00959927545497"/><line class="link" x1="593.4226094580835" y1="253.27442569890493" x2="533.7511746456573" y2="267.86711874723403"/><line class="link" x1="593.4226094580835" y1="253.27442569890493" x2="609.3187361619366" y2="190.60301671891634"/><line class="link" x1="593.4226094580835" y1="253.27442569890493" x2="654.2939912617213" y2="273.57188901065894"/><line class="link" x1="593.4226094580835" y1="253.27442569890493" x2="546.973592357385" y2="210.640037892254"/><line class="link" x1="593.4226094580835" y1="253.27442569890493" x2="646.530847471695" y2="214.43019498335462"/><line class="link" x1="593.4226094580835" y1="253.27442569890493" x2="612.3427490276923" y2="312.84720550725547"/><line class="link" x1="593.4226094580835" y1="253.27442569890493" x2="585.8333125011138" y2="189.23046953031877"/><line class="link" x1="593.4226094580835" y1="253.27442569890493" x2="657.6900158454545" y2="249.74548702441794"/><line class="link" x1="593.4226094580835" y1="253.27442569890493" x2="531.7715806545639" y2="247.86172122833204"/><line class="link" x1="593.4226094580835" y1="253.27442569890493" x2="623.7368591170488" y2="195.65240173350017"/><line class="link" x1="593.4226094580835" y1="253.27442569890493" x2="633.0793359105074" y2="302.58593288148387"/><line class="link" x1="593.4226094580835" y1="253.27442569890493" x2="561.9570784028423" y2="197.82742883479528"/><line class="link" x1="593.4226094580835" y1="253.27442569890493" x2="654.5021498212794" y2="234.941928814796"/><line class="link" x1="593.4226094580835" y1="253.27442569890493" x2="581.6240283659985" y2="313.7884052449701"/><line class="link" x1="593.4226094580835" y1="253.27442569890493" x2="616.5706787544564" y2="192.8845920604576"/><line class="link" x1="593.4226094580835" y1="253.27442569890493" x2="656.6117946981766" y2="265.58187992564075"/><line class="link" x1="593.4226094580835" y1="253.27442569890493" x2="540.2515711560654" y2="220.22711508539476"/><line class="link" x1="520.7467121466161" y1="415.2082983518862" x2="453.2288566032314" y2="418.99257812976833"/><line class="link" x1="520.7467121466161" y1="415.2082983518862" x2="495.03419927244494" y2="469.4905453016485"/><line class="link" x1="520.7467121466161" y1="415.2082983518862" x2="584.8867071487527" y2="432.7955152374226"/><line class="link" x1="520.7467121466161" y1="415.2082983518862" x2="576.5197619770704" y2="452.71397774077053"/><line class="link" x1="520.7467121466161" y1="415.2082983518862" x2="467.91197380266186" y2="455.05351937174055"/><line class="link" x1="520.7467121466161" y1="415.2082983518862" x2="463.64246416991836" y2="435.88520674216306"/><line class="link" x1="371.9984543172351" y1="302.210202259429" x2="325.5649073512613" y2="343.0569953961361"/><line class="link" x1="371.9984543172351" y1="302.210202259429" x2="310.4056558240523" y2="287.7573147277316"/><line class="link" x1="371.9984543172351" y1="302.210202259429" x2="320.01407187224515" y2="266.196508221264"/><line class="link" x1="371.9984543172351" y1="302.210202259429" x2="310.02624687416136" y2="312.6806910291632"/><line class="link" x1="371.9984543172351" y1="302.210202259429" x2="314.1723073921893" y2="276.30980275764495"/><line class="link" x1="371.9984543172351" y1="302.210202259429" x2="340.1772595882411" y2="248.64593194948878"/><line class="link" x1="371.9984543172351" y1="302.210202259429" x2="308.90380422487686" y2="299.77432306382804"/><line class="link" x1="371.9984543172351" y1="302.210202259429" x2="328.41408543515007" y2="256.81410574891964"/><line class="link" x1="371.9984543172351" y1="302.210202259429" x2="314.8293888160857" y2="327.2279221303475"/><line class="link" x1="501.8295190918255" y1="493.81303894694764" x2="443.5474770606034" y2="516.8873833761576"/><line class="link" x1="501.8295190918255" y1="493.81303894694764" x2="546.5758709599098" y2="538.8600009299893"/><line class="link" x1="501.8295190918255" y1="493.81303894694764" x2="475.2894797494952" y2="550.4445927562388"/><line class="link" x1="501.8295190918255" y1="493.81303894694764" x2="563.8975586417234" y2="498.1631413090239"/><line class="link" x1="501.8295190918255" y1="493.81303894694764" x2="510.83278628431896" y2="556.6703282678114"/><line class="link" x1="501.8295190918255" y1="493.81303894694764" x2="449.05024764187823" y2="528.1776308058394"/><line class="link" x1="501.8295190918255" y1="493.81303894694764" x2="558.391734666901" y2="521.7836441614969"/><line class="link" x1="501.8295190918255" y1="493.81303894694764" x2="500.04171508769946" y2="557.1259843832601"/><line class="link" x1="501.8295190918255" y1="493.81303894694764" x2="440.19624057804975" y2="500.54021926849896"/><line class="link" x1="501.8295190918255" y1="493.81303894694764" x2="538.8525809443435" y2="545.5068666487066"/><line class="link" x1="501.8295190918255" y1="493.81303894694764" x2="465.3596260199551" y2="545.3496231562681"/><line class="link" x1="501.8295190918255" y1="493.81303894694764" x2="562.1543674108702" y2="511.07879288348687"/><line class="link" x1="501.8295190918255" y1="493.81303894694764" x2="520.8936346046" y2="554.4599722906781"/><line class="link" x1="501.8295190918255" y1="493.81303894694764" x2="479.37407006989196" y2="564.0629938404784"/><line class="link" x1="501.8295190918255" y1="493.81303894694764" x2="553.0773214316313" y2="531.0402131894945"/><line class="link" x1="501.8295190918255" y1="493.81303894694764" x2="489.7300936228497" y2="555.2301567104834"/><line class="link" x1="501.8295190918255" y1="493.81303894694764" x2="562.297752404152" y2="482.5652114699266"/><line class="link" x1="501.8295190918255" y1="493.81303894694764" x2="530.3582457550353" y2="550.6895158754547"/><line class="link" x1="501.8295190918255" y1="493.81303894694764" x2="456.3735660846568" y2="537.6460222553203"/><line class="link" x1="445.32448932957726" y1="296.9015757441348" x2="386.6668923269402" y2="314.6996589907671"/><line class="link" x1="423.1794954087731" y1="223.65982302757533" x2="458.9511967733488" y2="172.4562775539872"/><line class="link" x1="423.1794954087731" y1="223.65982302757533" x2="386.4810515007023" y2="171.53302027212075"/><line class="link" x1="423.1794954087731" y1="223.65982302757533" x2="436.1882837553982" y2="161.62399265996882"/><line class="link" x1="423.1794954087731" y1="223.65982302757533" x2="366.6009629541734" y2="195.36136970146242"/><line class="link" x1="423.1794954087731" y1="223.65982302757533" x2="404.38394620281093" y2="162.75801905628407"/><line class="link" x1="423.1794954087731" y1="223.65982302757533" x2="361.27082839166894" y2="221.13790194551137"/><line class="link" x1="423.1794954087731" y1="223.65982302757533" x2="378.8403678116109" y2="178.01144047362453"/><line class="link" x1="423.1794954087731" y1="223.65982302757533" x2="424.9507164187541" y2="160.12558484214213"/><line class="link" x1="423.1794954087731" y1="223.65982302757533" x2="362.6748880765617" y2="206.55198547811568"/><line class="link" x1="423.1794954087731" y1="223.65982302757533" x2="395.04049939476835" y2="166.41537926665436"/><line class="link" x1="423.1794954087731" y1="223.65982302757533" x2="447.00991104726756" y2="165.26479486478215"/><line class="link" x1="423.1794954087731" y1="223.65982302757533" x2="372.0993303811718" y2="185.9305180323863"/><line class="link" x1="423.1794954087731" y1="223.65982302757533" x2="414.3594444512712" y2="160.57880158573766"/><line class="link" x1="660.1307896418393" y1="415.1226936610899" x2="705.9580892217938" y2="458.46550373603185"/><line class="link" x1="660.1307896418393" y1="415.1226936610899" x2="720.5900872968751" y2="397.9510641298408"/><line class="link" x1="660.1307896418393" y1="415.1226936610899" x2="721.0269331520633" y2="431.70874018086914"/><line class="link" x1="660.1307896418393" y1="415.1226936610899" x2="692.2558494556779" y2="469.2161545538132"/><line class="link" x1="660.1307896418393" y1="415.1226936610899" x2="723.1983020963374" y2="416.1431988154311"/><line class="link" x1="660.1307896418393" y1="415.1226936610899" x2="715.2842718505116" y2="445.8688082168184"/><line class="link" x1="314.4502673793485" y1="423.76312593585095" x2="254.74481696335698" y2="442.8459869398116"/><line class="link" x1="314.4502673793485" y1="423.76312593585095" x2="311.9339055220257" y2="485.805359708653"/><line class="link" x1="314.4502673793485" y1="423.76312593585095" x2="269.4181579593782" y2="467.27191158274655"/><line class="link" x1="314.4502673793485" y1="423.76312593585095" x2="252.45781793223398" y2="415.04684045007247"/><line class="link" x1="314.4502673793485" y1="423.76312593585095" x2="293.789991899917" y2="482.6662008976649"/><line class="link" x1="314.4502673793485" y1="423.76312593585095" x2="261.0094705344139" y2="456.50814470351474"/><line class="link" x1="314.4502673793485" y1="423.76312593585095" x2="256.38741719656474" y2="400.67102325184726"/><line class="link" x1="314.4502673793485" y1="423.76312593585095" x2="280.35434228987356" y2="476.1907097181623"/><line class="link" x1="314.4502673793485" y1="423.76312593585095" x2="252.00404630045827" y2="429.2472170461665"/><line class="link" x1="314.4502673793485" y1="423.76312593585095" x2="265.2792191406501" y2="385.70577347111777"/><line class="link" x1="453.2288566032314" y1="418.99257812976833" x2="394.3881660978973" y2="440.7168194961079"/><line class="link" x1="453.2288566032314" y1="418.99257812976833" x2="447.51664241294117" y2="359.07786824449073"/><line class="link" x1="584.8867071487527" y1="432.7955152374226" x2="639.4601829370728" y2="464.6425549464467"/><line class="link" x1="576.5197619770704" y1="452.71397774077053" x2="625.4176530664517" y2="494.2994148962086"/><line class="link" x1="467.91197380266186" y1="455.05351937174055" x2="410.7513739980025" y2="483.55209200839084"/><line class="link" x1="479.37407006989196" y1="564.0629938404784" x2="460.98118206478983" y2="625.0243523740469"/><g class="node" transform="translate(499.19407049410256, 402.9423517156729)"><circle r="20" style="fill: rgb(69, 114, 24);"/><text dy=".15em">metagame.wtf</text></g><g class="node" transform="translate(486.5672612378523, 344.4026139850321)"><circle r="16.25" style="fill: rgb(110, 181, 38);"/><text dy=".15em">dashboard</text></g><g class="node" transform="translate(572.5151844268565, 381.05819108647626)"><circle r="12.5" style="fill: rgb(150, 218, 82);"/><text dy=".15em"/></g><g class="node" transform="translate(435.52292601567825, 378.5332008622186)"><circle r="12.5" style="fill: rgb(150, 218, 82);"/><text dy=".15em"/></g><g class="node" transform="translate(398.5107095507273, 384.441497037048)"><circle r="12.5" style="fill: rgb(150, 218, 82);"/><text dy=".15em"/></g><g class="node" transform="translate(593.4226094580835, 253.27442569890493)"><circle r="12.5" style="fill: rgb(150, 218, 82);"/><text dy=".15em"/></g><g class="node" transform="translate(520.7467121466161, 415.2082983518862)"><circle r="12.5" style="fill: rgb(150, 218, 82);"/><text dy=".15em"/></g><g class="node" transform="translate(371.9984543172351, 302.210202259429)"><circle r="12.5" style="fill: rgb(150, 218, 82);"/><text dy=".15em"/></g><g class="node" transform="translate(501.8295190918255, 493.81303894694764)"><circle r="12.5" style="fill: rgb(150, 218, 82);"/><text dy=".15em"/></g><g class="node" transform="translate(445.32448932957726, 296.9015757441348)"><circle r="12.5" style="fill: rgb(150, 218, 82);"/><text dy=".15em"/></g><g class="node" transform="translate(423.1794954087731, 223.65982302757533)"><circle r="12.5" style="fill: rgb(150, 218, 82);"/><text dy=".15em"/></g><g class="node" transform="translate(425.28950452765537, 342.7475763035808)"><circle r="12.5" style="fill: rgb(150, 218, 82);"/><text dy=".15em"/></g><g class="node" transform="translate(432.7995445501588, 315.5592391203338)"><circle r="12.5" style="fill: rgb(150, 218, 82);"/><text dy=".15em"/></g><g class="node" transform="translate(660.1307896418393, 415.1226936610899)"><circle r="8.75" style="fill: rgb(189, 232, 146);"/><text dy=".15em"/></g><g class="node" transform="translate(314.4502673793485, 423.76312593585095)"><circle r="8.75" style="fill: rgb(236, 172, 172);"/><text dy=".15em"/></g><g class="node" transform="translate(629.6548107281626, 200.51882344471758)"><circle r="8.75" style="fill: rgb(189, 232, 146);"/><text dy=".15em"/></g><g class="node" transform="translate(651.0690372408698, 281.28898178673836)"><circle r="8.75" style="fill: rgb(189, 232, 146);"/><text dy=".15em"/></g><g class="node" transform="translate(577.9841270460813, 191.01296026376772)"><circle r="8.75" style="fill: rgb(189, 232, 146);"/><text dy=".15em"/></g><g class="node" transform="translate(648.7881326627419, 221.75227220246722)"><circle r="8.75" style="fill: rgb(189, 232, 146);"/><text dy=".15em"/></g><g class="node" transform="translate(598.2036096600897, 315.1638979660549)"><circle r="8.75" style="fill: rgb(189, 232, 146);"/><text dy=".15em"/></g><g class="node" transform="translate(593.6372080527487, 188.87600782077956)"><circle r="8.75" style="fill: rgb(189, 232, 146);"/><text dy=".15em"/></g><g class="node" transform="translate(657.79714541969, 257.73468275855305)"><circle r="8.75" style="fill: rgb(189, 232, 146);"/><text dy=".15em"/></g><g class="node" transform="translate(544.0284976604541, 289.4374499280153)"><circle r="8.75" style="fill: rgb(189, 232, 146);"/><text dy=".15em"/></g><g class="node" transform="translate(636.5275375610623, 203.52365790762602)"><circle r="8.75" style="fill: rgb(189, 232, 146);"/><text dy=".15em"/></g><g class="node" transform="translate(623.8506433168857, 308.35794497258854)"><circle r="8.75" style="fill: rgb(189, 232, 146);"/><text dy=".15em"/></g><g class="node" transform="translate(554.3147335344171, 203.31795158595116)"><circle r="8.75" style="fill: rgb(189, 232, 146);"/><text dy=".15em"/></g><g class="node" transform="translate(653.9149211593701, 227.5551755065289)"><circle r="8.75" style="fill: rgb(189, 232, 146);"/><text dy=".15em"/></g><g class="node" transform="translate(562.0775586232394, 305.97224505439806)"><circle r="8.75" style="fill: rgb(189, 232, 146);"/><text dy=".15em"/></g><g class="node" transform="translate(601.5520743149207, 188.971314894099)"><circle r="8.75" style="fill: rgb(189, 232, 146);"/><text dy=".15em"/></g><g class="node" transform="translate(640.5154750469311, 295.95852480629964)"><circle r="8.75" style="fill: rgb(189, 232, 146);"/><text dy=".15em"/></g><g class="node" transform="translate(534.9773069971363, 231.8361210078525)"><circle r="8.75" style="fill: rgb(189, 232, 146);"/><text dy=".15em"/></g><g class="node" transform="translate(640.1379706547107, 210.05544806164832)"><circle r="8.75" style="fill: rgb(189, 232, 146);"/><text dy=".15em"/></g><g class="node" transform="translate(646.4173363996711, 288.7757534206864)"><circle r="8.75" style="fill: rgb(189, 232, 146);"/><text dy=".15em"/></g><g class="node" transform="translate(569.8989247717734, 193.73740431861773)"><circle r="8.75" style="fill: rgb(189, 232, 146);"/><text dy=".15em"/></g><g class="node" transform="translate(657.6286600423156, 242.00959927545497)"><circle r="8.75" style="fill: rgb(189, 232, 146);"/><text dy=".15em"/></g><g class="node" transform="translate(533.7511746456573, 267.86711874723403)"><circle r="8.75" style="fill: rgb(189, 232, 146);"/><text dy=".15em"/></g><g class="node" transform="translate(609.3187361619366, 190.60301671891634)"><circle r="8.75" style="fill: rgb(189, 232, 146);"/><text dy=".15em"/></g><g class="node" transform="translate(654.2939912617213, 273.57188901065894)"><circle r="8.75" style="fill: rgb(189, 232, 146);"/><text dy=".15em"/></g><g class="node" transform="translate(546.973592357385, 210.640037892254)"><circle r="8.75" style="fill: rgb(189, 232, 146);"/><text dy=".15em"/></g><g class="node" transform="translate(646.530847471695, 214.43019498335462)"><circle r="8.75" style="fill: rgb(189, 232, 146);"/><text dy=".15em"/></g><g class="node" transform="translate(612.3427490276923, 312.84720550725547)"><circle r="8.75" style="fill: rgb(189, 232, 146);"/><text dy=".15em"/></g><g class="node" transform="translate(585.8333125011138, 189.23046953031877)"><circle r="8.75" style="fill: rgb(189, 232, 146);"/><text dy=".15em"/></g><g class="node" transform="translate(657.6900158454545, 249.74548702441794)"><circle r="8.75" style="fill: rgb(189, 232, 146);"/><text dy=".15em"/></g><g class="node" transform="translate(531.7715806545639, 247.86172122833204)"><circle r="8.75" style="fill: rgb(189, 232, 146);"/><text dy=".15em"/></g><g class="node" transform="translate(623.7368591170488, 195.65240173350017)"><circle r="8.75" style="fill: rgb(189, 232, 146);"/><text dy=".15em"/></g><g class="node" transform="translate(633.0793359105074, 302.58593288148387)"><circle r="8.75" style="fill: rgb(189, 232, 146);"/><text dy=".15em"/></g><g class="node" transform="translate(561.9570784028423, 197.82742883479528)"><circle r="8.75" style="fill: rgb(189, 232, 146);"/><text dy=".15em"/></g><g class="node" transform="translate(654.5021498212794, 234.941928814796)"><circle r="8.75" style="fill: rgb(189, 232, 146);"/><text dy=".15em"/></g><g class="node" transform="translate(581.6240283659985, 313.7884052449701)"><circle r="8.75" style="fill: rgb(189, 232, 146);"/><text dy=".15em"/></g><g class="node" transform="translate(616.5706787544564, 192.8845920604576)"><circle r="8.75" style="fill: rgb(189, 232, 146);"/><text dy=".15em"/></g><g class="node" transform="translate(656.6117946981766, 265.58187992564075)"><circle r="8.75" style="fill: rgb(189, 232, 146);"/><text dy=".15em"/></g><g class="node" transform="translate(540.2515711560654, 220.22711508539476)"><circle r="8.75" style="fill: rgb(189, 232, 146);"/><text dy=".15em"/></g><g class="node" transform="translate(453.2288566032314, 418.99257812976833)"><circle r="8.75" style="fill: rgb(189, 232, 146);"/><text dy=".15em"/></g><g class="node" transform="translate(495.03419927244494, 469.4905453016485)"><circle r="8.75" style="fill: rgb(189, 232, 146);"/><text dy=".15em"/></g><g class="node" transform="translate(584.8867071487527, 432.7955152374226)"><circle r="8.75" style="fill: rgb(189, 232, 146);"/><text dy=".15em"/></g><g class="node" transform="translate(576.5197619770704, 452.71397774077053)"><circle r="8.75" style="fill: rgb(189, 232, 146);"/><text dy=".15em"/></g><g class="node" transform="translate(467.91197380266186, 455.05351937174055)"><circle r="8.75" style="fill: rgb(189, 232, 146);"/><text dy=".15em"/></g><g class="node" transform="translate(463.64246416991836, 435.88520674216306)"><circle r="8.75" style="fill: rgb(189, 232, 146);"/><text dy=".15em"/></g><g class="node" transform="translate(325.5649073512613, 343.0569953961361)"><circle r="8.75" style="fill: rgb(189, 232, 146);"/><text dy=".15em"/></g><g class="node" transform="translate(310.4056558240523, 287.7573147277316)"><circle r="8.75" style="fill: rgb(189, 232, 146);"/><text dy=".15em"/></g><g class="node" transform="translate(320.01407187224515, 266.196508221264)"><circle r="8.75" style="fill: rgb(189, 232, 146);"/><text dy=".15em"/></g><g class="node" transform="translate(310.02624687416136, 312.6806910291632)"><circle r="8.75" style="fill: rgb(189, 232, 146);"/><text dy=".15em"/></g><g class="node" transform="translate(314.1723073921893, 276.30980275764495)"><circle r="8.75" style="fill: rgb(189, 232, 146);"/><text dy=".15em"/></g><g class="node" transform="translate(340.1772595882411, 248.64593194948878)"><circle r="8.75" style="fill: rgb(189, 232, 146);"/><text dy=".15em"/></g><g class="node" transform="translate(308.90380422487686, 299.77432306382804)"><circle r="8.75" style="fill: rgb(189, 232, 146);"/><text dy=".15em"/></g><g class="node" transform="translate(328.41408543515007, 256.81410574891964)"><circle r="8.75" style="fill: rgb(189, 232, 146);"/><text dy=".15em"/></g><g class="node" transform="translate(314.8293888160857, 327.2279221303475)"><circle r="8.75" style="fill: rgb(189, 232, 146);"/><text dy=".15em"/></g><g class="node" transform="translate(443.5474770606034, 516.8873833761576)"><circle r="8.75" style="fill: rgb(189, 232, 146);"/><text dy=".15em"/></g><g class="node" transform="translate(546.5758709599098, 538.8600009299893)"><circle r="8.75" style="fill: rgb(189, 232, 146);"/><text dy=".15em"/></g><g class="node" transform="translate(475.2894797494952, 550.4445927562388)"><circle r="8.75" style="fill: rgb(189, 232, 146);"/><text dy=".15em"/></g><g class="node" transform="translate(563.8975586417234, 498.1631413090239)"><circle r="8.75" style="fill: rgb(189, 232, 146);"/><text dy=".15em"/></g><g class="node" transform="translate(510.83278628431896, 556.6703282678114)"><circle r="8.75" style="fill: rgb(189, 232, 146);"/><text dy=".15em"/></g><g class="node" transform="translate(449.05024764187823, 528.1776308058394)"><circle r="8.75" style="fill: rgb(189, 232, 146);"/><text dy=".15em"/></g><g class="node" transform="translate(558.391734666901, 521.7836441614969)"><circle r="8.75" style="fill: rgb(189, 232, 146);"/><text dy=".15em"/></g><g class="node" transform="translate(500.04171508769946, 557.1259843832601)"><circle r="8.75" style="fill: rgb(189, 232, 146);"/><text dy=".15em"/></g><g class="node" transform="translate(440.19624057804975, 500.54021926849896)"><circle r="8.75" style="fill: rgb(189, 232, 146);"/><text dy=".15em"/></g><g class="node" transform="translate(538.8525809443435, 545.5068666487066)"><circle r="8.75" style="fill: rgb(189, 232, 146);"/><text dy=".15em"/></g><g class="node" transform="translate(465.3596260199551, 545.3496231562681)"><circle r="8.75" style="fill: rgb(189, 232, 146);"/><text dy=".15em"/></g><g class="node" transform="translate(562.1543674108702, 511.07879288348687)"><circle r="8.75" style="fill: rgb(189, 232, 146);"/><text dy=".15em"/></g><g class="node" transform="translate(520.8936346046, 554.4599722906781)"><circle r="8.75" style="fill: rgb(189, 232, 146);"/><text dy=".15em"/></g><g class="node" transform="translate(479.37407006989196, 564.0629938404784)"><circle r="8.75" style="fill: rgb(189, 232, 146);"/><text dy=".15em"/></g><g class="node" transform="translate(553.0773214316313, 531.0402131894945)"><circle r="8.75" style="fill: rgb(189, 232, 146);"/><text dy=".15em"/></g><g class="node" transform="translate(489.7300936228497, 555.2301567104834)"><circle r="8.75" style="fill: rgb(189, 232, 146);"/><text dy=".15em"/></g><g class="node" transform="translate(562.297752404152, 482.5652114699266)"><circle r="8.75" style="fill: rgb(189, 232, 146);"/><text dy=".15em"/></g><g class="node" transform="translate(530.3582457550353, 550.6895158754547)"><circle r="8.75" style="fill: rgb(189, 232, 146);"/><text dy=".15em"/></g><g class="node" transform="translate(456.3735660846568, 537.6460222553203)"><circle r="8.75" style="fill: rgb(189, 232, 146);"/><text dy=".15em"/></g><g class="node" transform="translate(386.6668923269402, 314.6996589907671)"><circle r="8.75" style="fill: rgb(189, 232, 146);"/><text dy=".15em"/></g><g class="node" transform="translate(458.9511967733488, 172.4562775539872)"><circle r="8.75" style="fill: rgb(189, 232, 146);"/><text dy=".15em"/></g><g class="node" transform="translate(386.4810515007023, 171.53302027212075)"><circle r="8.75" style="fill: rgb(189, 232, 146);"/><text dy=".15em"/></g><g class="node" transform="translate(436.1882837553982, 161.62399265996882)"><circle r="8.75" style="fill: rgb(189, 232, 146);"/><text dy=".15em"/></g><g class="node" transform="translate(366.6009629541734, 195.36136970146242)"><circle r="8.75" style="fill: rgb(189, 232, 146);"/><text dy=".15em"/></g><g class="node" transform="translate(404.38394620281093, 162.75801905628407)"><circle r="8.75" style="fill: rgb(189, 232, 146);"/><text dy=".15em"/></g><g class="node" transform="translate(361.27082839166894, 221.13790194551137)"><circle r="8.75" style="fill: rgb(189, 232, 146);"/><text dy=".15em"/></g><g class="node" transform="translate(378.8403678116109, 178.01144047362453)"><circle r="8.75" style="fill: rgb(189, 232, 146);"/><text dy=".15em"/></g><g class="node" transform="translate(424.9507164187541, 160.12558484214213)"><circle r="8.75" style="fill: rgb(189, 232, 146);"/><text dy=".15em"/></g><g class="node" transform="translate(362.6748880765617, 206.55198547811568)"><circle r="8.75" style="fill: rgb(189, 232, 146);"/><text dy=".15em"/></g><g class="node" transform="translate(395.04049939476835, 166.41537926665436)"><circle r="8.75" style="fill: rgb(189, 232, 146);"/><text dy=".15em"/></g><g class="node" transform="translate(447.00991104726756, 165.26479486478215)"><circle r="8.75" style="fill: rgb(189, 232, 146);"/><text dy=".15em"/></g><g class="node" transform="translate(372.0993303811718, 185.9305180323863)"><circle r="8.75" style="fill: rgb(189, 232, 146);"/><text dy=".15em"/></g><g class="node" transform="translate(414.3594444512712, 160.57880158573766)"><circle r="8.75" style="fill: rgb(189, 232, 146);"/><text dy=".15em"/></g><g class="node" transform="translate(705.9580892217938, 458.46550373603185)"><circle r="5" style="fill: rgb(230, 246, 213);"/><text dy=".15em"/></g><g class="node" transform="translate(720.5900872968751, 397.9510641298408)"><circle r="5" style="fill: rgb(230, 246, 213);"/><text dy=".15em"/></g><g class="node" transform="translate(721.0269331520633, 431.70874018086914)"><circle r="5" style="fill: rgb(230, 246, 213);"/><text dy=".15em"/></g><g class="node" transform="translate(692.2558494556779, 469.2161545538132)"><circle r="5" style="fill: rgb(230, 246, 213);"/><text dy=".15em"/></g><g class="node" transform="translate(723.1983020963374, 416.1431988154311)"><circle r="5" style="fill: rgb(230, 246, 213);"/><text dy=".15em"/></g><g class="node" transform="translate(715.2842718505116, 445.8688082168184)"><circle r="5" style="fill: rgb(230, 246, 213);"/><text dy=".15em"/></g><g class="node" transform="translate(254.74481696335698, 442.8459869398116)"><circle r="5" style="fill: rgb(246, 213, 213);"/><text dy=".15em"/></g><g class="node" transform="translate(311.9339055220257, 485.805359708653)"><circle r="5" style="fill: rgb(230, 246, 213);"/><text dy=".15em"/></g><g class="node" transform="translate(269.4181579593782, 467.27191158274655)"><circle r="5" style="fill: rgb(230, 246, 213);"/><text dy=".15em"/></g><g class="node" transform="translate(252.45781793223398, 415.04684045007247)"><circle r="5" style="fill: rgb(230, 246, 213);"/><text dy=".15em"/></g><g class="node" transform="translate(293.789991899917, 482.6662008976649)"><circle r="5" style="fill: rgb(230, 246, 213);"/><text dy=".15em"/></g><g class="node" transform="translate(261.0094705344139, 456.50814470351474)"><circle r="5" style="fill: rgb(230, 246, 213);"/><text dy=".15em"/></g><g class="node" transform="translate(256.38741719656474, 400.67102325184726)"><circle r="5" style="fill: rgb(230, 246, 213);"/><text dy=".15em"/></g><g class="node" transform="translate(280.35434228987356, 476.1907097181623)"><circle r="5" style="fill: rgb(230, 246, 213);"/><text dy=".15em"/></g><g class="node" transform="translate(252.00404630045827, 429.2472170461665)"><circle r="5" style="fill: rgb(230, 246, 213);"/><text dy=".15em"/></g><g class="node" transform="translate(265.2792191406501, 385.70577347111777)"><circle r="5" style="fill: rgb(230, 246, 213);"/><text dy=".15em"/></g><g class="node" transform="translate(394.3881660978973, 440.7168194961079)"><circle r="5" style="fill: rgb(230, 246, 213);"/><text dy=".15em"/></g><g class="node" transform="translate(447.51664241294117, 359.07786824449073)"><circle r="5" style="fill: rgb(230, 246, 213);"/><text dy=".15em"/></g><g class="node" transform="translate(639.4601829370728, 464.6425549464467)"><circle r="5" style="fill: rgb(230, 246, 213);"/><text dy=".15em"/></g><g class="node" transform="translate(625.4176530664517, 494.2994148962086)"><circle r="5" style="fill: rgb(230, 246, 213);"/><text dy=".15em"/></g><g class="node" transform="translate(410.7513739980025, 483.55209200839084)"><circle r="5" style="fill: rgb(230, 246, 213);"/><text dy=".15em"/></g><g class="node" transform="translate(460.98118206478983, 625.0243523740469)"><circle r="5" style="fill: rgb(230, 246, 213);"/><text dy=".15em"/></g></g>
  </svg>