<svg xmlns="http://www.w3.org/2000/svg" class="svg" width="1008" height="675" style="display: block;">
<defs><style type="text/css"><![CDATA[
:root { overflow: hidden; }
.svg { background-color: rgb(255, 255, 255); }
.node circle { cursor: pointer; stroke: rgb(255, 255, 255); stroke-width: 1.5px; }
.node text { font-size: 10px; pointer-events: none; text-anchor: middle; font-family: Roboto, sans-serif; font-weight: normal; font-style: normal; fill: rgb(0, 0, 0); }
line { fill: none; stroke: rgb(128, 128, 128); stroke-width: 0.5px; }]]></style></defs>
    <g><line class="link" x1="500.1208847831595" y1="536.9709305753998" x2="528.6078909874371" y2="445.72677598932694"/><line class="link" x1="528.6078909874371" y1="445.72677598932694" x2="513.2787349405679" y2="346.6571118123949"/><line class="link" x1="528.6078909874371" y1="445.72677598932694" x2="616.12319337" y2="429.8752813034881"/><line class="link" x1="513.2787349405679" y1="346.6571118123949" x2="440.2771792033798" y2="406.6116387253055"/><line class="link" x1="513.2787349405679" y1="346.6571118123949" x2="614.69093767233" y2="341.3463268802064"/><line class="link" x1="513.2787349405679" y1="346.6571118123949" x2="444.2498687204028" y2="434.841800783588"/><line class="link" x1="513.2787349405679" y1="346.6571118123949" x2="418.79539318521955" y2="364.24894440691475"/><line class="link" x1="513.2787349405679" y1="346.6571118123949" x2="419.1516739817488" y2="330.83026520255663"/><line class="link" x1="513.2787349405679" y1="346.6571118123949" x2="489.9751037556845" y2="438.6079464155101"/><line class="link" x1="513.2787349405679" y1="346.6571118123949" x2="441.5529038222105" y2="175.26137964455256"/><line class="link" x1="513.2787349405679" y1="346.6571118123949" x2="594.5976613678305" y2="509.98100125400083"/><line class="link" x1="616.12319337" y1="429.8752813034881" x2="515.1540699666858" y2="429.9904960114271"/><line class="link" x1="616.12319337" y1="429.8752813034881" x2="709.2297073578959" y2="454.6178620652377"/><line class="link" x1="614.69093767233" y1="341.3463268802064" x2="702.6406956299121" y2="378.21798672118484"/><line class="link" x1="614.69093767233" y1="341.3463268802064" x2="704.2287918634491" y2="308.6778109353492"/><line class="link" x1="614.69093767233" y1="341.3463268802064" x2="710.4476037435637" y2="344.8435059031655"/><line class="link" x1="444.2498687204028" y1="434.841800783588" x2="370.9878719416726" y2="498.42056313055247"/><line class="link" x1="444.2498687204028" y1="434.841800783588" x2="402.94876129389974" y2="522.98086027916"/><line class="link" x1="444.2498687204028" y1="434.841800783588" x2="354.27061242281485" y2="471.2007474878231"/><line class="link" x1="441.5529038222105" y1="175.26137964455256" x2="361.6015668459266" y2="117.39599447449334"/><line class="link" x1="441.5529038222105" y1="175.26137964455256" x2="530.9081168096176" y2="134.21279875492988"/><line class="link" x1="441.5529038222105" y1="175.26137964455256" x2="347.502366016684" y2="203.94538076815635"/><line class="link" x1="441.5529038222105" y1="175.26137964455256" x2="414.5681265441769" y2="80.73298243843543"/><line class="link" x1="441.5529038222105" y1="175.26137964455256" x2="512.7603358046498" y2="238.95666230653296"/><line class="link" x1="441.5529038222105" y1="175.26137964455256" x2="351.8622330628699" y2="133.89389875027882"/><line class="link" x1="441.5529038222105" y1="175.26137964455256" x2="497.31544528278107" y2="93.49128697636303"/><line class="link" x1="441.5529038222105" y1="175.26137964455256" x2="358.5117621662709" y2="227.04015051546241"/><line class="link" x1="441.5529038222105" y1="175.26137964455256" x2="397.14213281157515" y2="87.39241311926564"/><line class="link" x1="441.5529038222105" y1="175.26137964455256" x2="537.6602196491536" y2="157.50448671795917"/><line class="link" x1="441.5529038222105" y1="175.26137964455256" x2="343.179676154141" y2="182.37141181167803"/><line class="link" x1="441.5529038222105" y1="175.26137964455256" x2="461.7265290538493" y2="78.64178351127278"/><line class="link" x1="441.5529038222105" y1="175.26137964455256" x2="454.82424701809634" y2="269.2053345745687"/><line class="link" x1="441.5529038222105" y1="175.26137964455256" x2="367.04541552964275" y2="109.55832361796983"/><line class="link" x1="441.5529038222105" y1="175.26137964455256" x2="505.4911286524669" y2="99.39193980105843"/><line class="link" x1="441.5529038222105" y1="175.26137964455256" x2="366.6362488832326" y2="237.4003787800365"/><line class="link" x1="441.5529038222105" y1="175.26137964455256" x2="423.4677833465909" y2="77.01328245840432"/><line class="link" x1="441.5529038222105" y1="175.26137964455256" x2="534.3096453146314" y2="201.69155711565352"/><line class="link" x1="441.5529038222105" y1="175.26137964455256" x2="343.6396916622346" y2="161.8309229099316"/><line class="link" x1="441.5529038222105" y1="175.26137964455256" x2="479.9241179695475" y2="84.4314314269403"/><line class="link" x1="441.5529038222105" y1="175.26137964455256" x2="519.6710854228675" y2="114.71699260444804"/><line class="link" x1="441.5529038222105" y1="175.26137964455256" x2="381.13645220892795" y2="96.98105307236048"/><line class="link" x1="441.5529038222105" y1="175.26137964455256" x2="535.1059867336857" y2="145.6900456199187"/><line class="link" x1="441.5529038222105" y1="175.26137964455256" x2="344.53449177369873" y2="193.05739632839484"/><line class="link" x1="441.5529038222105" y1="175.26137964455256" x2="433.03603604971323" y2="76.67062716793734"/><line class="link" x1="441.5529038222105" y1="175.26137964455256" x2="489.7584714579593" y2="257.2232125620117"/><line class="link" x1="441.5529038222105" y1="175.26137964455256" x2="355.53498456476206" y2="124.87088375104241"/><line class="link" x1="441.5529038222105" y1="175.26137964455256" x2="512.7946280007554" y2="106.7495771603287"/><line class="link" x1="441.5529038222105" y1="175.26137964455256" x2="377.80972239879395" y2="248.15863091373237"/><line class="link" x1="441.5529038222105" y1="175.26137964455256" x2="405.0836899573791" y2="81.82189284061387"/><line class="link" x1="441.5529038222105" y1="175.26137964455256" x2="537.9941996632641" y2="184.721709639476"/><line class="link" x1="441.5529038222105" y1="175.26137964455256" x2="345.107129242264" y2="152.26849149718726"/><line class="link" x1="441.5529038222105" y1="175.26137964455256" x2="471.20724814924256" y2="79.93535389206298"/><line class="link" x1="441.5529038222105" y1="175.26137964455256" x2="416.4720486354298" y2="267.22150446113505"/><line class="link" x1="441.5529038222105" y1="175.26137964455256" x2="373.8447102450878" y2="102.73822424522577"/><line class="link" x1="441.5529038222105" y1="175.26137964455256" x2="525.8255009156024" y2="124.01887611032842"/><line class="link" x1="441.5529038222105" y1="175.26137964455256" x2="352.09279565223244" y2="215.16865468167046"/><line class="link" x1="441.5529038222105" y1="175.26137964455256" x2="442.59884493538704" y2="75.84167280209168"/><line class="link" x1="441.5529038222105" y1="175.26137964455256" x2="526.488372886159" y2="220.05987828479462"/><line class="link" x1="441.5529038222105" y1="175.26137964455256" x2="347.71268396104864" y2="142.83322269775553"/><line class="link" x1="441.5529038222105" y1="175.26137964455256" x2="489.09202372977063" y2="87.7035933725237"/><line class="link" x1="441.5529038222105" y1="175.26137964455256" x2="392.8680214787521" y2="258.2190425888376"/><line class="link" x1="441.5529038222105" y1="175.26137964455256" x2="388.08226029592504" y2="90.52828562900372"/><line class="link" x1="441.5529038222105" y1="175.26137964455256" x2="538.7633276333248" y2="170.49427823176597"/><line class="link" x1="441.5529038222105" y1="175.26137964455256" x2="342.6316629995593" y2="171.8680915773742"/><line class="link" x1="441.5529038222105" y1="175.26137964455256" x2="452.4311110745238" y2="76.3370011478946"/><line class="link" x1="594.5976613678305" y1="509.98100125400083" x2="654.3793691608115" y2="588.1036134519985"/><line class="link" x1="594.5976613678305" y1="509.98100125400083" x2="536.0423553712225" y2="587.1071038210587"/><line class="link" x1="594.5976613678305" y1="509.98100125400083" x2="678.2860345042568" y2="561.2839674296746"/><line class="link" x1="594.5976613678305" y1="509.98100125400083" x2="611.5179676684921" y2="606.8071876429327"/><line class="link" x1="594.5976613678305" y1="509.98100125400083" x2="549.8373549661464" y2="596.3025861160045"/><line class="link" x1="594.5976613678305" y1="509.98100125400083" x2="644.5996812381287" y2="594.741533319297"/><line class="link" x1="594.5976613678305" y1="509.98100125400083" x2="575.5901668874094" y2="605.9876955114627"/><line class="link" x1="594.5976613678305" y1="509.98100125400083" x2="688.2570331806617" y2="537.5815651748022"/><line class="link" x1="594.5976613678305" y1="509.98100125400083" x2="634.0234742154604" y2="600.1080419795778"/><line class="link" x1="594.5976613678305" y1="509.98100125400083" x2="521.6935371313649" y2="572.6435287931273"/><line class="link" x1="594.5976613678305" y1="509.98100125400083" x2="671.4271080054273" y2="571.3883720415541"/><line class="link" x1="594.5976613678305" y1="509.98100125400083" x2="599.3324272322042" y2="608.1286461058729"/><line class="link" x1="594.5976613678305" y1="509.98100125400083" x2="690.8378989617044" y2="523.8776299757474"/><line class="link" x1="594.5976613678305" y1="509.98100125400083" x2="691.1989664836566" y2="508.13757903534935"/><line class="link" x1="594.5976613678305" y1="509.98100125400083" x2="563.3792270144064" y2="602.5143220056879"/><line class="link" x1="594.5976613678305" y1="509.98100125400083" x2="684.2329942937881" y2="549.5794134336456"/><line class="link" x1="594.5976613678305" y1="509.98100125400083" x2="623.0196280054948" y2="604.2472432247231"/><line class="link" x1="594.5976613678305" y1="509.98100125400083" x2="686.9043119048486" y2="486.22409894523685"/><line class="link" x1="594.5976613678305" y1="509.98100125400083" x2="663.3387678451008" y2="580.3487307119708"/><line class="link" x1="594.5976613678305" y1="509.98100125400083" x2="587.6045043577988" y2="607.8038987586895"/><line class="link" x1="515.1540699666858" y1="429.9904960114271" x2="657.9301850228308" y2="306.62825271215667"/><line class="link" x1="515.1540699666858" y1="429.9904960114271" x2="452.41009564881534" y2="570.8076050413459"/><line class="link" x1="515.1540699666858" y1="429.9904960114271" x2="399.06661963183404" y2="423.115548916297"/><line class="link" x1="515.1540699666858" y1="429.9904960114271" x2="676.4196663539476" y2="427.2230291497534"/><line class="link" x1="515.1540699666858" y1="429.9904960114271" x2="413.3553452819126" y2="499.87642283055976"/><line class="link" x1="515.1540699666858" y1="429.9904960114271" x2="438.65644821867687" y2="370.4563614083767"/><line class="link" x1="515.1540699666858" y1="429.9904960114271" x2="465.7842970003978" y2="516.1532390047026"/><line class="link" x1="515.1540699666858" y1="429.9904960114271" x2="353.3060257719603" y2="437.15657445713043"/><line class="link" x1="657.9301850228308" y1="306.62825271215667" x2="741.7459487648314" y2="254.20312415317122"/><line class="link" x1="657.9301850228308" y1="306.62825271215667" x2="754.2231948543111" y2="324.6113689788537"/><line class="link" x1="657.9301850228308" y1="306.62825271215667" x2="716.0942621285047" y2="226.86203492824652"/><line class="link" x1="657.9301850228308" y1="306.62825271215667" x2="752.3447050933239" y2="277.34787148651304"/><line class="link" x1="657.9301850228308" y1="306.62825271215667" x2="676.3951475577309" y2="210.74954450530038"/><line class="link" x1="657.9301850228308" y1="306.62825271215667" x2="734.8528542830691" y2="244.52983986845624"/><line class="link" x1="657.9301850228308" y1="306.62825271215667" x2="756.4199791315338" y2="306.47696761441836"/><line class="link" x1="657.9301850228308" y1="306.62825271215667" x2="704.6709562344822" y2="219.9574967886744"/><line class="link" x1="657.9301850228308" y1="306.62825271215667" x2="747.7998234692919" y2="265.3937143730734"/><line class="link" x1="657.9301850228308" y1="306.62825271215667" x2="657.7838307498154" y2="209.67910674075821"/><line class="link" x1="657.9301850228308" y1="306.62825271215667" x2="725.5891307388608" y2="234.64550185873054"/><line class="link" x1="657.9301850228308" y1="306.62825271215667" x2="755.4199906423048" y2="291.1172570416907"/><line class="link" x1="657.9301850228308" y1="306.62825271215667" x2="692.1330179397108" y2="214.58044292401186"/><line class="link" x1="452.41009564881534" y1="570.8076050413459" x2="445.74397361889936" y2="668.3001194309547"/><line class="link" x1="452.41009564881534" y1="570.8076050413459" x2="424.009520846112" y2="664.4517268934658"/><line class="link" x1="452.41009564881534" y1="570.8076050413459" x2="371.2565847541763" y2="625.7245696998342"/><line class="link" x1="452.41009564881534" y1="570.8076050413459" x2="404.2897484460941" y2="656.1423895280412"/><line class="link" x1="452.41009564881534" y1="570.8076050413459" x2="386.6520576517495" y2="643.5252988835101"/><line class="link" x1="452.41009564881534" y1="570.8076050413459" x2="470.4307835815489" y2="666.7298466148732"/><line class="link" x1="399.06661963183404" y1="423.115548916297" x2="302.72610271727103" y2="435.12212893503363"/><line class="link" x1="399.06661963183404" y1="423.115548916297" x2="303.808596817197" y2="401.6427327095463"/><line class="link" x1="399.06661963183404" y1="423.115548916297" x2="311.9847476325046" y2="377.98702971845756"/><line class="link" x1="676.4196663539476" y1="427.2230291497534" x2="764.1218464591095" y2="471.9990019965899"/><line class="link" x1="676.4196663539476" y1="427.2230291497534" x2="768.9493019326421" y2="394.22221890992324"/><line class="link" x1="676.4196663539476" y1="427.2230291497534" x2="774.108513089805" y2="440.62907375863927"/><line class="link" x1="676.4196663539476" y1="427.2230291497534" x2="754.0218936238531" y2="487.6826144108"/><line class="link" x1="676.4196663539476" y1="427.2230291497534" x2="773.2479617542122" y2="409.65920657505313"/><line class="link" x1="676.4196663539476" y1="427.2230291497534" x2="770.6626111028978" y2="456.12837430381984"/><line class="link" x1="676.4196663539476" y1="427.2230291497534" x2="760.7799622945522" y2="378.09387081156683"/><line class="link" x1="676.4196663539476" y1="427.2230291497534" x2="775.0091265518076" y2="424.8703698681786"/><line class="link" x1="413.3553452819126" y1="499.87642283055976" x2="337.8131212082197" y2="563.1160813319101"/><line class="link" x1="413.3553452819126" y1="499.87642283055976" x2="318.42788539458087" y2="525.3656735552173"/><line class="link" x1="413.3553452819126" y1="499.87642283055976" x2="354.480571547149" y2="578.2472508434911"/><line class="link" x1="413.3553452819126" y1="499.87642283055976" x2="326.3035686707441" y2="546.1988853432488"/><line class="link" x1="438.65644821867687" y1="370.4563614083767" x2="343.4649497514843" y2="346.5743462266291"/><line class="link" x1="465.7842970003978" y1="516.1532390047026" x2="414.9513344880203" y2="599.0246681893587"/><line class="link" x1="353.3060257719603" y1="437.15657445713043" x2="255.5947444898387" y2="420.4253199193015"/><line class="link" x1="353.3060257719603" y1="437.15657445713043" x2="274.69650191778845" y2="496.64372614610414"/><line class="link" x1="353.3060257719603" y1="437.15657445713043" x2="256.84452573338706" y2="459.42843084899766"/><line class="link" x1="353.3060257719603" y1="437.15657445713043" x2="262.12633852289764" y2="398.4437478817119"/><line class="link" x1="353.3060257719603" y1="437.15657445713043" x2="263.3875576215471" y2="478.1088056404864"/><line class="link" x1="353.3060257719603" y1="437.15657445713043" x2="254.25131433298728" y2="440.381611587608"/><g class="node" transform="translate(500.1208847831595, 536.9709305753998)"><circle r="20" style="fill: rgb(69, 114, 24);"/><text dy=".15em">/</text></g><g class="node" transform="translate(528.6078909874371, 445.72677598932694)"><circle r="17" style="fill: rgb(102, 168, 36);"/><text dy=".15em">https/</text></g><g class="node" transform="translate(513.2787349405679, 346.6571118123949)"><circle r="14" style="fill: rgb(133, 212, 53);"/><text dy=".15em">metagame.wtf/</text></g><g class="node" transform="translate(616.12319337, 429.8752813034881)"><circle r="14" style="fill: rgb(133, 212, 53);"/><text dy=".15em">wiki.metagame.wtf/</text></g><g class="node" transform="translate(440.2771792033798, 406.6116387253055)"><circle r="11" style="fill: rgb(166, 224, 108);"/><text dy=".15em"/></g><g class="node" transform="translate(614.69093767233, 341.3463268802064)"><circle r="11" style="fill: rgb(166, 224, 108);"/><text dy=".15em"/></g><g class="node" transform="translate(444.2498687204028, 434.841800783588)"><circle r="11" style="fill: rgb(166, 224, 108);"/><text dy=".15em"/></g><g class="node" transform="translate(418.79539318521955, 364.24894440691475)"><circle r="11" style="fill: rgb(166, 224, 108);"/><text dy=".15em"/></g><g class="node" transform="translate(419.1516739817488, 330.83026520255663)"><circle r="11" style="fill: rgb(166, 224, 108);"/><text dy=".15em"/></g><g class="node" transform="translate(489.9751037556845, 438.6079464155101)"><circle r="11" style="fill: rgb(166, 224, 108);"/><text dy=".15em"/></g><g class="node" transform="translate(441.5529038222105, 175.26137964455256)"><circle r="11" style="fill: rgb(166, 224, 108);"/><text dy=".15em"/></g><g class="node" transform="translate(594.5976613678305, 509.98100125400083)"><circle r="11" style="fill: rgb(166, 224, 108);"/><text dy=".15em"/></g><g class="node" transform="translate(515.1540699666858, 429.9904960114271)"><circle r="11" style="fill: rgb(166, 224, 108);"/><text dy=".15em"/></g><g class="node" transform="translate(709.2297073578959, 454.6178620652377)"><circle r="11" style="fill: rgb(166, 224, 108);"/><text dy=".15em"/></g><g class="node" transform="translate(702.6406956299121, 378.21798672118484)"><circle r="8" style="fill: rgb(196, 234, 158);"/><text dy=".15em"/></g><g class="node" transform="translate(704.2287918634491, 308.6778109353492)"><circle r="8" style="fill: rgb(196, 234, 158);"/><text dy=".15em"/></g><g class="node" transform="translate(710.4476037435637, 344.8435059031655)"><circle r="8" style="fill: rgb(196, 234, 158);"/><text dy=".15em"/></g><g class="node" transform="translate(370.9878719416726, 498.42056313055247)"><circle r="8" style="fill: rgb(196, 234, 158);"/><text dy=".15em"/></g><g class="node" transform="translate(402.94876129389974, 522.98086027916)"><circle r="8" style="fill: rgb(196, 234, 158);"/><text dy=".15em"/></g><g class="node" transform="translate(354.27061242281485, 471.2007474878231)"><circle r="8" style="fill: rgb(196, 234, 158);"/><text dy=".15em"/></g><g class="node" transform="translate(361.6015668459266, 117.39599447449334)"><circle r="8" style="fill: rgb(196, 234, 158);"/><text dy=".15em"/></g><g class="node" transform="translate(530.9081168096176, 134.21279875492988)"><circle r="8" style="fill: rgb(196, 234, 158);"/><text dy=".15em"/></g><g class="node" transform="translate(347.502366016684, 203.94538076815635)"><circle r="8" style="fill: rgb(196, 234, 158);"/><text dy=".15em"/></g><g class="node" transform="translate(414.5681265441769, 80.73298243843543)"><circle r="8" style="fill: rgb(196, 234, 158);"/><text dy=".15em"/></g><g class="node" transform="translate(512.7603358046498, 238.95666230653296)"><circle r="8" style="fill: rgb(196, 234, 158);"/><text dy=".15em"/></g><g class="node" transform="translate(351.8622330628699, 133.89389875027882)"><circle r="8" style="fill: rgb(196, 234, 158);"/><text dy=".15em"/></g><g class="node" transform="translate(497.31544528278107, 93.49128697636303)"><circle r="8" style="fill: rgb(196, 234, 158);"/><text dy=".15em"/></g><g class="node" transform="translate(358.5117621662709, 227.04015051546241)"><circle r="8" style="fill: rgb(196, 234, 158);"/><text dy=".15em"/></g><g class="node" transform="translate(397.14213281157515, 87.39241311926564)"><circle r="8" style="fill: rgb(196, 234, 158);"/><text dy=".15em"/></g><g class="node" transform="translate(537.6602196491536, 157.50448671795917)"><circle r="8" style="fill: rgb(196, 234, 158);"/><text dy=".15em"/></g><g class="node" transform="translate(343.179676154141, 182.37141181167803)"><circle r="8" style="fill: rgb(196, 234, 158);"/><text dy=".15em"/></g><g class="node" transform="translate(461.7265290538493, 78.64178351127278)"><circle r="8" style="fill: rgb(196, 234, 158);"/><text dy=".15em"/></g><g class="node" transform="translate(454.82424701809634, 269.2053345745687)"><circle r="8" style="fill: rgb(196, 234, 158);"/><text dy=".15em"/></g><g class="node" transform="translate(367.04541552964275, 109.55832361796983)"><circle r="8" style="fill: rgb(196, 234, 158);"/><text dy=".15em"/></g><g class="node" transform="translate(505.4911286524669, 99.39193980105843)"><circle r="8" style="fill: rgb(196, 234, 158);"/><text dy=".15em"/></g><g class="node" transform="translate(366.6362488832326, 237.4003787800365)"><circle r="8" style="fill: rgb(196, 234, 158);"/><text dy=".15em"/></g><g class="node" transform="translate(423.4677833465909, 77.01328245840432)"><circle r="8" style="fill: rgb(196, 234, 158);"/><text dy=".15em"/></g><g class="node" transform="translate(534.3096453146314, 201.69155711565352)"><circle r="8" style="fill: rgb(196, 234, 158);"/><text dy=".15em"/></g><g class="node" transform="translate(343.6396916622346, 161.8309229099316)"><circle r="8" style="fill: rgb(196, 234, 158);"/><text dy=".15em"/></g><g class="node" transform="translate(479.9241179695475, 84.4314314269403)"><circle r="8" style="fill: rgb(196, 234, 158);"/><text dy=".15em"/></g><g class="node" transform="translate(519.6710854228675, 114.71699260444804)"><circle r="8" style="fill: rgb(196, 234, 158);"/><text dy=".15em"/></g><g class="node" transform="translate(381.13645220892795, 96.98105307236048)"><circle r="8" style="fill: rgb(196, 234, 158);"/><text dy=".15em"/></g><g class="node" transform="translate(535.1059867336857, 145.6900456199187)"><circle r="8" style="fill: rgb(196, 234, 158);"/><text dy=".15em"/></g><g class="node" transform="translate(344.53449177369873, 193.05739632839484)"><circle r="8" style="fill: rgb(196, 234, 158);"/><text dy=".15em"/></g><g class="node" transform="translate(433.03603604971323, 76.67062716793734)"><circle r="8" style="fill: rgb(196, 234, 158);"/><text dy=".15em"/></g><g class="node" transform="translate(489.7584714579593, 257.2232125620117)"><circle r="8" style="fill: rgb(196, 234, 158);"/><text dy=".15em"/></g><g class="node" transform="translate(355.53498456476206, 124.87088375104241)"><circle r="8" style="fill: rgb(196, 234, 158);"/><text dy=".15em"/></g><g class="node" transform="translate(512.7946280007554, 106.7495771603287)"><circle r="8" style="fill: rgb(196, 234, 158);"/><text dy=".15em"/></g><g class="node" transform="translate(377.80972239879395, 248.15863091373237)"><circle r="8" style="fill: rgb(196, 234, 158);"/><text dy=".15em"/></g><g class="node" transform="translate(405.0836899573791, 81.82189284061387)"><circle r="8" style="fill: rgb(196, 234, 158);"/><text dy=".15em"/></g><g class="node" transform="translate(537.9941996632641, 184.721709639476)"><circle r="8" style="fill: rgb(196, 234, 158);"/><text dy=".15em"/></g><g class="node" transform="translate(345.107129242264, 152.26849149718726)"><circle r="8" style="fill: rgb(196, 234, 158);"/><text dy=".15em"/></g><g class="node" transform="translate(471.20724814924256, 79.93535389206298)"><circle r="8" style="fill: rgb(196, 234, 158);"/><text dy=".15em"/></g><g class="node" transform="translate(416.4720486354298, 267.22150446113505)"><circle r="8" style="fill: rgb(196, 234, 158);"/><text dy=".15em"/></g><g class="node" transform="translate(373.8447102450878, 102.73822424522577)"><circle r="8" style="fill: rgb(196, 234, 158);"/><text dy=".15em"/></g><g class="node" transform="translate(525.8255009156024, 124.01887611032842)"><circle r="8" style="fill: rgb(196, 234, 158);"/><text dy=".15em"/></g><g class="node" transform="translate(352.09279565223244, 215.16865468167046)"><circle r="8" style="fill: rgb(196, 234, 158);"/><text dy=".15em"/></g><g class="node" transform="translate(442.59884493538704, 75.84167280209168)"><circle r="8" style="fill: rgb(196, 234, 158);"/><text dy=".15em"/></g><g class="node" transform="translate(526.488372886159, 220.05987828479462)"><circle r="8" style="fill: rgb(196, 234, 158);"/><text dy=".15em"/></g><g class="node" transform="translate(347.71268396104864, 142.83322269775553)"><circle r="8" style="fill: rgb(196, 234, 158);"/><text dy=".15em"/></g><g class="node" transform="translate(489.09202372977063, 87.7035933725237)"><circle r="8" style="fill: rgb(196, 234, 158);"/><text dy=".15em"/></g><g class="node" transform="translate(392.8680214787521, 258.2190425888376)"><circle r="8" style="fill: rgb(196, 234, 158);"/><text dy=".15em"/></g><g class="node" transform="translate(388.08226029592504, 90.52828562900372)"><circle r="8" style="fill: rgb(196, 234, 158);"/><text dy=".15em"/></g><g class="node" transform="translate(538.7633276333248, 170.49427823176597)"><circle r="8" style="fill: rgb(196, 234, 158);"/><text dy=".15em"/></g><g class="node" transform="translate(342.6316629995593, 171.8680915773742)"><circle r="8" style="fill: rgb(196, 234, 158);"/><text dy=".15em"/></g><g class="node" transform="translate(452.4311110745238, 76.3370011478946)"><circle r="8" style="fill: rgb(196, 234, 158);"/><text dy=".15em"/></g><g class="node" transform="translate(654.3793691608115, 588.1036134519985)"><circle r="8" style="fill: rgb(196, 234, 158);"/><text dy=".15em"/></g><g class="node" transform="translate(536.0423553712225, 587.1071038210587)"><circle r="8" style="fill: rgb(196, 234, 158);"/><text dy=".15em"/></g><g class="node" transform="translate(678.2860345042568, 561.2839674296746)"><circle r="8" style="fill: rgb(196, 234, 158);"/><text dy=".15em"/></g><g class="node" transform="translate(611.5179676684921, 606.8071876429327)"><circle r="8" style="fill: rgb(196, 234, 158);"/><text dy=".15em"/></g><g class="node" transform="translate(549.8373549661464, 596.3025861160045)"><circle r="8" style="fill: rgb(196, 234, 158);"/><text dy=".15em"/></g><g class="node" transform="translate(644.5996812381287, 594.741533319297)"><circle r="8" style="fill: rgb(196, 234, 158);"/><text dy=".15em"/></g><g class="node" transform="translate(575.5901668874094, 605.9876955114627)"><circle r="8" style="fill: rgb(196, 234, 158);"/><text dy=".15em"/></g><g class="node" transform="translate(688.2570331806617, 537.5815651748022)"><circle r="8" style="fill: rgb(196, 234, 158);"/><text dy=".15em"/></g><g class="node" transform="translate(634.0234742154604, 600.1080419795778)"><circle r="8" style="fill: rgb(196, 234, 158);"/><text dy=".15em"/></g><g class="node" transform="translate(521.6935371313649, 572.6435287931273)"><circle r="8" style="fill: rgb(196, 234, 158);"/><text dy=".15em"/></g><g class="node" transform="translate(671.4271080054273, 571.3883720415541)"><circle r="8" style="fill: rgb(196, 234, 158);"/><text dy=".15em"/></g><g class="node" transform="translate(599.3324272322042, 608.1286461058729)"><circle r="8" style="fill: rgb(196, 234, 158);"/><text dy=".15em"/></g><g class="node" transform="translate(690.8378989617044, 523.8776299757474)"><circle r="8" style="fill: rgb(196, 234, 158);"/><text dy=".15em"/></g><g class="node" transform="translate(691.1989664836566, 508.13757903534935)"><circle r="8" style="fill: rgb(196, 234, 158);"/><text dy=".15em"/></g><g class="node" transform="translate(563.3792270144064, 602.5143220056879)"><circle r="8" style="fill: rgb(196, 234, 158);"/><text dy=".15em"/></g><g class="node" transform="translate(684.2329942937881, 549.5794134336456)"><circle r="8" style="fill: rgb(196, 234, 158);"/><text dy=".15em"/></g><g class="node" transform="translate(623.0196280054948, 604.2472432247231)"><circle r="8" style="fill: rgb(196, 234, 158);"/><text dy=".15em"/></g><g class="node" transform="translate(686.9043119048486, 486.22409894523685)"><circle r="8" style="fill: rgb(196, 234, 158);"/><text dy=".15em"/></g><g class="node" transform="translate(663.3387678451008, 580.3487307119708)"><circle r="8" style="fill: rgb(196, 234, 158);"/><text dy=".15em"/></g><g class="node" transform="translate(587.6045043577988, 607.8038987586895)"><circle r="8" style="fill: rgb(196, 234, 158);"/><text dy=".15em"/></g><g class="node" transform="translate(657.9301850228308, 306.62825271215667)"><circle r="8" style="fill: rgb(196, 234, 158);"/><text dy=".15em"/></g><g class="node" transform="translate(452.41009564881534, 570.8076050413459)"><circle r="8" style="fill: rgb(196, 234, 158);"/><text dy=".15em"/></g><g class="node" transform="translate(399.06661963183404, 423.115548916297)"><circle r="8" style="fill: rgb(196, 234, 158);"/><text dy=".15em"/></g><g class="node" transform="translate(676.4196663539476, 427.2230291497534)"><circle r="8" style="fill: rgb(196, 234, 158);"/><text dy=".15em"/></g><g class="node" transform="translate(413.3553452819126, 499.87642283055976)"><circle r="8" style="fill: rgb(196, 234, 158);"/><text dy=".15em"/></g><g class="node" transform="translate(438.65644821867687, 370.4563614083767)"><circle r="8" style="fill: rgb(196, 234, 158);"/><text dy=".15em"/></g><g class="node" transform="translate(465.7842970003978, 516.1532390047026)"><circle r="8" style="fill: rgb(196, 234, 158);"/><text dy=".15em"/></g><g class="node" transform="translate(353.3060257719603, 437.15657445713043)"><circle r="8" style="fill: rgb(196, 234, 158);"/><text dy=".15em"/></g><g class="node" transform="translate(741.7459487648314, 254.20312415317122)"><circle r="5" style="fill: rgb(230, 246, 213);"/><text dy=".15em"/></g><g class="node" transform="translate(754.2231948543111, 324.6113689788537)"><circle r="5" style="fill: rgb(230, 246, 213);"/><text dy=".15em"/></g><g class="node" transform="translate(716.0942621285047, 226.86203492824652)"><circle r="5" style="fill: rgb(230, 246, 213);"/><text dy=".15em"/></g><g class="node" transform="translate(752.3447050933239, 277.34787148651304)"><circle r="5" style="fill: rgb(230, 246, 213);"/><text dy=".15em"/></g><g class="node" transform="translate(676.3951475577309, 210.74954450530038)"><circle r="5" style="fill: rgb(230, 246, 213);"/><text dy=".15em"/></g><g class="node" transform="translate(734.8528542830691, 244.52983986845624)"><circle r="5" style="fill: rgb(230, 246, 213);"/><text dy=".15em"/></g><g class="node" transform="translate(756.4199791315338, 306.47696761441836)"><circle r="5" style="fill: rgb(230, 246, 213);"/><text dy=".15em"/></g><g class="node" transform="translate(704.6709562344822, 219.9574967886744)"><circle r="5" style="fill: rgb(230, 246, 213);"/><text dy=".15em"/></g><g class="node" transform="translate(747.7998234692919, 265.3937143730734)"><circle r="5" style="fill: rgb(230, 246, 213);"/><text dy=".15em"/></g><g class="node" transform="translate(657.7838307498154, 209.67910674075821)"><circle r="5" style="fill: rgb(230, 246, 213);"/><text dy=".15em"/></g><g class="node" transform="translate(725.5891307388608, 234.64550185873054)"><circle r="5" style="fill: rgb(230, 246, 213);"/><text dy=".15em"/></g><g class="node" transform="translate(755.4199906423048, 291.1172570416907)"><circle r="5" style="fill: rgb(230, 246, 213);"/><text dy=".15em"/></g><g class="node" transform="translate(692.1330179397108, 214.58044292401186)"><circle r="5" style="fill: rgb(230, 246, 213);"/><text dy=".15em"/></g><g class="node" transform="translate(445.74397361889936, 668.3001194309547)"><circle r="5" style="fill: rgb(230, 246, 213);"/><text dy=".15em"/></g><g class="node" transform="translate(424.009520846112, 664.4517268934658)"><circle r="5" style="fill: rgb(230, 246, 213);"/><text dy=".15em"/></g><g class="node" transform="translate(371.2565847541763, 625.7245696998342)"><circle r="5" style="fill: rgb(230, 246, 213);"/><text dy=".15em"/></g><g class="node" transform="translate(404.2897484460941, 656.1423895280412)"><circle r="5" style="fill: rgb(230, 246, 213);"/><text dy=".15em"/></g><g class="node" transform="translate(386.6520576517495, 643.5252988835101)"><circle r="5" style="fill: rgb(230, 246, 213);"/><text dy=".15em"/></g><g class="node" transform="translate(470.4307835815489, 666.7298466148732)"><circle r="5" style="fill: rgb(230, 246, 213);"/><text dy=".15em"/></g><g class="node" transform="translate(302.72610271727103, 435.12212893503363)"><circle r="5" style="fill: rgb(230, 246, 213);"/><text dy=".15em"/></g><g class="node" transform="translate(303.808596817197, 401.6427327095463)"><circle r="5" style="fill: rgb(230, 246, 213);"/><text dy=".15em"/></g><g class="node" transform="translate(311.9847476325046, 377.98702971845756)"><circle r="5" style="fill: rgb(230, 246, 213);"/><text dy=".15em"/></g><g class="node" transform="translate(764.1218464591095, 471.9990019965899)"><circle r="5" style="fill: rgb(246, 213, 213);"/><text dy=".15em"/></g><g class="node" transform="translate(768.9493019326421, 394.22221890992324)"><circle r="5" style="fill: rgb(230, 246, 213);"/><text dy=".15em"/></g><g class="node" transform="translate(774.108513089805, 440.62907375863927)"><circle r="5" style="fill: rgb(230, 246, 213);"/><text dy=".15em"/></g><g class="node" transform="translate(754.0218936238531, 487.6826144108)"><circle r="5" style="fill: rgb(230, 246, 213);"/><text dy=".15em"/></g><g class="node" transform="translate(773.2479617542122, 409.65920657505313)"><circle r="5" style="fill: rgb(230, 246, 213);"/><text dy=".15em"/></g><g class="node" transform="translate(770.6626111028978, 456.12837430381984)"><circle r="5" style="fill: rgb(230, 246, 213);"/><text dy=".15em"/></g><g class="node" transform="translate(760.7799622945522, 378.09387081156683)"><circle r="5" style="fill: rgb(230, 246, 213);"/><text dy=".15em"/></g><g class="node" transform="translate(775.0091265518076, 424.8703698681786)"><circle r="5" style="fill: rgb(230, 246, 213);"/><text dy=".15em"/></g><g class="node" transform="translate(337.8131212082197, 563.1160813319101)"><circle r="5" style="fill: rgb(230, 246, 213);"/><text dy=".15em"/></g><g class="node" transform="translate(318.42788539458087, 525.3656735552173)"><circle r="5" style="fill: rgb(230, 246, 213);"/><text dy=".15em"/></g><g class="node" transform="translate(354.480571547149, 578.2472508434911)"><circle r="5" style="fill: rgb(246, 213, 213);"/><text dy=".15em"/></g><g class="node" transform="translate(326.3035686707441, 546.1988853432488)"><circle r="5" style="fill: rgb(230, 246, 213);"/><text dy=".15em"/></g><g class="node" transform="translate(343.4649497514843, 346.5743462266291)"><circle r="5" style="fill: rgb(230, 246, 213);"/><text dy=".15em"/></g><g class="node" transform="translate(414.9513344880203, 599.0246681893587)"><circle r="5" style="fill: rgb(230, 246, 213);"/><text dy=".15em"/></g><g class="node" transform="translate(255.5947444898387, 420.4253199193015)"><circle r="5" style="fill: rgb(230, 246, 213);"/><text dy=".15em"/></g><g class="node" transform="translate(274.69650191778845, 496.64372614610414)"><circle r="5" style="fill: rgb(230, 246, 213);"/><text dy=".15em"/></g><g class="node" transform="translate(256.84452573338706, 459.42843084899766)"><circle r="5" style="fill: rgb(230, 246, 213);"/><text dy=".15em"/></g><g class="node" transform="translate(262.12633852289764, 398.4437478817119)"><circle r="5" style="fill: rgb(230, 246, 213);"/><text dy=".15em"/></g><g class="node" transform="translate(263.3875576215471, 478.1088056404864)"><circle r="5" style="fill: rgb(230, 246, 213);"/><text dy=".15em"/></g><g class="node" transform="translate(254.25131433298728, 440.381611587608)"><circle r="5" style="fill: rgb(230, 246, 213);"/><text dy=".15em"/></g></g>
  </svg>