<svg xmlns="http://www.w3.org/2000/svg" xmlns:xlink="http://www.w3.org/1999/xlink" width="311" height="258" font-size="8.000000pt" font-family="Arial" fill="#000000"><a href="https://metagame.wtf/" aria-label="MetaGame" target="_top"><polygon points="40.500000,160.500000 40.500000,32.500000 104.500000,64.500000 104.500000,192.500000 " fill="#00b03b" stroke="#000000" stroke-width="1"/><polygon points="168.500000,160.500000 168.500000,32.500000 104.500000,64.500000 104.500000,192.500000 " fill="#007d08" stroke="#000000" stroke-width="1"/><polygon points="40.500000,32.500000 104.500000,0.500000 168.500000,32.500000 104.500000,64.500000 " fill="#33e36e" stroke="#000000" stroke-width="1"/></a><a href="https://metagame.wtf/dashboard" aria-label="MetaGame Dashboard" target="_top"><polygon points="136.500000,176.500000 136.500000,112.500000 168.500000,128.500000 168.500000,192.500000 " fill="#009f62" stroke="#000000" stroke-width="1"/><polygon points="200.500000,176.500000 200.500000,112.500000 168.500000,128.500000 168.500000,192.500000 " fill="#006c2f" stroke="#000000" stroke-width="1"/><polygon points="136.500000,112.500000 168.500000,96.500000 200.500000,112.500000 168.500000,128.500000 " fill="#33d295" stroke="#000000" stroke-width="1"/></a><a href="map1.htm" aria-label="Link to sub map 1"><polygon points="168.500000,96.500000 180.500000,102.500000 168.500000,108.500000 156.500000,102.500000 " fill="#ffff00" stroke="#000000" stroke-width="1"/><line stroke="#000000" stroke-width="1" x1="165.5" y1="102.5" x2="172.5" y2="102.5"/><line stroke="#000000" stroke-width="1" x1="168.5" y1="99.5" x2="168.5" y2="106.5"/></a><a href="https://metagame.wtf/community/guilds" aria-label="Unvisited" target="_top"><polygon points="120.500000,184.500000 120.500000,152.500000 136.500000,160.500000 136.500000,192.500000 " fill="#00a49e" stroke="#000000" stroke-width="1"/><polygon points="152.500000,184.500000 152.500000,152.500000 136.500000,160.500000 136.500000,192.500000 " fill="#00716b" stroke="#000000" stroke-width="1"/><polygon points="120.500000,152.500000 136.500000,144.500000 152.500000,152.500000 136.500000,160.500000 " fill="#33d7d1" stroke="#000000" stroke-width="1"/></a><a href="https://metagame.wtf/community/events" aria-label="Unvisited" target="_top"><polygon points="184.500000,184.500000 184.500000,152.500000 200.500000,160.500000 200.500000,192.500000 " fill="#00a49e" stroke="#000000" stroke-width="1"/><polygon points="216.500000,184.500000 216.500000,152.500000 200.500000,160.500000 200.500000,192.500000 " fill="#00716b" stroke="#000000" stroke-width="1"/><polygon points="184.500000,152.500000 200.500000,144.500000 216.500000,152.500000 200.500000,160.500000 " fill="#33d7d1" stroke="#000000" stroke-width="1"/></a><a href="https://forum.metagame.wtf/" aria-label="Unvisited" target="_top"><polygon points="168.500000,192.500000 168.500000,160.500000 184.500000,168.500000 184.500000,200.500000 " fill="#00a49e" stroke="#000000" stroke-width="1"/><polygon points="200.500000,192.500000 200.500000,160.500000 184.500000,168.500000 184.500000,200.500000 " fill="#00716b" stroke="#000000" stroke-width="1"/><polygon points="168.500000,160.500000 184.500000,152.500000 200.500000,160.500000 184.500000,168.500000 " fill="#33d7d1" stroke="#000000" stroke-width="1"/></a><a href="https://metagame.wtf/learn/wiki" aria-label="Unvisited" target="_top"><polygon points="136.500000,192.500000 136.500000,160.500000 152.500000,168.500000 152.500000,200.500000 " fill="#00a49e" stroke="#000000" stroke-width="1"/><polygon points="168.500000,192.500000 168.500000,160.500000 152.500000,168.500000 152.500000,200.500000 " fill="#00716b" stroke="#000000" stroke-width="1"/><polygon points="136.500000,160.500000 152.500000,152.500000 168.500000,160.500000 152.500000,168.500000 " fill="#33d7d1" stroke="#000000" stroke-width="1"/></a><a href="https://wiki.metagame.wtf/docs/playbooks/how-to-make-it-without-technical-skills" aria-label="Unvisited" target="_top"><polygon points="200.500000,192.500000 200.500000,160.500000 216.500000,168.500000 216.500000,200.500000 " fill="#00a49e" stroke="#000000" stroke-width="1"/><polygon points="232.500000,192.500000 232.500000,160.500000 216.500000,168.500000 216.500000,200.500000 " fill="#00716b" stroke="#000000" stroke-width="1"/><polygon points="200.500000,160.500000 216.500000,152.500000 232.500000,160.500000 216.500000,168.500000 " fill="#33d7d1" stroke="#000000" stroke-width="1"/></a><a href="https://wiki.metagame.wtf/docs/enter-metagame/navigation-board" aria-label="Unvisited" target="_top"><polygon points="104.500000,192.500000 104.500000,160.500000 120.500000,168.500000 120.500000,200.500000 " fill="#00a49e" stroke="#000000" stroke-width="1"/><polygon points="136.500000,192.500000 136.500000,160.500000 120.500000,168.500000 120.500000,200.500000 " fill="#00716b" stroke="#000000" stroke-width="1"/><polygon points="104.500000,160.500000 120.500000,152.500000 136.500000,160.500000 120.500000,168.500000 " fill="#33d7d1" stroke="#000000" stroke-width="1"/></a><a href="https://metagame.wtf/learn/thegreathouses" aria-label="Unvisited" target="_top"><polygon points="152.500000,200.500000 152.500000,168.500000 168.500000,176.500000 168.500000,208.500000 " fill="#00a49e" stroke="#000000" stroke-width="1"/><polygon points="184.500000,200.500000 184.500000,168.500000 168.500000,176.500000 168.500000,208.500000 " fill="#00716b" stroke="#000000" stroke-width="1"/><polygon points="152.500000,168.500000 168.500000,160.500000 184.500000,168.500000 168.500000,176.500000 " fill="#33d7d1" stroke="#000000" stroke-width="1"/></a><a href="https://metagame.wtf/learn/metaradio" aria-label="Unvisited" target="_top"><polygon points="184.500000,200.500000 184.500000,168.500000 200.500000,176.500000 200.500000,208.500000 " fill="#00a49e" stroke="#000000" stroke-width="1"/><polygon points="216.500000,200.500000 216.500000,168.500000 200.500000,176.500000 200.500000,208.500000 " fill="#00716b" stroke="#000000" stroke-width="1"/><polygon points="184.500000,168.500000 200.500000,160.500000 216.500000,168.500000 200.500000,176.500000 " fill="#33d7d1" stroke="#000000" stroke-width="1"/></a><a href="https://metagame.wtf/quests" aria-label="Unvisited" target="_top"><polygon points="120.500000,200.500000 120.500000,168.500000 136.500000,176.500000 136.500000,208.500000 " fill="#00a49e" stroke="#000000" stroke-width="1"/><polygon points="152.500000,200.500000 152.500000,168.500000 136.500000,176.500000 136.500000,208.500000 " fill="#00716b" stroke="#000000" stroke-width="1"/><polygon points="120.500000,168.500000 136.500000,160.500000 152.500000,168.500000 136.500000,176.500000 " fill="#33d7d1" stroke="#000000" stroke-width="1"/></a><a href="https://metagame.wtf/players" aria-label="MetaGame" target="_top"><polygon points="216.500000,200.500000 216.500000,168.500000 232.500000,176.500000 232.500000,208.500000 " fill="#00a49e" stroke="#000000" stroke-width="1"/><polygon points="248.500000,200.500000 248.500000,168.500000 232.500000,176.500000 232.500000,208.500000 " fill="#00716b" stroke="#000000" stroke-width="1"/><polygon points="216.500000,168.500000 232.500000,160.500000 248.500000,168.500000 232.500000,176.500000 " fill="#33d7d1" stroke="#000000" stroke-width="1"/></a><a href="https://metagame.wtf/seeds" aria-label="Unvisited" target="_top"><polygon points="168.500000,208.500000 168.500000,176.500000 184.500000,184.500000 184.500000,216.500000 " fill="#00a49e" stroke="#000000" stroke-width="1"/><polygon points="200.500000,208.500000 200.500000,176.500000 184.500000,184.500000 184.500000,216.500000 " fill="#00716b" stroke="#000000" stroke-width="1"/><polygon points="168.500000,176.500000 184.500000,168.500000 200.500000,176.500000 184.500000,184.500000 " fill="#33d7d1" stroke="#000000" stroke-width="1"/></a><a href="https://metagame.wtf/player/luxumbra" aria-label="Unvisited" target="_top"><polygon points="208.500000,204.500000 208.500000,188.500000 216.500000,192.500000 216.500000,208.500000 " fill="#00b2eb" stroke="#000000" stroke-width="1"/><polygon points="224.500000,204.500000 224.500000,188.500000 216.500000,192.500000 216.500000,208.500000 " fill="#007fb8" stroke="#000000" stroke-width="1"/><polygon points="208.500000,188.500000 216.500000,184.500000 224.500000,188.500000 216.500000,192.500000 " fill="#33e5ff" stroke="#000000" stroke-width="1"/></a><a href="https://metagame.wtf/player/peth" aria-label="Unvisited" target="_top"><polygon points="240.500000,204.500000 240.500000,188.500000 248.500000,192.500000 248.500000,208.500000 " fill="#00b2eb" stroke="#000000" stroke-width="1"/><polygon points="256.500000,204.500000 256.500000,188.500000 248.500000,192.500000 248.500000,208.500000 " fill="#007fb8" stroke="#000000" stroke-width="1"/><polygon points="240.500000,188.500000 248.500000,184.500000 256.500000,188.500000 248.500000,192.500000 " fill="#33e5ff" stroke="#000000" stroke-width="1"/></a><a href="https://metagame.wtf/community/patrons" aria-label="MetaGame Patrons" target="_top"><polygon points="136.500000,208.500000 136.500000,176.500000 152.500000,184.500000 152.500000,216.500000 " fill="#00a49e" stroke="#000000" stroke-width="1"/><polygon points="168.500000,208.500000 168.500000,176.500000 152.500000,184.500000 152.500000,216.500000 " fill="#00716b" stroke="#000000" stroke-width="1"/><polygon points="136.500000,176.500000 152.500000,168.500000 168.500000,176.500000 152.500000,184.500000 " fill="#33d7d1" stroke="#000000" stroke-width="1"/></a><a href="https://metagame.wtf/player/0x2a8fe25896fcce82c49c2db923abfa4198ad3394" aria-label="Unvisited" target="_top"><polygon points="232.500000,208.500000 232.500000,192.500000 240.500000,196.500000 240.500000,212.500000 " fill="#00b2eb" stroke="#000000" stroke-width="1"/><polygon points="248.500000,208.500000 248.500000,192.500000 240.500000,196.500000 240.500000,212.500000 " fill="#007fb8" stroke="#000000" stroke-width="1"/><polygon points="232.500000,192.500000 240.500000,188.500000 248.500000,192.500000 240.500000,196.500000 " fill="#33e5ff" stroke="#000000" stroke-width="1"/></a><a href="https://metagame.wtf/player/misanth" aria-label="Unvisited" target="_top"><polygon points="216.500000,208.500000 216.500000,192.500000 224.500000,196.500000 224.500000,212.500000 " fill="#00b2eb" stroke="#000000" stroke-width="1"/><polygon points="232.500000,208.500000 232.500000,192.500000 224.500000,196.500000 224.500000,212.500000 " fill="#007fb8" stroke="#000000" stroke-width="1"/><polygon points="216.500000,192.500000 224.500000,188.500000 232.500000,192.500000 224.500000,196.500000 " fill="#33e5ff" stroke="#000000" stroke-width="1"/></a><a href="https://metagame.wtf/player/unipuff" aria-label="Unvisited" target="_top"><polygon points="248.500000,208.500000 248.500000,192.500000 256.500000,196.500000 256.500000,212.500000 " fill="#00b2eb" stroke="#000000" stroke-width="1"/><polygon points="264.500000,208.500000 264.500000,192.500000 256.500000,196.500000 256.500000,212.500000 " fill="#007fb8" stroke="#000000" stroke-width="1"/><polygon points="248.500000,192.500000 256.500000,188.500000 264.500000,192.500000 256.500000,196.500000 " fill="#33e5ff" stroke="#000000" stroke-width="1"/></a><a href="https://metagame.wtf/player/dysbulic" aria-label="Unvisited" target="_top"><polygon points="200.500000,208.500000 200.500000,192.500000 208.500000,196.500000 208.500000,212.500000 " fill="#00b2eb" stroke="#000000" stroke-width="1"/><polygon points="216.500000,208.500000 216.500000,192.500000 208.500000,196.500000 208.500000,212.500000 " fill="#007fb8" stroke="#000000" stroke-width="1"/><polygon points="200.500000,192.500000 208.500000,188.500000 216.500000,192.500000 208.500000,196.500000 " fill="#33e5ff" stroke="#000000" stroke-width="1"/></a><a href="https://metagame.wtf/player/tenfinney" aria-label="Unvisited" target="_top"><polygon points="224.500000,212.500000 224.500000,196.500000 232.500000,200.500000 232.500000,216.500000 " fill="#00b2eb" stroke="#000000" stroke-width="1"/><polygon points="240.500000,212.500000 240.500000,196.500000 232.500000,200.500000 232.500000,216.500000 " fill="#007fb8" stroke="#000000" stroke-width="1"/><polygon points="224.500000,196.500000 232.500000,192.500000 240.500000,196.500000 232.500000,200.500000 " fill="#33e5ff" stroke="#000000" stroke-width="1"/></a><a href="https://metagame.wtf/player/vid" aria-label="Unvisited" target="_top"><polygon points="240.500000,212.500000 240.500000,196.500000 248.500000,200.500000 248.500000,216.500000 " fill="#00b2eb" stroke="#000000" stroke-width="1"/><polygon points="256.500000,212.500000 256.500000,196.500000 248.500000,200.500000 248.500000,216.500000 " fill="#007fb8" stroke="#000000" stroke-width="1"/><polygon points="240.500000,196.500000 248.500000,192.500000 256.500000,196.500000 248.500000,200.500000 " fill="#33e5ff" stroke="#000000" stroke-width="1"/></a><a href="https://metagame.wtf/player/hbesso31" aria-label="Unvisited" target="_top"><polygon points="208.500000,212.500000 208.500000,196.500000 216.500000,200.500000 216.500000,216.500000 " fill="#00b2eb" stroke="#000000" stroke-width="1"/><polygon points="224.500000,212.500000 224.500000,196.500000 216.500000,200.500000 216.500000,216.500000 " fill="#007fb8" stroke="#000000" stroke-width="1"/><polygon points="208.500000,196.500000 216.500000,192.500000 224.500000,196.500000 216.500000,200.500000 " fill="#33e5ff" stroke="#000000" stroke-width="1"/></a><a href="https://metagame.wtf/player/metadreamer" aria-label="Unvisited" target="_top"><polygon points="160.500000,212.500000 160.500000,196.500000 168.500000,200.500000 168.500000,216.500000 " fill="#00b2eb" stroke="#000000" stroke-width="1"/><polygon points="176.500000,212.500000 176.500000,196.500000 168.500000,200.500000 168.500000,216.500000 " fill="#007fb8" stroke="#000000" stroke-width="1"/><polygon points="160.500000,196.500000 168.500000,192.500000 176.500000,196.500000 168.500000,200.500000 " fill="#33e5ff" stroke="#000000" stroke-width="1"/></a><a href="https://metagame.wtf/player/0x6c6541cc3ec6bfc2d7b0ca48ccb0225cbbea9b59" aria-label="Unvisited" target="_top"><polygon points="128.500000,212.500000 128.500000,196.500000 136.500000,200.500000 136.500000,216.500000 " fill="#00b2eb" stroke="#000000" stroke-width="1"/><polygon points="144.500000,212.500000 144.500000,196.500000 136.500000,200.500000 136.500000,216.500000 " fill="#007fb8" stroke="#000000" stroke-width="1"/><polygon points="128.500000,196.500000 136.500000,192.500000 144.500000,196.500000 136.500000,200.500000 " fill="#33e5ff" stroke="#000000" stroke-width="1"/></a><a href="https://metagame.wtf/player/decentralion" aria-label="Unvisited" target="_top"><polygon points="136.500000,216.500000 136.500000,200.500000 144.500000,204.500000 144.500000,220.500000 " fill="#00b2eb" stroke="#000000" stroke-width="1"/><polygon points="152.500000,216.500000 152.500000,200.500000 144.500000,204.500000 144.500000,220.500000 " fill="#007fb8" stroke="#000000" stroke-width="1"/><polygon points="136.500000,200.500000 144.500000,196.500000 152.500000,200.500000 144.500000,204.500000 " fill="#33e5ff" stroke="#000000" stroke-width="1"/></a><a href="https://metagame.wtf/player/mprime" aria-label="Unvisited" target="_top"><polygon points="152.500000,216.500000 152.500000,200.500000 160.500000,204.500000 160.500000,220.500000 " fill="#00b2eb" stroke="#000000" stroke-width="1"/><polygon points="168.500000,216.500000 168.500000,200.500000 160.500000,204.500000 160.500000,220.500000 " fill="#007fb8" stroke="#000000" stroke-width="1"/><polygon points="152.500000,200.500000 160.500000,196.500000 168.500000,200.500000 160.500000,204.500000 " fill="#33e5ff" stroke="#000000" stroke-width="1"/></a><a href="https://metagame.wtf/player/polycarp" aria-label="Unvisited" target="_top"><polygon points="120.500000,216.500000 120.500000,200.500000 128.500000,204.500000 128.500000,220.500000 " fill="#00b2eb" stroke="#000000" stroke-width="1"/><polygon points="136.500000,216.500000 136.500000,200.500000 128.500000,204.500000 128.500000,220.500000 " fill="#007fb8" stroke="#000000" stroke-width="1"/><polygon points="120.500000,200.500000 128.500000,196.500000 136.500000,200.500000 128.500000,204.500000 " fill="#33e5ff" stroke="#000000" stroke-width="1"/></a><a href="https://metagame.wtf/player/jason" aria-label="Unvisited" target="_top"><polygon points="168.500000,216.500000 168.500000,200.500000 176.500000,204.500000 176.500000,220.500000 " fill="#00b2eb" stroke="#000000" stroke-width="1"/><polygon points="184.500000,216.500000 184.500000,200.500000 176.500000,204.500000 176.500000,220.500000 " fill="#007fb8" stroke="#000000" stroke-width="1"/><polygon points="168.500000,200.500000 176.500000,196.500000 184.500000,200.500000 176.500000,204.500000 " fill="#33e5ff" stroke="#000000" stroke-width="1"/></a><a href="https://metagame.wtf/player/playwith-eth" aria-label="Unvisited" target="_top"><polygon points="144.500000,220.500000 144.500000,204.500000 152.500000,208.500000 152.500000,224.500000 " fill="#00b2eb" stroke="#000000" stroke-width="1"/><polygon points="160.500000,220.500000 160.500000,204.500000 152.500000,208.500000 152.500000,224.500000 " fill="#007fb8" stroke="#000000" stroke-width="1"/><polygon points="144.500000,204.500000 152.500000,200.500000 160.500000,204.500000 152.500000,208.500000 " fill="#33e5ff" stroke="#000000" stroke-width="1"/></a><a href="https://metagame.wtf/player/lsdan" aria-label="Unvisited" target="_top"><polygon points="128.500000,220.500000 128.500000,204.500000 136.500000,208.500000 136.500000,224.500000 " fill="#00b2eb" stroke="#000000" stroke-width="1"/><polygon points="144.500000,220.500000 144.500000,204.500000 136.500000,208.500000 136.500000,224.500000 " fill="#007fb8" stroke="#000000" stroke-width="1"/><polygon points="128.500000,204.500000 136.500000,200.500000 144.500000,204.500000 136.500000,208.500000 " fill="#33e5ff" stroke="#000000" stroke-width="1"/></a><a href="https://metagame.wtf/player/magnus" aria-label="Unvisited" target="_top"><polygon points="160.500000,220.500000 160.500000,204.500000 168.500000,208.500000 168.500000,224.500000 " fill="#00b2eb" stroke="#000000" stroke-width="1"/><polygon points="176.500000,220.500000 176.500000,204.500000 168.500000,208.500000 168.500000,224.500000 " fill="#007fb8" stroke="#000000" stroke-width="1"/><polygon points="160.500000,204.500000 168.500000,200.500000 176.500000,204.500000 168.500000,208.500000 " fill="#33e5ff" stroke="#000000" stroke-width="1"/></a><a href="https://metagame.wtf/player/blairv" aria-label="Unvisited" target="_top"><polygon points="112.500000,220.500000 112.500000,204.500000 120.500000,208.500000 120.500000,224.500000 " fill="#00b2eb" stroke="#000000" stroke-width="1"/><polygon points="128.500000,220.500000 128.500000,204.500000 120.500000,208.500000 120.500000,224.500000 " fill="#007fb8" stroke="#000000" stroke-width="1"/><polygon points="112.500000,204.500000 120.500000,200.500000 128.500000,204.500000 120.500000,208.500000 " fill="#33e5ff" stroke="#000000" stroke-width="1"/></a><a href="https://metagame.wtf/player/kris" aria-label="Unvisited" target="_top"><polygon points="176.500000,220.500000 176.500000,204.500000 184.500000,208.500000 184.500000,224.500000 " fill="#00b2eb" stroke="#000000" stroke-width="1"/><polygon points="192.500000,220.500000 192.500000,204.500000 184.500000,208.500000 184.500000,224.500000 " fill="#007fb8" stroke="#000000" stroke-width="1"/><polygon points="176.500000,204.500000 184.500000,200.500000 192.500000,204.500000 184.500000,208.500000 " fill="#33e5ff" stroke="#000000" stroke-width="1"/></a><a href="https://metagame.wtf/player/jack-g" aria-label="Unvisited" target="_top"><polygon points="136.500000,224.500000 136.500000,208.500000 144.500000,212.500000 144.500000,228.500000 " fill="#00b2eb" stroke="#000000" stroke-width="1"/><polygon points="152.500000,224.500000 152.500000,208.500000 144.500000,212.500000 144.500000,228.500000 " fill="#007fb8" stroke="#000000" stroke-width="1"/><polygon points="136.500000,208.500000 144.500000,204.500000 152.500000,208.500000 144.500000,212.500000 " fill="#33e5ff" stroke="#000000" stroke-width="1"/></a><a href="https://metagame.wtf/player/charingane" aria-label="Unvisited" target="_top"><polygon points="152.500000,224.500000 152.500000,208.500000 160.500000,212.500000 160.500000,228.500000 " fill="#00b2eb" stroke="#000000" stroke-width="1"/><polygon points="168.500000,224.500000 168.500000,208.500000 160.500000,212.500000 160.500000,228.500000 " fill="#007fb8" stroke="#000000" stroke-width="1"/><polygon points="152.500000,208.500000 160.500000,204.500000 168.500000,208.500000 160.500000,212.500000 " fill="#33e5ff" stroke="#000000" stroke-width="1"/></a><a href="https://metagame.wtf/player/the-lone-r-nin" aria-label="Unvisited" target="_top"><polygon points="120.500000,224.500000 120.500000,208.500000 128.500000,212.500000 128.500000,228.500000 " fill="#00b2eb" stroke="#000000" stroke-width="1"/><polygon points="136.500000,224.500000 136.500000,208.500000 128.500000,212.500000 128.500000,228.500000 " fill="#007fb8" stroke="#000000" stroke-width="1"/><polygon points="120.500000,208.500000 128.500000,204.500000 136.500000,208.500000 128.500000,212.500000 " fill="#33e5ff" stroke="#000000" stroke-width="1"/></a><a href="https://metagame.wtf/player/0x750a31fa07184caf87b6cce251d2f0d7928badde" aria-label="Unvisited" target="_top"><polygon points="168.500000,224.500000 168.500000,208.500000 176.500000,212.500000 176.500000,228.500000 " fill="#00b2eb" stroke="#000000" stroke-width="1"/><polygon points="184.500000,224.500000 184.500000,208.500000 176.500000,212.500000 176.500000,228.500000 " fill="#007fb8" stroke="#000000" stroke-width="1"/><polygon points="168.500000,208.500000 176.500000,204.500000 184.500000,208.500000 176.500000,212.500000 " fill="#33e5ff" stroke="#000000" stroke-width="1"/></a><a href="https://metagame.wtf/player/defidude" aria-label="Unvisited" target="_top"><polygon points="104.500000,224.500000 104.500000,208.500000 112.500000,212.500000 112.500000,228.500000 " fill="#00b2eb" stroke="#000000" stroke-width="1"/><polygon points="120.500000,224.500000 120.500000,208.500000 112.500000,212.500000 112.500000,228.500000 " fill="#007fb8" stroke="#000000" stroke-width="1"/><polygon points="104.500000,208.500000 112.500000,204.500000 120.500000,208.500000 112.500000,212.500000 " fill="#33e5ff" stroke="#000000" stroke-width="1"/></a><a href="https://metagame.wtf/player/max" aria-label="Unvisited" target="_top"><polygon points="184.500000,224.500000 184.500000,208.500000 192.500000,212.500000 192.500000,228.500000 " fill="#00b2eb" stroke="#000000" stroke-width="1"/><polygon points="200.500000,224.500000 200.500000,208.500000 192.500000,212.500000 192.500000,228.500000 " fill="#007fb8" stroke="#000000" stroke-width="1"/><polygon points="184.500000,208.500000 192.500000,204.500000 200.500000,208.500000 192.500000,212.500000 " fill="#33e5ff" stroke="#000000" stroke-width="1"/></a><a href="https://metagame.wtf/player/0x7a3bf9b823eb96f8f0777437ec01d0082182c2af" aria-label="Unvisited" target="_top"><polygon points="144.500000,228.500000 144.500000,212.500000 152.500000,216.500000 152.500000,232.500000 " fill="#00b2eb" stroke="#000000" stroke-width="1"/><polygon points="160.500000,228.500000 160.500000,212.500000 152.500000,216.500000 152.500000,232.500000 " fill="#007fb8" stroke="#000000" stroke-width="1"/><polygon points="144.500000,212.500000 152.500000,208.500000 160.500000,212.500000 152.500000,216.500000 " fill="#33e5ff" stroke="#000000" stroke-width="1"/></a><a href="https://metagame.wtf/player/patrick727" aria-label="Unvisited" target="_top"><polygon points="128.500000,228.500000 128.500000,212.500000 136.500000,216.500000 136.500000,232.500000 " fill="#00b2eb" stroke="#000000" stroke-width="1"/><polygon points="144.500000,228.500000 144.500000,212.500000 136.500000,216.500000 136.500000,232.500000 " fill="#007fb8" stroke="#000000" stroke-width="1"/><polygon points="128.500000,212.500000 136.500000,208.500000 144.500000,212.500000 136.500000,216.500000 " fill="#33e5ff" stroke="#000000" stroke-width="1"/></a><a href="https://metagame.wtf/player/dunks411" aria-label="Unvisited" target="_top"><polygon points="160.500000,228.500000 160.500000,212.500000 168.500000,216.500000 168.500000,232.500000 " fill="#00b2eb" stroke="#000000" stroke-width="1"/><polygon points="176.500000,228.500000 176.500000,212.500000 168.500000,216.500000 168.500000,232.500000 " fill="#007fb8" stroke="#000000" stroke-width="1"/><polygon points="160.500000,212.500000 168.500000,208.500000 176.500000,212.500000 168.500000,216.500000 " fill="#33e5ff" stroke="#000000" stroke-width="1"/></a><a href="https://metagame.wtf/player/sky" aria-label="Unvisited" target="_top"><polygon points="112.500000,228.500000 112.500000,212.500000 120.500000,216.500000 120.500000,232.500000 " fill="#00b2eb" stroke="#000000" stroke-width="1"/><polygon points="128.500000,228.500000 128.500000,212.500000 120.500000,216.500000 120.500000,232.500000 " fill="#007fb8" stroke="#000000" stroke-width="1"/><polygon points="112.500000,212.500000 120.500000,208.500000 128.500000,212.500000 120.500000,216.500000 " fill="#33e5ff" stroke="#000000" stroke-width="1"/></a><a href="https://metagame.wtf/player/ecwireless" aria-label="Unvisited" target="_top"><polygon points="176.500000,228.500000 176.500000,212.500000 184.500000,216.500000 184.500000,232.500000 " fill="#00b2eb" stroke="#000000" stroke-width="1"/><polygon points="192.500000,228.500000 192.500000,212.500000 184.500000,216.500000 184.500000,232.500000 " fill="#007fb8" stroke="#000000" stroke-width="1"/><polygon points="176.500000,212.500000 184.500000,208.500000 192.500000,212.500000 184.500000,216.500000 " fill="#33e5ff" stroke="#000000" stroke-width="1"/></a><a href="https://metagame.wtf/player/tweetious" aria-label="Unvisited" target="_top"><polygon points="96.500000,228.500000 96.500000,212.500000 104.500000,216.500000 104.500000,232.500000 " fill="#00b2eb" stroke="#000000" stroke-width="1"/><polygon points="112.500000,228.500000 112.500000,212.500000 104.500000,216.500000 104.500000,232.500000 " fill="#007fb8" stroke="#000000" stroke-width="1"/><polygon points="96.500000,212.500000 104.500000,208.500000 112.500000,212.500000 104.500000,216.500000 " fill="#33e5ff" stroke="#000000" stroke-width="1"/></a><a href="https://metagame.wtf/player/oiou_crh" aria-label="Unvisited" target="_top"><polygon points="192.500000,228.500000 192.500000,212.500000 200.500000,216.500000 200.500000,232.500000 " fill="#00b2eb" stroke="#000000" stroke-width="1"/><polygon points="208.500000,228.500000 208.500000,212.500000 200.500000,216.500000 200.500000,232.500000 " fill="#007fb8" stroke="#000000" stroke-width="1"/><polygon points="192.500000,212.500000 200.500000,208.500000 208.500000,212.500000 200.500000,216.500000 " fill="#33e5ff" stroke="#000000" stroke-width="1"/></a><a href="https://metagame.wtf/player/pronoia" aria-label="Unvisited" target="_top"><polygon points="136.500000,232.500000 136.500000,216.500000 144.500000,220.500000 144.500000,236.500000 " fill="#00b2eb" stroke="#000000" stroke-width="1"/><polygon points="152.500000,232.500000 152.500000,216.500000 144.500000,220.500000 144.500000,236.500000 " fill="#007fb8" stroke="#000000" stroke-width="1"/><polygon points="136.500000,216.500000 144.500000,212.500000 152.500000,216.500000 144.500000,220.500000 " fill="#33e5ff" stroke="#000000" stroke-width="1"/></a><a href="https://metagame.wtf/player/0xjoshua" aria-label="Unvisited" target="_top"><polygon points="152.500000,232.500000 152.500000,216.500000 160.500000,220.500000 160.500000,236.500000 " fill="#00b2eb" stroke="#000000" stroke-width="1"/><polygon points="168.500000,232.500000 168.500000,216.500000 160.500000,220.500000 160.500000,236.500000 " fill="#007fb8" stroke="#000000" stroke-width="1"/><polygon points="152.500000,216.500000 160.500000,212.500000 168.500000,216.500000 160.500000,220.500000 " fill="#33e5ff" stroke="#000000" stroke-width="1"/></a><a href="https://metagame.wtf/player/felixfalafel" aria-label="Unvisited" target="_top"><polygon points="120.500000,232.500000 120.500000,216.500000 128.500000,220.500000 128.500000,236.500000 " fill="#00b2eb" stroke="#000000" stroke-width="1"/><polygon points="136.500000,232.500000 136.500000,216.500000 128.500000,220.500000 128.500000,236.500000 " fill="#007fb8" stroke="#000000" stroke-width="1"/><polygon points="120.500000,216.500000 128.500000,212.500000 136.500000,216.500000 128.500000,220.500000 " fill="#33e5ff" stroke="#000000" stroke-width="1"/></a><a href="https://metagame.wtf/player/0x0230c6dd5db1d3f871386a3ce1a5a836b2590044" aria-label="Unvisited" target="_top"><polygon points="168.500000,232.500000 168.500000,216.500000 176.500000,220.500000 176.500000,236.500000 " fill="#00b2eb" stroke="#000000" stroke-width="1"/><polygon points="184.500000,232.500000 184.500000,216.500000 176.500000,220.500000 176.500000,236.500000 " fill="#007fb8" stroke="#000000" stroke-width="1"/><polygon points="168.500000,216.500000 176.500000,212.500000 184.500000,216.500000 176.500000,220.500000 " fill="#33e5ff" stroke="#000000" stroke-width="1"/></a><a href="https://metagame.wtf/player/defilezebra" aria-label="Unvisited" target="_top"><polygon points="104.500000,232.500000 104.500000,216.500000 112.500000,220.500000 112.500000,236.500000 " fill="#00b2eb" stroke="#000000" stroke-width="1"/><polygon points="120.500000,232.500000 120.500000,216.500000 112.500000,220.500000 112.500000,236.500000 " fill="#007fb8" stroke="#000000" stroke-width="1"/><polygon points="104.500000,216.500000 112.500000,212.500000 120.500000,216.500000 112.500000,220.500000 " fill="#33e5ff" stroke="#000000" stroke-width="1"/></a><a href="https://metagame.wtf/player/benoxmo" aria-label="Unvisited" target="_top"><polygon points="144.500000,236.500000 144.500000,220.500000 152.500000,224.500000 152.500000,240.500000 " fill="#00b2eb" stroke="#000000" stroke-width="1"/><polygon points="160.500000,236.500000 160.500000,220.500000 152.500000,224.500000 152.500000,240.500000 " fill="#007fb8" stroke="#000000" stroke-width="1"/><polygon points="144.500000,220.500000 152.500000,216.500000 160.500000,220.500000 152.500000,224.500000 " fill="#33e5ff" stroke="#000000" stroke-width="1"/></a><a href="https://metagame.wtf/player/saimano" aria-label="Unvisited" target="_top"><polygon points="128.500000,236.500000 128.500000,220.500000 136.500000,224.500000 136.500000,240.500000 " fill="#00b2eb" stroke="#000000" stroke-width="1"/><polygon points="144.500000,236.500000 144.500000,220.500000 136.500000,224.500000 136.500000,240.500000 " fill="#007fb8" stroke="#000000" stroke-width="1"/><polygon points="128.500000,220.500000 136.500000,216.500000 144.500000,220.500000 136.500000,224.500000 " fill="#33e5ff" stroke="#000000" stroke-width="1"/></a><a href="https://metagame.wtf/player/0x37bd0ae78dd5cd338d6e80b5c87b6f8e38121297" aria-label="Unvisited" target="_top"><polygon points="160.500000,236.500000 160.500000,220.500000 168.500000,224.500000 168.500000,240.500000 " fill="#00b2eb" stroke="#000000" stroke-width="1"/><polygon points="176.500000,236.500000 176.500000,220.500000 168.500000,224.500000 168.500000,240.500000 " fill="#007fb8" stroke="#000000" stroke-width="1"/><polygon points="160.500000,220.500000 168.500000,216.500000 176.500000,220.500000 168.500000,224.500000 " fill="#33e5ff" stroke="#000000" stroke-width="1"/></a><a href="https://metagame.wtf/player/t-wells" aria-label="Unvisited" target="_top"><polygon points="112.500000,236.500000 112.500000,220.500000 120.500000,224.500000 120.500000,240.500000 " fill="#00b2eb" stroke="#000000" stroke-width="1"/><polygon points="128.500000,236.500000 128.500000,220.500000 120.500000,224.500000 120.500000,240.500000 " fill="#007fb8" stroke="#000000" stroke-width="1"/><polygon points="112.500000,220.500000 120.500000,216.500000 128.500000,220.500000 120.500000,224.500000 " fill="#33e5ff" stroke="#000000" stroke-width="1"/></a><a href="https://metagame.wtf/player/jaywelsh" aria-label="Unvisited" target="_top"><polygon points="136.500000,240.500000 136.500000,224.500000 144.500000,228.500000 144.500000,244.500000 " fill="#00b2eb" stroke="#000000" stroke-width="1"/><polygon points="152.500000,240.500000 152.500000,224.500000 144.500000,228.500000 144.500000,244.500000 " fill="#007fb8" stroke="#000000" stroke-width="1"/><polygon points="136.500000,224.500000 144.500000,220.500000 152.500000,224.500000 144.500000,228.500000 " fill="#33e5ff" stroke="#000000" stroke-width="1"/></a><a href="https://metagame.wtf/player/uranus" aria-label="Unvisited" target="_top"><polygon points="152.500000,240.500000 152.500000,224.500000 160.500000,228.500000 160.500000,244.500000 " fill="#00b2eb" stroke="#000000" stroke-width="1"/><polygon points="168.500000,240.500000 168.500000,224.500000 160.500000,228.500000 160.500000,244.500000 " fill="#007fb8" stroke="#000000" stroke-width="1"/><polygon points="152.500000,224.500000 160.500000,220.500000 168.500000,224.500000 160.500000,228.500000 " fill="#33e5ff" stroke="#000000" stroke-width="1"/></a><a href="https://metagame.wtf/player/0x4f4fe578482dccdde80d724817ac091a417c0874" aria-label="Unvisited" target="_top"><polygon points="120.500000,240.500000 120.500000,224.500000 128.500000,228.500000 128.500000,244.500000 " fill="#00b2eb" stroke="#000000" stroke-width="1"/><polygon points="136.500000,240.500000 136.500000,224.500000 128.500000,228.500000 128.500000,244.500000 " fill="#007fb8" stroke="#000000" stroke-width="1"/><polygon points="120.500000,224.500000 128.500000,220.500000 136.500000,224.500000 128.500000,228.500000 " fill="#33e5ff" stroke="#000000" stroke-width="1"/></a><a href="https://metagame.wtf/player/felix" aria-label="Unvisited" target="_top"><polygon points="144.500000,244.500000 144.500000,228.500000 152.500000,232.500000 152.500000,248.500000 " fill="#00b2eb" stroke="#000000" stroke-width="1"/><polygon points="160.500000,244.500000 160.500000,228.500000 152.500000,232.500000 152.500000,248.500000 " fill="#007fb8" stroke="#000000" stroke-width="1"/><polygon points="144.500000,228.500000 152.500000,224.500000 160.500000,228.500000 152.500000,232.500000 " fill="#33e5ff" stroke="#000000" stroke-width="1"/></a><text clip-path="url(#cp-1)" x="78" y="36" stroke="#ffffff" stroke-width="2" paint-order="stroke" stroke-opacity="0.75"><tspan x="103.5" text-anchor="middle">MetaGame</tspan></text><clipPath id="cp-1"><rect x="77" y="24" width="52" height="15"/></clipPath><line stroke="#000000" stroke-width="1" stroke-dasharray="1, 1" x1="168.5" y1="112.5" x2="184.5" y2="104.5"/><line stroke="#000000" stroke-width="1" stroke-dasharray="1, 1" x1="184.5" y1="104.5" x2="184.5" y2="10.5"/><line stroke="#000000" stroke-width="1" stroke-dasharray="1, 1" x1="184.5" y1="10.5" x2="191.5" y2="10.5"/><text clip-path="url(#cp-2)" x="194" y="14"><tspan x="194">MetaGame Dashboard</tspan></text><clipPath id="cp-2"><rect x="193" y="-1" width="108" height="22"/></clipPath></svg>
